<?xml version="1.0" encoding="UTF-8"?>
<svg width="177px" height="89px" viewBox="0 0 177 89" version="1.1" xmlns="http://www.w3.org/2000/svg" xmlns:xlink="http://www.w3.org/1999/xlink">
    <!-- Generator: Sketch 53.1 (72631) - https://sketchapp.com -->
    <title>PE - Logo Memo Horizontal - CMJN-01</title>
    <desc>Created with Sketch.</desc>
    <g id="MAP-conseiller" stroke="none" stroke-width="1" fill="none" fill-rule="evenodd">
        <g id="Artboard" transform="translate(-8631.000000, -1929.000000)" fill-rule="nonzero">
            <g id="PE---Logo-Memo-Horizontal---CMJN-01" transform="translate(8631.000000, 1929.000000)">
                <path d="M86,44.5 C86,69.0765382 66.7481156,89 43,89 C19.2515106,89 0,69.0765382 0,44.5 C0,19.9230749 19.2515106,0 43,0 C66.7481156,1.09959579e-14 86,19.9230749 86,44.5" id="Shape" fill="#0B2D3D"></path>
                <path d="M89,16.3279256 C89,16.7178046 88.956096,17.0099251 88.8690198,17.205057 C88.7812118,17.4001889 88.6721836,17.6145646 88.5408375,17.8481841 C88.4098573,18.0821884 88.2620472,18.3812367 88.098139,18.7449441 C87.933865,19.1094213 87.7860549,19.6417042 87.6550747,20.3433323 C87.5240945,21.071132 87.3975047,21.7077162 87.2778663,22.2534697 C87.1571304,22.7992233 87.0532243,23.319575 86.9657822,23.8129855 C86.8783401,24.3067808 86.8066302,24.8067342 86.7528479,25.3136153 C86.6979679,25.8204964 86.670162,26.4120501 86.670162,27.0875067 C86.670162,28.2571435 86.64821,29.4136946 86.6046719,30.5571599 C86.5604021,31.70101 86.494912,32.8898906 86.4074699,34.1241865 C86.3200278,35.3588673 86.2161217,36.6451214 86.0961175,37.9833337 C85.9753815,39.3223158 85.8385474,40.7706025 85.6859811,42.3301183 C85.4668271,44.5389191 85.2480389,46.8781927 85.0292507,49.3467845 C84.8104625,51.8161461 84.7014343,54.3628677 84.7014343,56.9881038 L84.7014343,59.4439948 C84.7014343,60.3800121 84.7178983,61.3803037 84.7508263,62.4456392 C84.7833884,63.5121294 84.8272924,64.5963239 84.8818065,65.7013016 C84.9359548,66.8055096 85.0182747,67.8777729 85.1280347,68.9169369 C85.2374288,69.0474097 85.3303589,69.1316974 85.4071908,69.170185 C85.4832911,69.2094423 85.5981731,69.2941149 85.7514712,69.4234331 C86.538816,70.0219146 87.1077384,70.5411117 87.4578726,70.9829488 C87.807641,71.4251709 87.9828911,72.0224977 87.9828911,72.7764689 C87.9828911,73.3218376 87.840569,73.9006904 87.5566566,74.5111031 C87.2720125,75.1211308 86.8940723,75.686513 86.4239339,76.2064799 C85.9537954,76.7264468 85.417801,77.1551982 84.8163164,77.4931189 C84.2141001,77.8306548 83.5965174,78 82.9624708,78 C81.6932798,78 80.6432429,77.5319913 79.8123601,76.5967437 C78.9807455,75.6607264 78.3302348,74.4583751 77.8597305,72.9908446 C77.3892262,71.5229293 77.0610439,69.8856686 76.8755496,68.0786779 C76.6900553,66.2728418 76.5963934,64.4862494 76.5963934,62.7181311 L76.5963934,61.3537473 C76.5963934,60.6263325 76.6567614,59.5217396 76.7771315,58.0403536 C76.8971357,56.5585827 77.0500679,54.8701337 77.2366598,52.9723123 C77.4217883,51.0756455 77.6299663,49.0612069 77.8597305,46.9301509 C78.0894947,44.7994798 78.3302348,42.7138392 78.581951,40.673229 C78.8333013,38.6333885 79.0740415,36.729794 79.3038056,34.9624455 C79.5335698,33.1950969 79.735894,31.7398824 79.9107782,30.5960323 C79.6484519,30.9859112 79.2818536,31.5509085 78.8117152,32.291794 C78.3412108,33.0322946 77.8158265,33.8578526 77.2366598,34.7673136 C76.6567614,35.6771594 76.0435691,36.6381937 75.3989123,37.6519559 C74.7535238,38.6657181 74.1297214,39.6598516 73.5286027,40.6343566 C72.9267523,41.6088615 72.3585616,42.5248653 71.8225671,43.382368 C71.2862068,44.2402557 70.8325324,44.9684402 70.460812,45.5657671 C69.6291974,46.91745 68.8308767,48.2552775 68.065118,49.5807889 C67.2989936,50.9063003 66.5010387,52.271069 65.6694241,53.6747102 C65.603934,53.752455 65.5000279,53.9221852 65.3577058,54.1812064 C65.2153838,54.4409974 65.0569636,54.7338877 64.8817135,55.0583378 C64.7064634,55.3835576 64.5315792,55.7014649 64.356695,56.0128292 C64.181445,56.3249633 64.0285128,56.5585827 63.8975326,56.7148422 C62.3656495,59.1580322 60.6815659,60.6909916 58.8441843,61.3148749 C57.6628013,60.8734226 56.7163046,60.392713 56.0057919,59.8723613 C55.2945473,59.3523944 54.7095268,58.7873971 54.2503643,58.1765996 C53.7904701,57.5661869 53.4019199,56.8968883 53.0850795,56.1690887 C52.7678732,55.441289 52.4009091,54.6746169 51.9856506,53.8686875 C51.5477084,52.9853981 51.1544019,52.1794686 50.8046335,51.4520538 C50.4541334,50.7242542 50.1479031,50.0745842 49.8852109,49.5026591 C49.3159226,48.281449 48.7802941,46.99481 48.2772276,45.6431271 C47.7737953,44.2922139 47.3036568,42.9147442 46.8664463,41.511488 C46.5598502,40.3418511 46.2924018,39.3415596 46.0626376,38.5098435 C45.8328734,37.6781274 45.6195732,36.8983695 45.4227371,36.1705698 C45.2259009,35.4435399 45.0290647,34.7026545 44.8322285,33.9486833 C44.6353923,33.1950969 44.4162383,32.3114226 44.1754981,31.2976604 C44.13196,31.4797066 44.0448838,31.9215437 43.9131718,32.6231718 C43.7821916,33.3248 43.6179175,34.1957734 43.4207155,35.2349374 C43.2242452,36.2748711 43.0050911,37.431807 42.7647168,38.7045905 C42.5239767,39.9781437 42.2832365,41.2774836 42.0428622,42.602995 C41.8017562,43.9285064 41.5668699,45.2216883 41.3367398,46.4817709 C41.1077074,47.7426232 40.8991635,48.8791607 40.7133033,49.8925381 C40.5274431,50.9063003 40.3693888,51.7445593 40.2380427,52.4069301 C40.1066966,53.0700707 40.0298646,53.4661076 40.0079126,53.5961956 C39.5699704,55.6752933 39.351914,57.6508596 39.351914,59.5217396 C39.351914,59.9112337 39.3405721,60.5154883 39.318986,61.3341186 C39.2966681,62.1527489 39.28057,63.0241072 39.269594,63.946269 C39.2582522,64.8692006 39.2417882,65.7590329 39.220202,66.6165357 C39.1978842,67.4744233 39.187274,68.1367941 39.187274,68.6048028 C39.187274,68.9942968 39.088856,69.476161 38.8916539,70.0473164 C38.6948177,70.6188566 38.4211496,71.164995 38.071747,71.684577 C37.7216128,72.2049287 37.3173303,72.6533088 36.8578019,73.0293322 C36.3982736,73.4061254 35.9171591,73.5947144 35.4140927,73.5947144 C34.6918722,73.5947144 34.0680698,73.5554571 33.5437831,73.4777122 C33.0183987,73.3999673 32.5643584,73.2440927 32.1820279,73.0097035 C31.7985998,72.7764689 31.4649295,72.4385482 31.1810171,71.9963262 C30.8967388,71.5548739 30.6344125,70.982564 30.3936724,70.2809358 C30.3062303,70.0473164 30.2400084,69.7936834 30.1964703,69.5204217 C30.1529322,69.2479298 30.1148821,68.9034662 30.0819541,68.4874157 C30.0490261,68.0717501 30.02744,67.5583261 30.016464,66.9475286 C30.0051221,66.337116 30,65.5635161 30,64.6278837 C30,64.342306 30.0819541,63.7642229 30.2462282,62.8936344 C30.4101364,62.022661 30.6183144,60.977339 30.8696647,59.7553591 C31.1213809,58.5337641 31.3998053,57.2147955 31.7064014,55.7984535 C32.0126317,54.3821115 32.3239841,52.9915561 32.6415562,51.6271722 C32.9583966,50.2627884 33.2536509,48.9765343 33.5276849,47.7676401 C33.8006214,46.5591309 34.0248975,45.578468 34.2001476,44.8244967 C34.5067437,43.5255417 34.8235841,42.1738588 35.1521323,40.7702176 C35.4799487,39.3669613 35.8030088,37.9506193 36.1202151,36.5211915 C36.4366896,35.0921485 36.7542617,33.6692636 37.071468,32.2521518 C37.3886743,30.8361946 37.6788064,29.4914394 37.9411327,28.2175013 C38.0724788,26.9185463 38.2038249,25.9698281 38.3348051,25.3717315 C38.4657853,24.6701033 38.6414012,23.9234448 38.8601894,23.1302162 C39.0789776,22.3377575 39.3467918,21.6099578 39.6639981,20.9472021 C39.9812044,20.2844464 40.3635349,19.7325348 40.8124531,19.2903128 C41.2610055,18.8488605 41.7918778,18.6275571 42.4043383,18.6275571 C44.175864,18.6275571 45.5921332,18.8615614 46.653512,19.3291852 C47.714159,19.7971939 48.5673597,20.5184507 49.2131141,21.4929556 C49.8581368,22.4674605 50.3663254,23.72177 50.7387775,25.2547293 C51.1108638,26.7884584 51.4931943,28.6335518 51.8872325,30.7903944 C51.9966266,31.3884911 52.1276068,31.9150008 52.2812707,32.3695388 C52.4342029,32.8244618 52.5977453,33.3244151 52.7737271,33.8701686 C53.516802,36.5735346 54.4193946,39.2568869 55.4804075,41.9206107 C56.5414204,44.5843344 57.7718295,47.2161135 59.1720007,49.8140235 C59.7405572,49.2682699 60.2600877,48.5735695 60.7309579,47.7287677 C61.2010964,46.8847356 61.7202609,45.8517296 62.2895492,44.6293648 C62.7926157,43.5640293 63.301536,42.5571948 63.8152126,41.6080917 C64.3288892,40.6597583 64.9146415,39.7564554 65.571006,38.8985678 C65.8113803,38.5868186 66.1944425,38.0479928 66.7201927,37.2809358 C67.2448453,36.5146486 67.8518179,35.6182734 68.5411104,34.5910406 C69.230037,33.5645775 69.9570138,32.4799981 70.7231383,31.336148 C71.4888969,30.1926827 72.2103856,29.1077185 72.889068,28.0808705 C73.5666528,27.0544074 74.1685032,26.1449465 74.6938875,25.3521028 C75.218906,24.559644 75.5906264,23.9942619 75.8094146,23.6559562 C76.0501547,23.3188053 76.2360149,23.0520865 76.367361,22.8569546 C76.4983412,22.6618227 76.6629811,22.4347461 76.8594514,22.1745702 C77.0998257,21.7592895 77.493864,21.1219356 78.0408344,20.2644328 C78.5870731,19.4069301 79.1614836,18.4974692 79.763334,17.5356651 C80.3648185,16.5746309 80.9447169,15.6582422 81.5022975,14.7872688 C82.060244,13.9170651 82.4703803,13.2608523 82.7330725,12.8186303 C83.0389369,12.2728768 83.6188353,12 84.472036,12 C84.9315644,12 85.4240207,12.1628024 85.9486733,12.4872525 C86.4740576,12.8124723 86.9602942,13.2085092 87.4088465,13.6761331 C87.857033,14.1441417 88.2291193,14.6379371 88.5243735,15.1575191 C88.8199937,15.6778708 88.9678037,16.1324089 88.9678037,16.5219029 L89,16.3279256 Z" id="Shape" fill="#60C6F5"></path>
                <g id="Group" transform="translate(103.000000, 35.000000)" fill="#0B2D3D">
                    <path d="M0.0858737775,0.0406033955 L2.96583278,0.0406033955 L8.27575719,7.59100597 C8.99574694,8.67376319 9.50536469,9.4053559 9.98610784,10.195476 L10.046107,10.195476 C10.465726,9.43461961 11.0057183,8.55707415 11.6953335,7.47431694 L16.5856389,0.0409691918 L19.4955975,0.0409691918 L19.4955975,19.3264847 L16.3456423,19.3264847 L16.3456423,7.94253627 C16.3456423,7.09425452 16.3456423,6.01149731 16.3756419,5.16248397 L16.3456423,5.16248397 C16.016022,5.80628555 15.3260318,6.83051535 14.965662,7.38652581 L10.7360972,13.8541712 L9.23611852,13.8541712 L4.58618471,7.24020727 C4.1658157,6.6549331 3.62582338,5.92334039 3.23545394,5.19174768 L3.17620479,5.19174768 C3.23545394,6.01113151 3.23545394,7.12315243 3.23545394,7.88400885 L3.23545394,19.3261189 L0.0862487722,19.3261189 L0.0862487722,0.0406033955 L0.0858737775,0.0406033955 Z" id="Shape"></path>
                    <path d="M25.3443892,13.1511106 C25.4043884,15.521471 26.9943657,17.1898681 29.574704,17.1898681 C30.9846839,17.1898681 32.1242927,16.8094399 33.1446532,16.2530637 L34.0746399,18.3311528 C32.6946596,19.2086982 30.9246848,19.6187559 29.2443337,19.6187559 C24.2947792,19.6187559 22.1640595,16.1949021 22.1640595,12.3613562 C22.1640595,8.17664594 24.5340257,5.13285446 28.3743461,5.13285446 C32.244291,5.13285446 34.4642594,7.94217047 34.4642594,12.4195179 L34.4642594,13.1511106 L25.3443892,13.1511106 Z M31.2843047,10.9855962 C31.2250555,9.22977365 30.3546929,7.50321485 28.3443465,7.50321485 C26.4547484,7.50321485 25.3443892,9.11235302 25.3143896,10.9855962 L31.2843047,10.9855962 Z" id="Shape"></path>
                    <path d="M36.4138566,5.48401896 L39.0241945,5.48401896 L39.3538148,7.12278664 C40.7937943,5.98150201 42.4137712,5.13285446 44.184121,5.13285446 C45.8640971,5.13285446 47.2140779,5.89371088 47.9040681,7.35689631 C49.6144187,5.92297459 51.4136431,5.13285446 53.0639946,5.13285446 C55.49396,5.13285446 57.5939301,6.50824876 57.5939301,10.1080507 L57.5939301,19.3261189 L54.4739745,19.3261189 L54.4739745,10.9563324 C54.4739745,9.20050994 54.1143547,7.79585193 52.2240066,7.79585193 C50.9643995,7.79585193 49.6744179,8.49818094 48.5340591,9.4049901 C48.5640587,9.58057235 48.5640587,9.81468202 48.5640587,10.0491575 L48.5640587,19.3257531 L45.4441031,19.3257531 L45.4441031,10.9852304 C45.4441031,9.22940785 45.0844832,7.79548614 43.2241347,7.79548614 C41.934528,7.79548614 40.6437964,8.49781514 39.5341872,9.40462431 L39.5341872,19.3253873 L36.4142316,19.3253873 L36.4142316,5.48401896 L36.4138566,5.48401896 Z" id="Shape"></path>
                    <path d="M59.5135278,12.3613562 C59.5135278,8.23517336 62.2731135,5.13285446 66.4434291,5.13285446 C70.5829952,5.13285446 73.3433309,8.23480756 73.3433309,12.3613562 C73.3433309,16.4879049 70.5829952,19.6187559 66.4434291,19.6187559 C62.3034881,19.6187559 59.5135278,16.4875391 59.5135278,12.3613562 Z M70.1333766,12.3613562 C70.1333766,9.61020186 68.8133954,7.62026968 66.4434291,7.62026968 C64.0734629,7.62026968 62.7234821,9.61020186 62.7234821,12.3613562 C62.7234821,15.1414086 64.0734629,17.1313407 66.4434291,17.1313407 C68.8133954,17.1313407 70.1333766,15.1414086 70.1333766,12.3613562 Z" id="Shape"></path>
                </g>
            </g>
        </g>
    </g>
</svg>