<?xml version="1.0" encoding="UTF-8"?>
<svg width="55px" height="55px" viewBox="0 0 55 55" version="1.1" xmlns="http://www.w3.org/2000/svg" xmlns:xlink="http://www.w3.org/1999/xlink">
    <!-- Generator: Sketch 53.1 (72631) - https://sketchapp.com -->
    <title>picto/recruteurs</title>
    <desc>Created with Sketch.</desc>
    <g id="picto/recruteurs" stroke="none" stroke-width="1" fill="none" fill-rule="evenodd">
        <g id="like" fill-rule="nonzero">
            <path d="M55,3.79306641 L55,37.9309863 C54.993877,40.0233496 53.2991895,41.7179297 51.2069336,41.7240527 L39.1163867,41.7240527 L27.5,55 L15.8836133,41.7241602 L3.79306641,41.7241602 C1.70081055,41.7180371 0.00612304688,40.0233496 0,37.9309863 L0,3.79306641 C0.00612304688,1.70081055 1.70081055,0.00612304688 3.79306641,0 L51.2069336,0 C53.2991895,0.00612304688 54.993877,1.70081055 55,3.79306641 Z" id="Shape" fill="#F35363"></path>
            <path d="M14.2241602,19.9137598 L16.1206934,19.9137598 C17.1681641,19.9137598 18.0172266,20.7628223 18.0172266,21.810293 L18.0172266,31.2930664 C18.0172266,32.3405371 17.1681641,33.1895996 16.1206934,33.1895996 L14.2241602,33.1895996 C13.1766895,33.1895996 12.327627,32.3404297 12.327627,31.2930664 L12.327627,21.810293 C12.327627,20.7629297 13.1766895,19.9137598 14.2241602,19.9137598 Z" id="Shape" fill="#FFFFFF"></path>
            <path d="M21.810293,20.9971094 L21.810293,31.8086914 C21.8113672,32.1022754 21.9481152,32.3787793 22.1805762,32.557959 C23.4422461,33.5546191 24.9961035,34.1095605 26.6036719,34.1379199 L35.6312988,34.1379199 C36.6088379,34.1425391 37.5212793,33.6489355 38.0525879,32.8284473 C40.3141406,29.3387402 41.8706836,25.4400781 42.6343457,21.3524609 C42.7715234,20.5202637 42.535625,19.6699121 41.9891699,19.0274219 C41.4427148,18.3849316 40.6412402,18.0155078 39.7978711,18.017334 L36.8599902,18.017334 C35.5856445,17.9854297 34.4466504,17.214248 33.943916,16.0429199 C33.4632031,14.5662988 34.4202246,13.221377 34.8474414,11.8574414 C35.3026953,10.4038086 36.2920508,5.66145508 33.5077832,5.68970703 C32.8109375,5.70313477 32.1905762,6.13454102 31.9356641,6.78326172 C30.7254492,9.81556641 27.0378711,16.6080664 22.6596777,19.4297168 C22.1281543,19.7733594 21.8080371,20.3640723 21.810293,20.9971094 Z" id="Shape" fill="#FFFFFF"></path>
        </g>
    </g>
</svg>