<?xml version="1.0" encoding="utf-8"?>
<!-- Generator: Adobe Illustrator 21.1.0, SVG Export Plug-In . SVG Version: 6.00 Build 0)  -->
<svg version="1.1" id="Calque_1" xmlns="http://www.w3.org/2000/svg" xmlns:xlink="http://www.w3.org/1999/xlink" x="0px" y="0px"
	 viewBox="0 0 24.2 22.8" style="enable-background:new 0 0 24.2 22.8;" xml:space="preserve">
<style type="text/css">
	.st0{fill:#0B2D3D;}
	.st1{fill:#44C8F5;}
</style>
<path class="st0" d="M22.8,11.4c0,6.3-5.1,11.4-11.4,11.4S0,17.7,0,11.4C0,5.1,5.1,0,11.4,0S22.8,5.1,22.8,11.4"/>
<path class="st1" d="M24.2,4.6c0,0.3-0.3,0.7-0.4,1c-0.2,0.6-0.2,1.2-0.3,1.7c-0.1,1.5-0.2,3.1-0.3,4.6c-0.1,1.2-0.2,2.5-0.2,3.7
	c0,0.6-0.1,1.5,0.1,2.1s0.4,0.4,0.7,0.9c0.5,0.9-0.6,2-1.5,1.8C21,20.1,20.9,18,20.9,17c-0.1-2.9,0.4-5.9,0.9-8.7
	c-1,1.4-1.9,2.8-2.8,4.2c-0.6,0.9-1.6,3.4-2.8,3.6c-1.4,0.3-2.2-2.2-2.6-3.1c-0.7-1.4-1.1-3-1.5-4.5c-0.4,1.8-0.7,3.6-1.1,5.4
	c-0.3,1.4,0,2.8-0.3,4.2c-0.2,0.8-0.8,1.6-1.7,1.2c-0.7-0.3-0.7-1-0.8-1.6c-0.1-1.4,0.4-2.9,0.8-4.2c0.4-1.6,0.8-3.2,1.1-4.7
	c0.2-1,0.2-3.1,1.3-3.5C13.2,4.7,13.7,6.9,14,8c0.4,1.8,1.1,3.7,2.1,5.3c0.9-0.8,1.3-2.2,2-3.1c0.8-1.1,1.6-2.3,2.4-3.5
	c0.6-0.8,1.1-1.6,1.7-2.5c0.4-0.5,0.5-0.9,1.2-0.6C23.8,3.7,24.1,4.4,24.2,4.6z"/>
</svg>
