<?xml version="1.0" encoding="UTF-8"?>
<svg width="613px" height="309px" viewBox="0 0 613 309" version="1.1" xmlns="http://www.w3.org/2000/svg" xmlns:xlink="http://www.w3.org/1999/xlink">
    <!-- Generator: Sketch 53.1 (72631) - https://sketchapp.com -->
    <title>Group 12</title>
    <desc>Created with Sketch.</desc>
    <g id="Home" stroke="none" stroke-width="1" fill="none" fill-rule="evenodd">
        <g id="Home-V2-Copy-3" transform="translate(-373.000000, -2884.000000)">
            <g id="Group-12" transform="translate(373.000000, 2884.000000)">
                <g id="Illu">
                    <g id="GettyImages-958205046">
                        <path d="M188.500325,234.301147 C183.97949,234.301147 180.301147,237.978839 180.301147,242.500325 C180.301147,247.021161 183.97949,250.698853 188.500325,250.698853 C193.021161,250.698853 196.698853,247.021161 196.698853,242.500325 C196.698853,237.978839 193.021161,234.301147 188.500325,234.301147 Z M188.500325,252 C183.261907,252 179,247.738093 179,242.500325 C179,237.261907 183.261907,233 188.500325,233 C193.738743,233 198,237.261907 198,242.500325 C198,247.738093 193.738743,252 188.500325,252 L188.500325,252 Z" id="Fill-16" fill="#40327A"></path>
                        <polygon id="Fill-17" fill="#C4B8FF" points="157 287 221 287 221 243 157 243"></polygon>
                        <polygon id="Fill-18" fill="#40327A" points="214 287 221 287 221 243 214 243"></polygon>
                        <polygon id="Fill-19" fill="#40327A" points="157 266 215 266 215 264 157 264"></polygon>
                        <polygon id="Fill-20" fill="#FFFFFF" points="181 270 191 270 191 264 181 264"></polygon>
                        <polygon id="Fill-27" fill="#FFFFFF" points="79 263 127 263 127 261 79 261"></polygon>
                        <polygon id="Fill-28" fill="#C4B8FF" points="0 289 613 289 613 287 0 287"></polygon>
                        <polyline id="Fill-29" fill="#DDD6FF" points="302 298 445 298 302 298"></polyline>
                        <polygon id="Fill-30" fill="#C4B8FF" points="302 300 445 300 445 298 302 298"></polygon>
                        <polyline id="Fill-31" fill="#DDD6FF" points="410 308 500 308 410 308"></polyline>
                        <polygon id="Fill-32" fill="#C4B8FF" points="410 309 500 309 500 307 410 307"></polygon>
                        <polyline id="Fill-33" fill="#DDD6FF" points="254 308 373 308 254 308"></polyline>
                        <polygon id="Fill-34" fill="#C4B8FF" points="254 309 373 309 373 307 254 307"></polygon>
                        <polyline id="Fill-35" fill="#DDD6FF" points="486 299 529 299 486 299"></polyline>
                        <polygon id="Fill-36" fill="#C4B8FF" points="486 300 529 300 529 298 486 298"></polygon>
                        <polyline id="Fill-37" fill="#DDD6FF" points="193 298 280 298 193 298"></polyline>
                        <polygon id="Fill-38" fill="#C4B8FF" points="193 300 280 300 280 298 193 298"></polygon>
                        <polyline id="Fill-66" fill="#40327A" points="218 23 221 18 218 23"></polyline>
                        <polyline id="Fill-69" fill="#F8F7FF" points="182 288 265 288 182 288"></polyline>
                        <polygon id="Fill-70" fill="#40327A" points="182 289 265 289 265 287 182 287"></polygon>
                        <polyline id="Fill-71" fill="#F8F7FF" points="104 288 135 288 104 288"></polyline>
                        <polygon id="Fill-72" fill="#40327A" points="104 289 135 289 135 287 104 287"></polygon>
                        <polyline id="Fill-85" fill="#DDD6FF" points="352 186 322.400972 288 319 288 343.2022 186 352 186"></polyline>
                        <polyline id="Fill-86" fill="#DDD6FF" points="382 186 411.599028 288 415 288 390.7978 186 382 186"></polyline>
                        <path d="M317,171.5 C317,198.838047 339.161284,221 366.5,221 C393.838047,221 416,198.838047 416,171.5 C416,144.161953 393.838047,122 366.5,122 C339.161284,122 317,144.161953 317,171.5" id="Fill-87" fill="#FFC359"></path>
                        <path d="M415.562641,187 L414,186.556949 C415.072207,183.779415 415.870397,180.90029 416.371528,178 L418,178.207416 C417.484057,181.187427 416.663649,184.145567 415.562641,187" id="Fill-88" fill="#FF809F"></path>
                        <path d="M366.874774,222 C358.820853,222 351.123795,220.132005 344,216.449133 L344.610227,215.236265 C351.54383,218.820391 359.035239,220.637991 366.874774,220.637991 C386.295179,220.637991 403.917834,209.004394 411.770137,191 L413,191.550933 C404.932639,210.047692 386.826775,222 366.874774,222" id="Fill-89" fill="#FF809F"></path>
                        <path d="M344,168 C344,176.836437 351.163563,184 360,184 C368.836437,184 376,176.836437 376,168 C376,159.163563 368.836437,152 360,152 C351.163563,152 344,159.163563 344,168" id="Fill-90" fill="#AB9AF7"></path>
                        <path d="M271.216962,152.7112 C270.548668,150.897973 271.475882,148.885998 273.289023,148.216972 C275.102164,147.548647 277.114044,148.475905 277.783038,150.289132 C278.451332,152.101659 277.524118,154.113634 275.710977,154.78266 C273.897836,155.451685 271.885956,154.524427 271.216962,152.7112" id="Fill-91" fill="#FF95A9"></path>
                        <path d="M343,118 C343,122.970077 347.029923,127 352,127 C356.970769,127 361,122.970077 361,118 C361,113.029231 356.970769,109 352,109 C347.029923,109 343,113.029231 343,118" id="Fill-92" fill="#AB9AF7"></path>
                        <path d="M267.63038,148.193985 L267.631056,148.198887 C267.121352,148.210792 266.604879,148.304633 266.099237,148.497218 C263.644128,149.434228 262.388482,152.252961 263.294172,154.792972 C264.199861,157.332983 266.924375,158.632752 269.379484,157.695742 L277,154.786669 L275.750447,148 L267.63038,148.193985" id="Fill-93" fill="#FF95A9"></path>
                        <path d="M311.37248,134.075968 C312.518654,137.184291 315.967972,138.774329 319.076295,137.62752 C322.183983,136.481346 323.774022,133.032028 322.627847,129.923705 C321.481038,126.816017 318.03172,125.225978 314.924032,126.372153 C311.815709,127.518962 310.225671,130.96828 311.37248,134.075968" id="Fill-94" fill="#FF95A9"></path>
                        <polyline id="Fill-95" fill="#FF95A9" points="347.866199 110 315 127.301927 320.18367 139 355 126.099112 347.866199 110"></polyline>
                        <polyline id="Fill-96" fill="#FF95A9" points="313.861848 127 273 148.00212 275.719251 154 319 138.331961 313.861848 127"></polyline>
                        <path d="M340,281.5 C340,283.984692 337.985385,286 335.5,286 C333.014615,286 331,283.984692 331,281.5 C331,279.014615 333.014615,277 335.5,277 C337.985385,277 340,279.014615 340,281.5" id="Fill-97" fill="#40327A"></path>
                        <path d="M345.033282,167 L376.313417,167 L377.999108,168.315244 C383.678394,172.746679 387,179.564062 387,186.78676 L387,193.542671 C387,198.765819 382.783754,203 377.58273,203 L350.41727,203 C345.216246,203 341,198.765143 341,193.541995 L341.000673,184.2907 C341.000673,178.292051 342.380975,172.374465 345.033282,167" id="Fill-98" fill="#40327A"></path>
                        <path d="M389.050939,152.775466 C388.622899,149.489422 390.939649,146.479015 394.224887,146.050953 C397.510124,145.622891 400.52101,147.939126 400.94905,151.224534 C401.37709,154.510578 399.060975,157.520985 395.775102,157.949047 C392.489865,158.377109 389.479614,156.060874 389.050939,152.775466" id="Fill-99" fill="#FF95A9"></path>
                        <polyline id="Fill-100" fill="#FF95A9" points="390.989669 116 401 151.670682 389.381334 156 375 121.958988 390.989669 116"></polyline>
                        <path d="M343.009627,118.138551 L345.29036,167 L376.808534,167 L389.833452,115.686777 C390.694912,112.292324 388.105788,109 384.575227,109 L351.811292,109 C346.784867,109 342.777148,113.161095 343.009627,118.138551" id="Fill-101" fill="#DDD6FF"></path>
                        <path d="M360.441431,114.88581 C362.161347,119.547924 359.776305,124.721515 355.11419,126.441431 C350.452076,128.161347 345.278485,125.776305 343.558569,121.11419 C341.838653,116.452076 344.223695,111.278485 348.88581,109.558569 C353.547924,107.838653 358.721515,110.223695 360.441431,114.88581" id="Fill-102" fill="#DDD6FF"></path>
                        <path d="M364,125.246085 L353.486204,140.357252 L353.366781,140.268673 C351.39565,143.191103 347.793938,144.672603 344.268342,143.704996 C339.760461,142.467595 337.087228,137.703264 338.286705,133.064024 C338.568858,131.973354 339.039987,130.990195 339.654161,130.136861 L339.613479,130.111843 L350.126619,115 L364,125.246085" id="Fill-103" fill="#DDD6FF"></path>
                        <path d="M386.599223,126.246876 C382.044316,128.233982 376.741216,126.153439 374.753418,121.599223 C372.765621,117.044316 374.846856,111.741216 379.401071,109.753418 C383.955287,107.765621 389.259079,109.846856 391.246876,114.401071 C393.233982,118.955287 391.153439,124.259079 386.599223,126.246876" id="Fill-104" fill="#DDD6FF"></path>
                        <polyline id="Fill-105" fill="#DDD6FF" points="375 121.927788 384.578983 144 398 139.131635 391.335341 116 375 121.927788"></polyline>
                        <polyline id="Fill-106" fill="#DDD6FF" points="354 126.421209 331.745851 135 326 121.50974 347.00779 110 354 126.421209"></polyline>
                        <path d="M350,202 C345.029429,202 341,197.970571 341,193 C341,188.029429 345.029429,184 350,184 C354.970571,184 359,188.029429 359,193 C359,197.970571 354.970571,202 350,202" id="Fill-107" fill="#40327A"></path>
                        <path d="M386,193 C386,197.970571 381.970571,202 377,202 C372.029429,202 368,197.970571 368,193 C368,188.029429 372.029429,184 377,184 C381.970571,184 386,188.029429 386,193" id="Fill-108" fill="#40327A"></path>
                        <path d="M331.333746,281 L340,281 L340,287 L327.857912,287 C326.83196,287 326,286.168 326,285.141333 C326,284.476667 326.355316,283.862 326.931956,283.530667 L331.333746,281" id="Fill-109" fill="#7760DB"></path>
                        <path d="M327,195.5 C327,199.64191 323.64191,203 319.5,203 C315.357427,203 312,199.64191 312,195.5 C312,191.357427 315.357427,188 319.5,188 C323.64191,188 327,191.357427 327,195.5" id="Fill-110" fill="#40327A"></path>
                        <polyline id="Fill-111" fill="#40327A" points="312 197.351753 331.507639 283 340 281.647556 326.776511 195 312 197.351753"></polyline>
                        <path d="M362,281.5 C362,283.984692 359.985385,286 357.5,286 C355.015308,286 353,283.984692 353,281.5 C353,279.014615 355.015308,277 357.5,277 C359.985385,277 362,279.014615 362,281.5" id="Fill-112" fill="#40327A"></path>
                        <path d="M353.334,281 L362,281 L362,287 L349.858,287 C348.832,287 348,286.168 348,285.141333 C348,284.476667 348.355333,283.862 348.932,283.530667 L353.334,281" id="Fill-113" fill="#7760DB"></path>
                        <path d="M349,195.5 C349,199.64191 345.64191,203 341.5,203 C337.35809,203 334,199.64191 334,195.5 C334,191.357427 337.35809,188 341.5,188 C345.64191,188 349,191.357427 349,195.5" id="Fill-114" fill="#40327A"></path>
                        <polyline id="Fill-115" fill="#40327A" points="334 197.351753 353.507839 283 362 281.647556 348.776162 195 334 197.351753"></polyline>
                        <polygon id="Fill-116" fill="#FF95A9" points="355 109 370 109 370 91 355 91"></polygon>
                        <path d="M370,109.5 C370,113.642045 366.642727,117 362.5,117 C358.357955,117 355,113.642045 355,109.5 C355,105.357955 358.357955,102 362.5,102 C366.642727,102 370,105.357955 370,109.5" id="Fill-117" fill="#FF95A9"></path>
                        <path d="M366,89.4996648 C366,95.2988476 370.701152,100 376.500335,100 C382.298848,100 387,95.2988476 387,89.4996648 C387,83.7011524 382.298848,79 376.500335,79 C370.701152,79 366,83.7011524 366,89.4996648" id="Fill-118" fill="#40327A"></path>
                        <path d="M336.00068,74.5 C336.00068,61.5187238 346.519252,51 359.50034,51 C372.481428,51 383,61.5187238 383,74.5 C383,87.4812762 372.481428,98 359.50034,98 L347.520308,86.0204746 C341.157616,86.0204746 336,80.862784 336,74.5 L336.00068,74.5" id="Fill-119" fill="#40327A"></path>
                        <path d="M370.5,87 L367,87 L367,80 L370.5,80 C372.4334,80 374,81.5666 374,83.5 C374,85.4327 372.4334,87 370.5,87" id="Fill-120" fill="#FF95A9"></path>
                        <path d="M345.293544,67 L370,67 L370,100 L354.655437,100 C348.512352,100 343.641407,94.638886 344.020747,88.2947991 L345.293544,67" id="Fill-121" fill="#FF95A9"></path>
                        <path d="M370.318182,79 L371,79 L371,60 L350.704318,60 C345.345227,60 341,64.1920374 341,69.3621949 L341,69.7351567 L341.6825,69.7351567 C347.488182,69.7351567 353.135,71.5618141 357.766591,74.938861 C361.381591,77.5739311 365.788182,79 370.318182,79" id="Fill-122" fill="#40327A"></path>
                        <polygon id="Fill-123" fill="#40327A" points="324 158 357 158 357 154 324 154"></polygon>
                        <polyline id="Fill-124" fill="#C4B8FF" points="327 159 262.154754 159 262.147999 158.926131 260 113 324.845246 113 327 159"></polyline>
                        <path d="M288.005511,136 C288.133941,138.761429 290.474929,141 293.233313,141 C295.991698,141 298.122917,138.761429 297.994487,136 C297.866058,133.238571 295.525783,131 292.767399,131 C290.009014,131 287.877081,133.238571 288.005511,136" id="Fill-125" fill="#FFFFFF"></path>
                        <polyline id="Fill-126" fill="#DDD6FF" points="327 159 262 159 262.463806 158.926471 326.529473 149 327 159"></polyline>
                        <polyline id="Fill-127" fill="#40327A" points="348.884098 184 318 187.458214 318.901513 202 350 202 348.884098 184"></polyline>
                        <path d="M346.194301,154.35282 C345.560972,156.177948 346.526712,158.171732 348.352521,158.805768 C350.178331,159.439105 352.172095,158.472655 352.805425,156.647526 C353.439454,154.821698 352.473014,152.827914 350.647205,152.194577 C348.821395,151.560541 346.827631,152.526992 346.194301,154.35282" id="Fill-128" fill="#FF95A9"></path>
                        <path d="M340.193657,158.691083 C340.703883,158.87686 341.222929,158.960852 341.734512,158.962987 L341.733834,158.967969 L349.87506,159 L351,152.077846 L343.307936,149.276954 C340.830083,148.374405 338.124256,149.750294 337.263928,152.350461 C336.4036,154.949917 337.715804,157.788534 340.193657,158.691083" id="Fill-129" fill="#FF95A9"></path>
                        <polyline id="Fill-130" fill="#FF95A9" points="396 157.977719 349.435166 158 349 151.660053 395.178395 146 396 157.977719"></polyline>
                        <polyline id="Fill-131" fill="#FFFFFF" points="384.753759 144 378 128.542925 379.246241 128 386 143.457075 384.753759 144"></polyline>
                        <path d="M344.392554,144.689048 C339.089334,143.361597 335.923919,138.22987 337.336436,133.24856 C337.5928,132.346055 337.984168,131.496838 338.505514,130.714398 L338.488997,130.705629 L338.899036,130.083724 L345.832358,121 L347,121.786487 L340.521958,130.273264 L340.532729,130.279334 L340.104738,130.903937 C339.466341,131.711335 339.001725,132.617211 338.724536,133.595936 C337.515962,137.858211 340.223943,142.249993 344.762379,143.385206 C345.383541,143.540345 346.021938,143.63073 346.660335,143.65164 L346.608632,145 C345.863955,144.975043 345.117842,144.870493 344.392554,144.689048" id="Fill-132" fill="#FFFFFF"></path>
                        <path d="M354,89 C354.003804,91.2047143 352.439626,92.9963623 350.506357,92.999992 C348.573724,93.0043478 347.003182,91.2199593 347,89.015245 L354,89" id="Fill-133" fill="#FFFFFF"></path>
                        <polygon id="Fill-134" fill="#40327A" points="336 289 387 289 387 287 336 287"></polygon>
                        <polygon id="Fill-135" fill="#40327A" points="394 289 404 289 404 287 394 287"></polygon>
                        <polyline id="Fill-136" fill="#40327A" points="325.459522 159 323 113.062368 324.540478 113 327 158.937632 325.459522 159"></polyline>
                        <polyline id="Fill-137" fill="#DDD6FF" points="183 159 182.272769 165.687181 168.496941 287 165 287 175.339836 159 183 159"></polyline>
                        <polyline id="Fill-138" fill="#DDD6FF" points="496 159 496.727203 165.687181 510.502501 287 514 287 503.659869 159 496 159"></polyline>
                        <polygon id="Fill-139" fill="#7760DB" points="168 166 509 166 509 159 168 159"></polygon>
                        <polyline id="Fill-140" fill="#F8F7FF" points="168 166 258 166 168 166"></polyline>
                        <polygon id="Fill-141" fill="#40327A" points="168 167 258 167 258 165 168 165"></polygon>
                        <polyline id="Fill-142" fill="#F8F7FF" points="301 166 450 166 301 166"></polyline>
                        <polygon id="Fill-143" fill="#40327A" points="301 167 450 167 450 165 301 165"></polygon>
                        <polyline id="Fill-144" fill="#F8F7FF" points="470 166 509 166 470 166"></polyline>
                        <polygon id="Fill-145" fill="#40327A" points="470 167 509 167 509 165 470 165"></polygon>
                        <polyline id="Fill-146" fill="#F8F7FF" points="458 166 464 166 458 166"></polyline>
                        <polygon id="Fill-147" fill="#40327A" points="458 167 464 167 464 165 458 165"></polygon>
                        <path d="M485,228 C485,235.179919 479.179768,241 471.999663,241 C464.820232,241 459,235.179919 459,228 C459,220.820755 464.820232,215 471.999663,215 C479.179768,215 485,220.820755 485,228" id="Fill-159" fill="#FFFFFF"></path>
                        <path d="M471.500333,215.330606 C464.790085,215.330606 459.330606,220.789419 459.330606,227.499667 C459.330606,234.209915 464.790085,239.669394 471.500333,239.669394 C478.210581,239.669394 483.669394,234.209915 483.669394,227.499667 C483.669394,220.789419 478.210581,215.330606 471.500333,215.330606 Z M471.500333,241 C464.05559,241 458,234.943745 458,227.499667 C458,220.05559 464.05559,214 471.500333,214 C478.943745,214 485,220.05559 485,227.499667 C485,234.943745 478.943745,241 471.500333,241 L471.500333,241 Z" id="Fill-160" fill="#40327A"></path>
                        <path d="M464,232.000324 C464,236.970759 459.970759,241 454.999676,241 C450.029241,241 446,236.970759 446,232.000324 C446,227.029241 450.029241,223 454.999676,223 C459.970759,223 464,227.029241 464,232.000324" id="Fill-161" fill="#FFFFFF"></path>
                        <path d="M456.000672,223.34368 C451.227089,223.34368 447.343725,227.226914 447.343725,232.000336 C447.343725,236.773086 451.227089,240.65632 456.000672,240.65632 C460.773582,240.65632 464.656275,236.773086 464.656275,232.000336 C464.656275,227.226914 460.773582,223.34368 456.000672,223.34368 Z M456.000672,242 C450.486697,242 446,237.514125 446,232.000336 C446,226.485875 450.486697,222 456.000672,222 C461.514647,222 466,226.485875 466,232.000336 C466,237.514125 461.514647,242 456.000672,242 L456.000672,242 Z" id="Fill-162" fill="#40327A"></path>
                        <polyline id="Fill-163" fill="#A796F2" points="489 229 488.117453 235.759954 487.949028 237.102546 482.626795 277.991204 482.337104 280.233333 481.454557 287 443.545443 287 437.050972 237.102546 436.882547 235.759954 436 229 489 229"></polyline>
                        <polyline id="Fill-164" fill="#C4B8FF" points="485 255 482.088117 277.833725 481.799612 280.115048 480.92068 287 443.166841 287 440 262.137673 485 255"></polyline>
                        <polyline id="Fill-165" fill="#FFFFFF" points="448 279.87987 446.742099 280 443.050569 237.727456 443 237.12013 444.264223 237 447.949431 279.272544 448 279.87987"></polyline>
                        <polyline id="Fill-166" fill="#FFFFFF" points="453.557282 280 451 237.073493 452.442718 237 455 279.926507 453.557282 280"></polyline>
                        <polyline id="Fill-167" fill="#FFFFFF" points="458.736177 280 458 237.024748 459.263823 237 460 279.975252 458.736177 280"></polyline>
                        <polyline id="Fill-168" fill="#FFFFFF" points="466.246494 280 465 279.975252 465.753506 237 467 237.024748 466.246494 280"></polyline>
                        <polyline id="Fill-169" fill="#FFFFFF" points="472.431081 280 471 279.925173 473.568919 237 475 237.074827 472.431081 280"></polyline>
                        <polyline id="Fill-170" fill="#FFFFFF" points="481 237.12013 480.949686 237.727456 477.314465 279.272544 477.251572 280 476 279.87987 476.050314 279.272544 479.685535 237.727456 479.748428 237 481 237.12013"></polyline>
                        <path d="M482.413807,279.641509 L442.579487,279.641509 L442.753846,281 L482.246154,281 L482.534517,278.731321 L482.534517,278.697358 L482.413807,279.641509 Z M437,236 L437.167653,237.358491 L487.832347,237.358491 L488,236 L437,236 L437,236 Z" id="Fill-171" fill="#FFFFFF"></path>
                        <polyline id="Fill-172" fill="#F8F7FF" points="436 229 455 229 436 229"></polyline>
                        <polygon id="Fill-173" fill="#40327A" points="436 230 455 230 455 228 436 228"></polygon>
                        <polyline id="Fill-174" fill="#F8F7FF" points="459 288 497 288 459 288"></polyline>
                        <polygon id="Fill-175" fill="#40327A" points="459 289 497 289 497 287 459 287"></polygon>
                        <polyline id="Fill-176" fill="#F8F7FF" points="439 288 450 288 439 288"></polyline>
                        <polygon id="Fill-177" fill="#40327A" points="439 289 450 289 450 287 439 287"></polygon>
                        <path d="M476.86228,3 L476,1.9124424 C477.955624,0.764976959 479,0.00789993417 479.010712,0 L480,1.00460829 C479.955624,1.03686636 478.892119,1.80974325 476.86228,3" id="Fill-182" fill="#DDD6FF"></path>
                        <polyline id="Fill-201" fill="#F8F7FF" points="172 249 169 275 172 249"></polyline>
                        <polyline id="Fill-202" fill="#FFFFFF" points="169.264631 275 168 274.856929 170.735369 249 172 249.14373 169.264631 275"></polyline>
                        <polyline id="Fill-203" fill="#F8F7FF" points="175 232 173 248 175 232"></polyline>
                        <polyline id="Fill-204" fill="#FFFFFF" points="173.317138 247 172 246.851497 173.682862 231 175 231.149187 173.317138 247"></polyline>
                        <polyline id="Fill-205" fill="#FFFFFF" points="413 277 414 281 413 277"></polyline>
                        <polyline id="Fill-206" fill="#C4B8FF" points="412.747182 281 412 277.345679 413.253462 277 414 280.654321 412.747182 281"></polyline>
                        <polyline id="Fill-207" fill="#FFFFFF" points="402 230 413 273 402 230"></polyline>
                        <polyline id="Fill-208" fill="#C4B8FF" points="411.758919 274 402 230.313182 403.241081 230 413 273.686818 411.758919 274"></polyline>
                        <polyline id="Fill-209" fill="#FFFFFF" points="504 169 508 223 504 169"></polyline>
                        <polyline id="Fill-210" fill="#C4B8FF" points="507.794729 224 504 169.105719 505.205271 169 509 223.894281 507.794729 224"></polyline>
                        <polyline id="Fill-211" fill="#FFFFFF" points="509 228 509.532 232 509 228"></polyline>
                        <polyline id="Fill-212" fill="#C4B8FF" points="508.421219 232 508 228.089334 509.578781 228 510 231.910666 508.421219 232"></polyline>
                    </g>
                </g>
                <path d="M504,82.9985186 C504,110.61324 481.61397,133 454.000148,133 C447.15617,133 440.634244,131.625234 434.691538,129.133767 C416.664322,121.581443 404,103.769039 404,82.9985186 C404,80.7867454 404.144879,78.6075636 404.42486,76.473121 C407.61842,51.9421413 428.597435,33 453.999852,33 C481.61397,33 504,55.3835004 504,82.9985186 Z" id="Path" fill="#5371F8"></path>
                <g id="Group" transform="translate(462.000000, 60.000000)" fill="#FFFFFF">
                    <path d="M12.9998036,31 C10.5902776,31 8.63683716,29.0436181 8.63683716,26.6304639 C8.63683716,22.4448507 11.0481815,18.6307255 14.7799012,16.9138076 C16.4005961,16.1681002 17.3758011,14.5294862 17.264886,12.7388171 C17.1342727,10.6322011 15.3841768,8.87946987 13.2807281,8.74865997 C12.0806623,8.67248066 10.9421151,9.08251354 10.0738856,9.89984776 C9.20444403,10.7180925 8.72593295,11.8264863 8.72593295,13.0201646 C8.72593295,15.4333188 6.77249252,17.3897007 4.36296647,17.3897007 C1.95344043,17.3897007 0,15.4333188 0,13.0201646 C0,9.44155787 1.49371826,5.98344195 4.09810347,3.53174278 C6.7394604,1.04574774 10.1899526,-0.200436558 13.8213638,0.0262803622 C20.3444487,0.431760691 25.5692806,5.66415655 25.9741513,12.1973673 C26.3102304,17.6212737 23.3461284,22.5896217 18.4228282,24.8546664 C17.7788535,25.1508856 17.3627701,25.847729 17.3627701,26.6301604 C17.3627701,29.0436181 15.4093297,31 12.9998036,31 Z" id="Path"></path>
                    <path d="M12.5,46 C10.0147947,46 8,44.0489002 8,41.6422614 L8,41.3577386 C8,38.9510998 10.0147947,37 12.5,37 C14.9852053,37 17,38.9510998 17,41.3577386 L17,41.6422614 C17,44.0489002 14.9852053,46 12.5,46 Z" id="Path"></path>
                </g>
                <path d="M426.555759,68 L421.444241,68 C420.094309,68 419,67.1045819 419,66 C419,64.8951592 420.094309,64 421.444241,64 L426.555759,64 C427.905691,64 429,64.8954181 429,66 C429,67.1045819 427.905691,68 426.555759,68 Z" id="Path" fill="#FFFFFF"></path>
                <path d="M453.790537,79 L422.209463,79 C420.989196,79 420,78.1045819 420,77 C420,75.8954181 420.989196,75 422.209463,75 L453.790537,75 C455.01109,75 456,75.8954181 456,77 C456,78.1045819 455.01109,79 453.790537,79 Z" id="Path" fill="#FFFFFF"></path>
                <path d="M453.790537,86 L422.209463,86 C420.989196,86 420,85.1045819 420,84 C420,82.8954181 420.989196,82 422.209463,82 L453.790537,82 C455.01109,82 456,82.8954181 456,84 C456,85.1045819 455.01109,86 453.790537,86 Z" id="Path" fill="#FFFFFF"></path>
                <path d="M453.790537,94 L422.209463,94 C420.989196,94 420,93.1045819 420,92 C420,90.8954181 420.989196,90 422.209463,90 L453.790537,90 C455.01109,90 456,90.8954181 456,92 C456,93.1045819 455.01109,94 453.790537,94 Z" id="Path" fill="#FFFFFF"></path>
                <path d="M454.680358,101 L425.319342,101 C424.03839,101 423,100.104582 423,99 C423,97.8954181 424.03839,97 425.319342,97 L454.680658,97 C455.96191,97 457,97.8954181 457,99 C457,100.104582 455.96161,101 454.680358,101 Z" id="Path" fill="#FFFFFF"></path>
                <path d="M453.703415,68 L434.296585,68 C433.027905,68 432,67.1045819 432,66 C432,64.8951592 433.028202,64 434.296585,64 L453.703415,64 C454.972095,64 456,64.8954181 456,66 C456.000297,67.1045819 454.972095,68 453.703415,68 Z" id="Path" fill="#FFFFFF"></path>
            </g>
        </g>
    </g>
</svg>