<?xml version="1.0" encoding="utf-8"?>
<!-- Generator: Adobe Illustrator 21.1.0, SVG Export Plug-In . SVG Version: 6.00 Build 0)  -->
<svg version="1.1" id="Calque_1" xmlns="http://www.w3.org/2000/svg" xmlns:xlink="http://www.w3.org/1999/xlink" x="0px" y="0px"
	 viewBox="0 0 37 37" style="enable-background:new 0 0 37 37;" xml:space="preserve">
<style type="text/css">
	.st0{fill:#0C2A3B;}
	.st1{fill:#0B2D3D;}
	.st2{fill:#44C8F5;}
</style>
<path class="st0" d="M18.5,37C8.3,37,0,28.7,0,18.5S8.3,0,18.5,0S37,8.3,37,18.5S28.7,37,18.5,37z M18.5,1C8.9,1,1,8.9,1,18.5
	S8.9,36,18.5,36S36,28.1,36,18.5S28.1,1,18.5,1z"/>
<path class="st1" d="M29.2,18.2c0,6.3-5.1,11.4-11.4,11.4S6.4,24.5,6.4,18.2c0-6.3,5.1-11.4,11.4-11.4S29.2,11.9,29.2,18.2"/>
<path class="st2" d="M30.6,11.4c0,0.3-0.3,0.7-0.4,1C30,13,30,13.6,29.9,14.1c-0.1,1.5-0.2,3.1-0.3,4.6c-0.1,1.2-0.2,2.5-0.2,3.7
	c0,0.6-0.1,1.5,0.1,2.1s0.4,0.4,0.7,0.9c0.5,0.9-0.6,2-1.5,1.8c-1.3-0.3-1.4-2.4-1.4-3.4c-0.1-2.9,0.4-5.9,0.9-8.7
	c-1,1.4-1.9,2.8-2.8,4.2c-0.6,0.9-1.6,3.4-2.8,3.6c-1.4,0.3-2.2-2.2-2.6-3.1c-0.7-1.4-1.1-3-1.5-4.5c-0.4,1.8-0.7,3.6-1.1,5.4
	c-0.3,1.4,0,2.8-0.3,4.2c-0.2,0.8-0.8,1.6-1.7,1.2c-0.7-0.3-0.7-1-0.8-1.6c-0.1-1.4,0.4-2.9,0.8-4.2c0.4-1.6,0.8-3.2,1.1-4.7
	c0.2-1,0.2-3.1,1.3-3.5c1.8-0.6,2.3,1.6,2.6,2.7c0.4,1.8,1.1,3.7,2.1,5.3c0.9-0.8,1.3-2.2,2-3.1c0.8-1.1,1.6-2.3,2.4-3.5
	c0.6-0.8,1.1-1.6,1.7-2.5c0.4-0.5,0.5-0.9,1.2-0.6C30.2,10.5,30.5,11.2,30.6,11.4z"/>
</svg>
