<?xml version="1.0" encoding="utf-8"?>
<!-- Generator: Adobe Illustrator 21.1.0, SVG Export Plug-In . SVG Version: 6.00 Build 0)  -->
<svg version="1.1" id="Calque_1" xmlns="http://www.w3.org/2000/svg" xmlns:xlink="http://www.w3.org/1999/xlink" x="0px" y="0px"
	 viewBox="0 0 37 37" style="enable-background:new 0 0 37 37;" xml:space="preserve">
<style type="text/css">
	.st0{fill:#A2A2A3;}
	.st1{fill:#FFFFFF;}
</style>
<path class="st0" d="M18.5,37C8.3,37,0,28.7,0,18.5S8.3,0,18.5,0S37,8.3,37,18.5S28.7,37,18.5,37z M18.5,1C8.9,1,1,8.9,1,18.5
	S8.9,36,18.5,36S36,28.1,36,18.5S28.1,1,18.5,1z"/>
<path class="st0" d="M30.1,22.5c0-1.2,0.1-2.5,0.2-3.7l0.2-2.3l0.1-2.3c0-0.2,0.1-0.4,0.1-0.6c0-0.3,0.1-0.7,0.2-1
	c0-0.1,0.1-0.2,0.1-0.3c0.1-0.3,0.3-0.6,0.3-0.9v-0.1l-0.1-0.1l0-0.1c-0.2-0.3-0.5-1-1.1-1.2c-0.2-0.1-0.4-0.1-0.6-0.1
	c-0.5,0-0.8,0.4-1,0.7c-0.1,0.1-0.1,0.1-0.2,0.2c-0.2,0.3-0.3,0.5-0.5,0.7c-0.1,0.2-0.3,0.4-0.4,0.6C25.5,9,22,6.9,18,6.9
	C11.7,6.9,6.6,12,6.6,18.3S11.7,29.7,18,29.7c3.7,0,7-1.8,9.1-4.5c0.2,1.5,0.8,2.4,1.7,2.6c0.1,0,0.2,0,0.3,0c0.6,0,1.3-0.4,1.7-1
	c0.3-0.5,0.3-1.1,0.1-1.6c-0.2-0.3-0.4-0.4-0.5-0.5c-0.1-0.1-0.1-0.1-0.2-0.3c-0.1-0.4-0.1-1-0.1-1.5C30.1,22.8,30.1,22.6,30.1,22.5
	z M29.7,24.6c0.2,0.6,0.4,0.4,0.7,0.9c0.5,0.8-0.4,1.8-1.3,1.8c-0.1,0-0.1,0-0.2,0c-1.1-0.2-1.3-1.7-1.4-2.7
	c1.2-1.8,1.9-3.9,1.9-6.3c0-2.1-0.6-4.1-1.6-5.7c0.3-0.5,0.6-0.9,1-1.5c0.3-0.4,0.4-0.7,0.8-0.7c0.1,0,0.2,0,0.4,0.1
	c0.4,0.1,0.7,0.8,0.8,1c0,0.3-0.3,0.7-0.4,1c-0.2,0.6-0.2,1.2-0.3,1.7c-0.1,1.5-0.2,3.1-0.3,4.6c-0.1,1.2-0.2,2.5-0.2,3.7
	C29.6,23.1,29.5,24,29.7,24.6z"/>
<path class="st1" d="M30.8,11.5c0,0.3-0.3,0.7-0.4,1c-0.2,0.6-0.2,1.2-0.3,1.7c-0.1,1.5-0.2,3.1-0.3,4.6c-0.1,1.2-0.2,2.5-0.2,3.7
	c0,0.6-0.1,1.5,0.1,2.1s0.4,0.4,0.7,0.9c0.5,0.9-0.6,2-1.5,1.8c-1.3-0.3-1.4-2.4-1.4-3.4c-0.1-2.9,0.4-5.9,0.9-8.7
	c-1,1.4-1.9,2.8-2.8,4.2C25,20.3,24,22.8,22.8,23c-1.4,0.3-2.2-2.2-2.6-3.1c-0.7-1.4-1.1-3-1.5-4.5c-0.4,1.8-0.7,3.6-1.1,5.4
	c-0.3,1.4,0,2.8-0.3,4.2c-0.2,0.8-0.8,1.6-1.7,1.2c-0.7-0.3-0.7-1-0.8-1.6c-0.1-1.4,0.4-2.9,0.8-4.2c0.4-1.6,0.8-3.2,1.1-4.7
	c0.2-1,0.2-3.1,1.3-3.5c1.8-0.6,2.3,1.6,2.6,2.7c0.4,1.8,1.1,3.7,2.1,5.3c0.9-0.8,1.3-2.2,2-3.1c0.8-1.1,1.6-2.3,2.4-3.5
	c0.6-0.8,1.1-1.6,1.7-2.5c0.4-0.5,0.5-0.9,1.2-0.6C30.4,10.6,30.7,11.3,30.8,11.5z"/>
</svg>
