<?xml version="1.0" encoding="utf-8"?>
<!-- Generator: Adobe Illustrator 21.1.0, SVG Export Plug-In . SVG Version: 6.00 Build 0)  -->
<svg version="1.1" id="Calque_1" xmlns="http://www.w3.org/2000/svg" xmlns:xlink="http://www.w3.org/1999/xlink" x="0px" y="0px"
	 viewBox="0 0 24.8 22.9" style="enable-background:new 0 0 24.8 22.9;" xml:space="preserve">
<style type="text/css">
	.st0{fill:#A2A2A3;}
	.st1{fill:#FFFFFF;}
</style>
<path class="st0" d="M23.6,15.7c0-1.2,0.1-2.5,0.2-3.7L24,9.7l0.1-2.3c0-0.2,0.1-0.4,0.1-0.6c0-0.3,0.1-0.7,0.2-1
	c0-0.1,0.1-0.2,0.1-0.3c0.1-0.3,0.3-0.6,0.3-0.9V4.5l-0.1-0.1V4.3c-0.2-0.3-0.5-1-1.1-1.2C23.4,3,23.2,3,23,3c-0.5,0-0.8,0.4-1,0.7
	c-0.1,0.1-0.1,0.1-0.2,0.2c-0.2,0.3-0.3,0.5-0.5,0.7C21.2,4.8,21,5,20.9,5.2c-2-3.1-5.5-5.2-9.5-5.2C5.1,0,0,5.1,0,11.4
	s5.2,11.5,11.5,11.5c3.7,0,7-1.8,9.1-4.5c0.2,1.5,0.8,2.4,1.7,2.6c0.1,0,0.2,0,0.3,0c0.6,0,1.3-0.4,1.7-1c0.3-0.5,0.3-1.1,0.1-1.6
	c-0.2-0.3-0.4-0.4-0.5-0.5c-0.1-0.1-0.1-0.1-0.2-0.3c-0.1-0.4-0.1-1-0.1-1.5C23.6,16,23.6,15.8,23.6,15.7z M23.2,17.8
	c0.2,0.6,0.4,0.4,0.7,0.9c0.5,0.8-0.4,1.8-1.3,1.8c-0.1,0-0.1,0-0.2,0c-1.1-0.2-1.3-1.7-1.4-2.7c1.2-1.8,1.9-3.9,1.9-6.3
	c0-2.1-0.6-4.1-1.6-5.7c0.3-0.5,0.6-0.9,1-1.5c0.3-0.4,0.4-0.7,0.8-0.7c0.1,0,0.2,0,0.4,0.1c0.4,0.1,0.7,0.8,0.8,1
	c0,0.3-0.3,0.7-0.4,1c-0.2,0.6-0.2,1.2-0.3,1.7c-0.1,1.5-0.2,3.1-0.3,4.6c-0.1,1.2-0.2,2.5-0.2,3.7C23.1,16.3,23,17.2,23.2,17.8z"/>
<path class="st1" d="M24.3,4.7c0,0.3-0.3,0.7-0.4,1c-0.2,0.6-0.2,1.2-0.3,1.7c-0.1,1.5-0.2,3.1-0.3,4.6c-0.1,1.2-0.2,2.5-0.2,3.7
	c0,0.6-0.1,1.5,0.1,2.1c0.2,0.6,0.4,0.4,0.7,0.9c0.5,0.9-0.6,2-1.5,1.8c-1.3-0.3-1.4-2.4-1.4-3.4c-0.1-2.9,0.4-5.9,0.9-8.7
	c-1,1.4-1.9,2.8-2.8,4.2c-0.6,0.9-1.6,3.4-2.8,3.6c-1.4,0.3-2.2-2.2-2.6-3.1c-0.7-1.4-1.1-3-1.5-4.5c-0.4,1.8-0.7,3.6-1.1,5.4
	c-0.3,1.4,0,2.8-0.3,4.2c-0.2,0.8-0.8,1.6-1.7,1.2c-0.7-0.3-0.7-1-0.8-1.6c-0.1-1.4,0.4-2.9,0.8-4.2c0.4-1.6,0.8-3.2,1.1-4.7
	c0.2-1,0.2-3.1,1.3-3.5c1.8-0.6,2.3,1.6,2.6,2.7c0.4,1.8,1.1,3.7,2.1,5.3c0.9-0.8,1.3-2.2,2-3.1C19,9.2,19.8,8,20.6,6.8
	c0.6-0.8,1.1-1.6,1.7-2.5c0.4-0.5,0.5-0.9,1.2-0.6C23.9,3.8,24.2,4.5,24.3,4.7z"/>
</svg>
