<?xml version="1.0" encoding="utf-8"?>
<!-- Generator: Adobe Illustrator 21.1.0, SVG Export Plug-In . SVG Version: 6.00 Build 0)  -->
<svg version="1.1" id="Calque_1" xmlns="http://www.w3.org/2000/svg" xmlns:xlink="http://www.w3.org/1999/xlink" x="0px" y="0px"
	 viewBox="0 0 24.8 22.8" style="enable-background:new 0 0 24.8 22.8;" xml:space="preserve">
<style type="text/css">
	.st0{fill:#FFFFFF;}
	.st1{fill:#939598;}
</style>
<g>
	<circle class="st0" cx="11.4" cy="11.4" r="11.4"/>
	<path class="st1" d="M11.4,0.7c5.9,0,10.7,4.8,10.7,10.7S17.3,22,11.4,22S0.8,17.2,0.8,11.4S5.5,0.7,11.4,0.7 M11.4,0
		C5.1,0,0,5.1,0,11.4s5.1,11.4,11.4,11.4s11.4-5.1,11.4-11.4S17.7,0,11.4,0L11.4,0z"/>
</g>
<g>
	<path class="st1" d="M24.2,4.6c0,0.3-0.3,0.7-0.4,1c-0.2,0.6-0.2,1.2-0.3,1.7c-0.1,1.5-0.2,3.1-0.3,4.6c-0.1,1.2-0.2,2.5-0.2,3.7
		c0,0.6-0.1,1.5,0.1,2.1s0.4,0.4,0.7,0.9c0.5,0.9-0.6,2-1.5,1.8C21,20.1,20.9,18,20.9,17c-0.1-2.9,0.4-5.9,0.9-8.7
		c-1,1.4-1.9,2.8-2.8,4.2c-0.6,0.9-1.6,3.4-2.8,3.6c-1.4,0.3-2.2-2.2-2.6-3.1c-0.7-1.4-1.1-3-1.5-4.5c-0.4,1.8-0.7,3.6-1.1,5.4
		c-0.3,1.4,0,2.8-0.3,4.2c-0.2,0.8-0.8,1.6-1.7,1.2c-0.7-0.3-0.7-1-0.8-1.6c-0.1-1.4,0.4-2.9,0.8-4.2c0.4-1.6,0.8-3.2,1.1-4.7
		c0.2-1,0.2-3.1,1.3-3.5C13.2,4.7,13.7,6.9,14,8c0.4,1.8,1.1,3.7,2.1,5.3c0.9-0.8,1.3-2.2,2-3.1c0.8-1.1,1.6-2.3,2.4-3.5
		c0.6-0.8,1.1-1.6,1.7-2.5c0.4-0.5,0.5-0.9,1.2-0.6C23.8,3.7,24.1,4.4,24.2,4.6z"/>
	<path class="st0" d="M23,3.5c0.1,0,0.2,0,0.4,0.1c0.4,0.1,0.7,0.8,0.8,1c0,0.3-0.3,0.7-0.4,1c-0.2,0.6-0.2,1.2-0.3,1.7
		c-0.1,1.5-0.2,3.1-0.3,4.6c-0.1,1.2-0.2,2.5-0.2,3.7c0,0.6-0.1,1.5,0.1,2.1s0.4,0.4,0.7,0.9c0.5,0.8-0.4,1.8-1.3,1.8
		c-0.1,0-0.1,0-0.2,0C21,20.1,20.9,18,20.9,17c-0.1-2.9,0.4-5.9,0.9-8.7c-1,1.4-1.9,2.8-2.8,4.2c-0.6,0.9-1.6,3.4-2.8,3.6
		c-0.1,0-0.2,0-0.2,0c-1.3,0-2-2.3-2.4-3.1c-0.7-1.4-1.1-3-1.5-4.5c-0.4,1.8-0.7,3.6-1.1,5.4c-0.3,1.4,0,2.8-0.3,4.2
		c-0.2,0.7-0.6,1.3-1.2,1.3c-0.1,0-0.3,0-0.5-0.1c-0.7-0.3-0.7-1-0.8-1.6c-0.1-1.4,0.4-2.9,0.8-4.2c0.4-1.6,0.8-3.2,1.1-4.7
		c0.2-1,0.2-3.1,1.3-3.5c0.2-0.1,0.4-0.1,0.6-0.1c1.3,0,1.8,1.8,2,2.8c0.4,1.8,1.1,3.7,2.1,5.3c0.9-0.8,1.3-2.2,2-3.1
		c0.8-1.1,1.6-2.3,2.4-3.5c0.6-0.8,1.1-1.6,1.7-2.5C22.5,3.8,22.6,3.5,23,3.5 M23,3c-0.5,0-0.8,0.4-1,0.7c-0.1,0.1-0.1,0.1-0.2,0.2
		c-0.2,0.3-0.3,0.5-0.5,0.7c-0.4,0.6-0.8,1.2-1.2,1.8c-0.8,1.2-1.6,2.4-2.4,3.5c-0.3,0.4-0.6,0.9-0.8,1.3c-0.2,0.4-0.4,0.9-0.7,1.2
		c-0.7-1.3-1.3-2.9-1.7-4.6V7.6c-0.3-1.1-0.8-3-2.5-3c-0.2,0-0.5,0-0.7,0.1c-1.2,0.4-1.4,2-1.5,3.2c0,0.3-0.1,0.5-0.1,0.7
		c-0.3,1.5-0.7,3.1-1.1,4.7l-0.2,0.3c-0.4,1.3-0.8,2.7-0.7,4.1c0,0.1,0,0.2,0,0.3c0.1,0.6,0.2,1.4,1.1,1.7c0.2,0.1,0.4,0.1,0.7,0.1
		c0.8,0,1.5-0.7,1.7-1.7c0.2-0.8,0.2-1.5,0.2-2.2s0-1.3,0.1-2c0.2-0.9,0.4-1.8,0.6-2.7c0-0.2,0.1-0.4,0.1-0.7c0.3,0.9,0.6,1.8,1,2.6
		c0,0.1,0.1,0.2,0.2,0.4c0.5,1.1,1.2,3,2.7,3c0.1,0,0.2,0,0.3,0c1.1-0.2,2-1.7,2.6-3c0.2-0.3,0.3-0.6,0.5-0.8c0.5-0.8,1-1.5,1.5-2.3
		c-0.4,2.2-0.6,4.4-0.5,6.6c0,2.3,0.6,3.6,1.8,3.9c0.1,0,0.2,0,0.3,0c0.6,0,1.3-0.4,1.7-1c0.3-0.5,0.3-1.1,0.1-1.6
		c-0.2-0.3-0.4-0.4-0.5-0.5s-0.1-0.1-0.2-0.3c-0.1-0.4-0.1-1-0.1-1.5c0-0.2,0-0.3,0-0.5c0-1.2,0.1-2.5,0.2-3.7L24,9.5l0.1-2.3
		c0-0.2,0.1-0.4,0.1-0.6c0-0.3,0.1-0.7,0.2-1c0-0.1,0.1-0.2,0.1-0.3c0.1-0.3,0.3-0.6,0.3-0.9V4.3l-0.1-0.1V4.1
		c-0.2-0.3-0.5-1-1.1-1.2C23.4,3,23.2,3,23,3L23,3z"/>
</g>
</svg>
