<?xml version="1.0" encoding="UTF-8"?>
<svg width="1383px" height="417px" viewBox="0 0 1383 417" version="1.1" xmlns="http://www.w3.org/2000/svg" xmlns:xlink="http://www.w3.org/1999/xlink">
    <!-- Generator: Sketch 53.1 (72631) - https://sketchapp.com -->
    <title>Path 5 Copy</title>
    <desc>Created with Sketch.</desc>
    <g id="Home" stroke="none" stroke-width="1" fill="none" fill-rule="evenodd">
        <g id="Home-V2-Copy-3" transform="translate(0.000000, -3276.000000)" fill="#739DFD" fill-rule="nonzero">
            <path d="M566.729583,2666.03674 C671.412567,2644.35628 742.912645,2659.65078 781.229818,2711.92024 C838.705576,2790.32442 839.365367,2650.98796 830.265291,2797.19591 C825.459789,2874.40434 769.182303,2900.22681 784.540107,3089.97293 C793.156221,3196.42528 900.290236,3329.4072 892.977751,3478.12098 C887.256088,3594.48226 772.815773,3726.03014 763.854116,3827.66478 C748.489049,4001.92084 825.520495,4047.16707 818.631982,4161.93361 C805.945123,4373.30391 651.258338,4316.28472 562.41819,4146.01139 C516.082262,4057.20275 485.313233,3919.78362 490.136373,3810.65479 C496.502022,3666.62499 590.015936,3635.25028 592.761344,3459.46424 C594.686314,3336.21012 484.921517,3236.4701 496.888804,3072.09705 C502.220276,2998.86822 511.067941,2899.59531 535.736908,2778.89266 C540.675646,2754.72793 551.006538,2717.10929 566.729583,2666.03674 Z" id="Path-5-Copy" transform="translate(691.487606, 3477.440888) scale(-1, 1) rotate(-93.000000) translate(-691.487606, -3477.440888) "></path>
        </g>
    </g>
</svg>