<svg width="58" height="40" viewBox="0 0 58 40" version="1.1" xmlns="http://www.w3.org/2000/svg" xmlns:xlink="http://www.w3.org/1999/xlink">
<title>Logo-FSE</title>
<desc>Created using Figma</desc>
<g id="Canvas" transform="translate(-745 -438)">
<g id="Logo-FSE">
<g id="Page 1">
<g id="Fill 1">
<use xlink:href="#path0_fill" transform="translate(763.185 473.996)" fill="#034EA1"/>
</g>
<g id="Group 61">
<g id="Fill 2">
<use xlink:href="#path1_fill" transform="translate(765.123 474.744)" fill="#034EA1"/>
</g>
<g id="Fill 4">
<use xlink:href="#path2_fill" transform="translate(767.436 474.743)" fill="#034EA1"/>
</g>
<g id="Fill 6">
<use xlink:href="#path3_fill" transform="translate(769.523 473.785)" fill="#034EA1"/>
</g>
<g id="Fill 8">
<use xlink:href="#path4_fill" transform="translate(771.602 474.743)" fill="#034EA1"/>
</g>
<g id="Fill 10">
<use xlink:href="#path5_fill" transform="translate(774.24 473.964)" fill="#034EA1"/>
</g>
<g id="Fill 12">
<use xlink:href="#path6_fill" transform="translate(776.485 474.744)" fill="#034EA1"/>
</g>
<g id="Fill 14">
<use xlink:href="#path7_fill" transform="translate(778.695 474.743)" fill="#034EA1"/>
</g>
<mask id="mask0_outline" mask-type="alpha">
<g id="Clip 17">
<use xlink:href="#path8_fill" transform="translate(745 438.635)" fill="#FFFFFF"/>
</g>
</mask>
<g id="Fill 16" mask="url(#mask0_outline)">
<use xlink:href="#path9_fill" transform="translate(780.608 473.905)" fill="#034EA1"/>
</g>
<g id="Fill 18" mask="url(#mask0_outline)">
<use xlink:href="#path10_fill" transform="translate(781.526 474.743)" fill="#034EA1"/>
</g>
<g id="Fill 19" mask="url(#mask0_outline)">
<use xlink:href="#path11_fill" transform="translate(783.626 473.785)" fill="#034EA1"/>
</g>
<g id="Fill 20" mask="url(#mask0_outline)">
<use xlink:href="#path12_fill" transform="translate(788.789 474.796)" fill="#034EA1"/>
</g>
<g id="Fill 21" mask="url(#mask0_outline)">
<use xlink:href="#path13_fill" transform="translate(790.972 474.744)" fill="#034EA1"/>
</g>
<g id="Fill 22" mask="url(#mask0_outline)">
<use xlink:href="#path14_fill" transform="translate(792.222 474.744)" fill="#034EA1"/>
</g>
<g id="Fill 23" mask="url(#mask0_outline)">
<use xlink:href="#path15_fill" transform="translate(794.536 474.744)" fill="#034EA1"/>
</g>
<g id="Fill 24" mask="url(#mask0_outline)">
<use xlink:href="#path16_fill" transform="translate(796.58 473.913)" fill="#034EA1"/>
</g>
<g id="Fill 25" mask="url(#mask0_outline)">
<use xlink:href="#path17_fill" transform="translate(798.586 474.744)" fill="#034EA1"/>
</g>
<g id="Fill 26" mask="url(#mask0_outline)">
<use xlink:href="#path18_fill" transform="translate(800.695 474.743)" fill="#034EA1"/>
</g>
<g id="Fill 27" mask="url(#mask0_outline)">
<use xlink:href="#path19_fill" transform="translate(785.774 474.035)" fill="#034EA1"/>
</g>
<g id="Fill 28" mask="url(#mask0_outline)">
<use xlink:href="#path20_fill" transform="translate(787.548 474.207)" fill="#FFF100"/>
</g>
<g id="Fill 29" mask="url(#mask0_outline)">
<use xlink:href="#path21_fill" transform="translate(785.799 475.456)" fill="#FFF100"/>
</g>
<g id="Fill 30" mask="url(#mask0_outline)">
<use xlink:href="#path22_fill" transform="translate(786.063 474.135)" fill="#FFF100"/>
</g>
<g id="Fill 31" mask="url(#mask0_outline)">
<use xlink:href="#path23_fill" transform="translate(750.61 457.178)" fill="#034EA1"/>
</g>
<g id="Fill 32" mask="url(#mask0_outline)">
<use xlink:href="#path24_fill" transform="translate(750.273 446.399)" fill="#034EA1"/>
</g>
<g id="Fill 33" mask="url(#mask0_outline)">
<use xlink:href="#path25_fill" transform="translate(779.181 438.635)" fill="#034EA1"/>
</g>
<g id="Fill 34" mask="url(#mask0_outline)">
<use xlink:href="#path26_fill" transform="translate(777.685 439.356)" fill="#034EA1"/>
</g>
<g id="Fill 35" mask="url(#mask0_outline)">
<use xlink:href="#path27_fill" transform="translate(780.953 439.755)" fill="#034EA1"/>
</g>
<g id="Fill 36" mask="url(#mask0_outline)">
<use xlink:href="#path28_fill" transform="translate(784.588 441.285)" fill="#034EA1"/>
</g>
<g id="Fill 37" mask="url(#mask0_outline)">
<use xlink:href="#path29_fill" transform="translate(788.695 441.182)" fill="#034EA1"/>
</g>
<g id="Fill 38" mask="url(#mask0_outline)">
<use xlink:href="#path30_fill" transform="translate(790.964 441.182)" fill="#034EA1"/>
</g>
<g id="Fill 39" mask="url(#mask0_outline)">
<use xlink:href="#path31_fill" transform="translate(795.33 441.182)" fill="#034EA1"/>
</g>
<g id="Fill 40" mask="url(#mask0_outline)">
<use xlink:href="#path32_fill" transform="translate(799.152 441.182)" fill="#034EA1"/>
</g>
<g id="Fill 41" mask="url(#mask0_outline)">
<use xlink:href="#path33_fill" transform="translate(745 449.641)" fill="#034EA1"/>
</g>
<g id="Fill 42" mask="url(#mask0_outline)">
<use xlink:href="#path34_fill" transform="translate(774.624 449.307)" fill="#034EA1"/>
</g>
<g id="Fill 43" mask="url(#mask0_outline)">
<use xlink:href="#path35_fill" transform="translate(781.864 449.641)" fill="#034EA1"/>
</g>
<g id="Fill 44" mask="url(#mask0_outline)">
<use xlink:href="#path36_fill" transform="translate(788.348 449.307)" fill="#034EA1"/>
</g>
<g id="Fill 45" mask="url(#mask0_outline)">
<use xlink:href="#path37_fill" transform="translate(796.039 449.641)" fill="#034EA1"/>
</g>
<g id="Fill 46" mask="url(#mask0_outline)">
<use xlink:href="#path38_fill" transform="translate(767.9 449.571)" fill="#034EA1"/>
</g>
<g id="Fill 47" mask="url(#mask0_outline)">
<use xlink:href="#path39_fill" transform="translate(751.411 444.767)" fill="#034EA1"/>
</g>
<g id="Fill 48" mask="url(#mask0_outline)">
<use xlink:href="#path40_fill" transform="translate(762.165 445.827)" fill="#FFF100"/>
</g>
<g id="Fill 49" mask="url(#mask0_outline)">
<use xlink:href="#path41_fill" transform="translate(751.569 453.398)" fill="#FFF100"/>
</g>
<g id="Fill 50" mask="url(#mask0_outline)">
<use xlink:href="#path42_fill" transform="translate(753.164 445.395)" fill="#FFF100"/>
</g>
<g id="Fill 51" mask="url(#mask0_outline)">
<use xlink:href="#path43_fill" transform="translate(773.732 465.784)" fill="#FFFFFF"/>
</g>
<g id="Fill 52" mask="url(#mask0_outline)">
<use xlink:href="#path44_fill" transform="translate(777.465 465.784)" fill="#FFFFFF"/>
</g>
<g id="Fill 53" mask="url(#mask0_outline)">
<use xlink:href="#path45_fill" transform="translate(783.365 464.389)" fill="#FFFFFF"/>
</g>
<g id="Fill 54" mask="url(#mask0_outline)">
<use xlink:href="#path46_fill" transform="translate(786.562 465.784)" fill="#FFFFFF"/>
</g>
<g id="Fill 55" mask="url(#mask0_outline)">
<use xlink:href="#path47_fill" transform="translate(788.553 465.785)" fill="#FFFFFF"/>
</g>
<g id="Fill 56" mask="url(#mask0_outline)">
<use xlink:href="#path48_fill" transform="translate(792.276 465.784)" fill="#FFFFFF"/>
</g>
<g id="Fill 57" mask="url(#mask0_outline)">
<use xlink:href="#path49_fill" transform="translate(795.966 465.784)" fill="#FFFFFF"/>
</g>
<g id="Fill 58" mask="url(#mask0_outline)">
<use xlink:href="#path50_fill" transform="translate(799.183 465.784)" fill="#FFFFFF"/>
</g>
<g id="Fill 59" mask="url(#mask0_outline)">
<use xlink:href="#path51_fill" transform="translate(774.638 457.231)" fill="#FFFFFF"/>
</g>
<g id="Fill 60" mask="url(#mask0_outline)">
<use xlink:href="#path52_fill" transform="translate(788.366 457.231)" fill="#FFFFFF"/>
</g>
</g>
</g>
</g>
</g>
<defs>
<path id="path0_fill" fill-rule="evenodd" d="M 1.54078 0.527619L 0.652501 0.527619L 0.652501 1.13397L 1.52754 1.13397L 1.53259 1.66222L 0.652501 1.66222L 0.652501 2.83111L 0 2.83111L 0 0L 1.69839 0"/>
<path id="path1_fill" fill-rule="evenodd" d="M 0.384583 1.06032C 0.384583 1.51175 0.597039 1.81207 0.951343 1.81207C 1.30628 1.81207 1.51054 1.50794 1.51054 1.06032C 1.51054 0.609527 1.30628 0.313019 0.943147 0.313019C 0.580017 0.313019 0.384583 0.613336 0.384583 1.06032L 0.384583 1.06032ZM 1.62148 0.274921C 1.80052 0.462857 1.89887 0.737778 1.89887 1.06476C 1.89887 1.39111 1.79737 1.67048 1.61328 1.85968C 1.44685 2.03175 1.21611 2.12508 0.94313 2.12508C 0.678348 2.12508 0.456435 2.03937 0.29063 1.87683C 0.10213 1.68762 0 1.4 0 1.06921C 0 0.737778 0.10213 0.462857 0.285587 0.270476C 0.451391 0.0977778 0.678347 0 0.948173 0C 1.22493 0 1.45567 0.0977778 1.62148 0.274921L 1.62148 0.274921Z"/>
<path id="path2_fill" fill-rule="evenodd" d="M 1.29807 2.08381L 1.29807 0.850793C 1.29807 0.613968 1.25961 0.347936 0.965197 0.347936C 0.743283 0.347936 0.533979 0.493968 0.37637 0.631111L 0.37637 2.08381L 0 2.08381L 0 0.0520635L 0.315848 0.0520635L 0.363761 0.28254C 0.59324 0.111746 0.798762 0 1.08057 0C 1.37498 0 1.67822 0.201905 1.67822 0.72127L 1.67822 2.08381"/>
<path id="path3_fill" fill-rule="evenodd" d="M 1.36991 1.32318C 1.29299 1.29778 1.22554 1.28064 1.08369 1.28064C 0.700387 1.28064 0.380127 1.56826 0.380127 2.02794C 0.380127 2.45842 0.628518 2.76699 1.11017 2.76699C 1.20347 2.76699 1.31065 2.74604 1.36991 2.71937L 1.36991 1.32318ZM 1.05787 3.08444C 0.482283 3.08444 0 2.74603 0 2.04952C 0 1.41841 0.465892 0.958728 1.06733 0.958728C 1.19909 0.958728 1.29302 0.971427 1.36994 0.98857L 1.36994 0L 1.75072 0L 1.75072 2.93396C 1.60572 3.01587 1.36174 3.08444 1.05787 3.08444L 1.05787 3.08444Z"/>
<path id="path4_fill" fill-rule="evenodd" d="M 0.648717 2.12571C 0.341695 2.12571 0.14563 2.04889 0 1.95936L 0.136174 1.67111C 0.247761 1.74413 0.426174 1.82984 0.644304 1.82984C 0.880086 1.82984 1.04148 1.72762 1.04148 1.55492C 1.04148 1.10413 0.119783 1.26667 0.119783 0.55746C 0.119783 0.249524 0.353674 0 0.823347 0C 1.04967 0 1.21611 0.0469841 1.35733 0.107302L 1.35733 0.433016C 1.20791 0.369524 1.04967 0.309206 0.836586 0.309206C 0.639891 0.309206 0.491108 0.378413 0.491108 0.540317C 0.491108 0.949841 1.42982 0.83746 1.42982 1.51619C 1.42982 1.95048 1.06733 2.12571 0.648717 2.12571"/>
<path id="path5_fill" fill-rule="evenodd" d="M 0.930522 2.90476C 0.512544 2.90476 0.213717 2.76825 0 2.62603L 0.247761 2.1581C 0.436261 2.28698 0.649348 2.3854 0.896479 2.3854C 1.08876 2.3854 1.30185 2.31683 1.30185 2.12381C 1.30185 1.78349 0.615305 1.72889 0.277391 1.3327C 0.171478 1.20825 0.102761 1.05016 0.102761 0.831111C 0.102761 0.396191 0.448239 0 1.09317 0C 1.392 0 1.65237 0.0780953 1.82763 0.175873L 1.81439 0.726984C 1.55339 0.593651 1.36237 0.516191 1.131 0.516191C 0.934935 0.516191 0.794348 0.606984 0.794348 0.744762C 0.794348 1.19492 1.99407 1.14349 1.99407 2.04191C 1.99407 2.57905 1.51998 2.90476 0.930522 2.90476"/>
<path id="path6_fill" fill-rule="evenodd" d="M 0.384583 1.06032C 0.384583 1.51175 0.597669 1.81207 0.952603 1.81207C 1.30628 1.81207 1.51117 1.50794 1.51117 1.06032C 1.51117 0.609527 1.30628 0.313019 0.943147 0.313019C 0.580647 0.313019 0.384583 0.613336 0.384583 1.06032L 0.384583 1.06032ZM 1.62148 0.274921C 1.80115 0.462857 1.8995 0.737778 1.8995 1.06476C 1.8995 1.39111 1.79737 1.67048 1.61391 1.85968C 1.44685 2.03175 1.21611 2.12508 0.943131 2.12508C 0.678979 2.12508 0.457066 2.03937 0.290631 1.87683C 0.102761 1.68762 0 1.4 0 1.06921C 0 0.737778 0.102761 0.462857 0.286218 0.270476C 0.452022 0.0977778 0.678979 0 0.948175 0C 1.22494 0 1.45568 0.0977778 1.62148 0.274921L 1.62148 0.274921Z"/>
<path id="path7_fill" fill-rule="evenodd" d="M 0.956997 2.12571C 0.325934 2.12571 0 1.64571 0 1.08698C 0 0.506666 0.36376 0 1.01689 0C 1.22997 0 1.41784 0.0603174 1.55023 0.133333L 1.54582 0.472381C 1.41343 0.381587 1.24258 0.31746 1.02508 0.31746C 0.628542 0.31746 0.379521 0.635555 0.379521 1.0654C 0.379521 1.4819 0.610889 1.80825 1.02067 1.80825C 1.22997 1.80825 1.38317 1.74032 1.51556 1.65778L 1.62273 1.92063C 1.46891 2.02349 1.22619 2.12571 0.956997 2.12571"/>
<path id="path8_fill" fill-rule="evenodd" d="M 0 39.2102L 57.78 39.2102L 57.78 0L 0 0L 0 39.2102Z"/>
<path id="path9_fill" fill-rule="evenodd" d="M 0.06427 2.92253L 0.440012 2.92253L 0.440012 0.890778L 0.06427 0.890778L 0.06427 2.92253ZM 0.504349 0.248888C 0.504349 0.3873 0.388349 0.502855 0.252174 0.502855C 0.111587 0.502855 0 0.391745 0 0.248888C 0 0.115555 0.111587 0 0.252174 0C 0.388349 0 0.504349 0.111746 0.504349 0.248888L 0.504349 0.248888Z"/>
<path id="path10_fill" fill-rule="evenodd" d="M 1.21671 1.12128L 0.84917 1.13461C 0.516301 1.14667 0.380127 1.25906 0.380127 1.46477C 0.380127 1.65779 0.503692 1.8089 0.750822 1.8089C 0.985344 1.8089 1.13097 1.69588 1.21671 1.6108L 1.21671 1.12128ZM 1.32328 2.08381L 1.24195 1.89016C 1.11397 2.01143 0.921692 2.12571 0.631693 2.12571C 0.289999 2.12571 0 1.88635 0 1.4946C 0 1.08698 0.295042 0.845079 0.823344 0.829206L 1.21673 0.816508L 1.21673 0.738412C 1.21673 0.425397 1.03706 0.313651 0.798127 0.313651C 0.550367 0.313651 0.383933 0.407619 0.269194 0.488889L 0.127978 0.232381C 0.38015 0.0520635 0.605845 0 0.866844 0C 1.2886 0 1.59688 0.180317 1.59688 0.704127L 1.59688 1.3873C 1.59688 1.86857 1.60949 2.01143 1.63849 2.08381L 1.32328 2.08381Z"/>
<path id="path11_fill" fill-rule="evenodd" d="M 0.388348 3.08444C 0.110957 3.08444 0 2.91365 0 2.68634L 0 0L 0.375109 0L 0.375109 2.51809C 0.375109 2.6946 0.417979 2.74158 0.533348 2.74158C 0.559196 2.74158 0.597653 2.74158 0.652501 2.7238L 0.699783 3.00444C 0.589457 3.06412 0.494892 3.08444 0.388348 3.08444"/>
<path id="path12_fill" fill-rule="evenodd" d="M 1.363 2.03174L 1.28105 1.82476C 1.131 1.95428 0.905937 2.07365 0.636741 2.07365C 0.368175 2.07365 0 1.93333 0 1.33524L 0 0L 0.380153 0L 0.380153 1.30539C 0.380153 1.61523 0.513806 1.75619 0.760306 1.75619C 0.986002 1.75619 1.16568 1.61904 1.24952 1.52L 1.24952 0L 1.6259 0L 1.6259 1.27555C 1.6259 1.80762 1.63976 1.94095 1.6694 2.03174"/>
<path id="path13_fill" fill-rule="evenodd" d="M 1.01185 0.419682C 0.955109 0.390476 0.882609 0.373968 0.801913 0.373968C 0.682761 0.373968 0.50813 0.462857 0.379522 0.59619L 0.379522 2.08381L 0 2.08381L 0 0.0514286L 0.315217 0.0514286L 0.36187 0.27873C 0.614674 0.0469841 0.772282 0 0.930522 0C 1.02446 0 1.10893 0.0342857 1.16 0.0685714"/>
<path id="path14_fill" fill-rule="evenodd" d="M 0.384583 1.06032C 0.384583 1.51175 0.597669 1.81207 0.951342 1.81207C 1.30565 1.81207 1.51054 1.50794 1.51054 1.06032C 1.51054 0.609527 1.30565 0.313019 0.943146 0.313019C 0.580017 0.313019 0.384583 0.613336 0.384583 1.06032L 0.384583 1.06032ZM 1.62148 0.274921C 1.79989 0.462857 1.89824 0.737778 1.89824 1.06476C 1.89824 1.39111 1.79611 1.67048 1.61266 1.85968C 1.44622 2.03175 1.21611 2.12508 0.943132 2.12508C 0.67898 2.12508 0.456436 2.03937 0.290001 1.87683C 0.102761 1.68762 0 1.4 0 1.06921C 0 0.737778 0.102761 0.462857 0.284957 0.270476C 0.451392 0.0977778 0.67898 0 0.947545 0C 1.22431 0 1.45568 0.0977778 1.62148 0.274921L 1.62148 0.274921Z"/>
<path id="path15_fill" fill-rule="evenodd" d="M 0.686537 0.33078C 0.554145 0.33078 0.460841 0.351732 0.375732 0.377764L 0.375732 1.73967C 0.477863 1.78284 0.559189 1.80824 0.682124 1.80824C 1.08308 1.80824 1.3403 1.51999 1.3403 1.05205C 1.3403 0.553637 1.04084 0.33078 0.686537 0.33078L 0.686537 0.33078ZM 0.699783 2.12508C 0.561718 2.12508 0.464001 2.10032 0.37574 2.0654L 0.37574 3.10095L 0 3.10095L 0 0.135873C 0.156978 0.0806349 0.395913 0 0.699783 0C 1.34787 0 1.72802 0.399365 1.72802 1.03873C 1.72802 1.72698 1.23754 2.12508 0.699783 2.12508L 0.699783 2.12508Z"/>
<path id="path16_fill" fill-rule="evenodd" d="M 1.0043 0.631747L 0.67395 0.631747L 1.05032 0L 1.53323 0L 1.0043 0.631747ZM 0.849234 1.13904C 0.568062 1.13904 0.391541 1.38729 0.391541 1.68062L 1.28928 1.68062C 1.28928 1.4184 1.14428 1.13904 0.849234 1.13904L 0.849234 1.13904ZM 0.396543 1.9765C 0.396543 2.3384 0.627282 2.63364 1.03202 2.63364C 1.20791 2.63364 1.38632 2.57396 1.52502 2.49206L 1.62904 2.74602C 1.45378 2.87872 1.1953 2.95555 0.960151 2.95555C 0.303239 2.95555 0 2.43618 0 1.8692C 0 1.28444 0.336021 0.829834 0.853608 0.829834C 1.38317 0.829834 1.68956 1.24571 1.68956 1.87745L 1.68956 1.9765L 0.396543 1.9765Z"/>
<path id="path17_fill" fill-rule="evenodd" d="M 0.849196 0.308563C 0.569283 0.308563 0.392761 0.557453 0.392761 0.850152L 1.2905 0.850152C 1.2905 0.587929 1.14487 0.308563 0.849196 0.308563L 0.849196 0.308563ZM 0.397174 1.14603C 0.397174 1.50794 0.627913 1.80318 1.03265 1.80318C 1.20791 1.80318 1.38822 1.74349 1.52439 1.66159L 1.63157 1.91556C 1.4563 2.04825 1.19404 2.12508 0.960152 2.12508C 0.3045 2.12508 0 1.60571 0 1.03873C 0 0.453968 0.337283 0 0.852978 0C 1.3838 0 1.69083 0.415238 1.69083 1.04762L 1.69083 1.14603L 0.397174 1.14603Z"/>
<path id="path18_fill" fill-rule="evenodd" d="M 1.29744 2.08381L 1.29744 0.850793C 1.29744 0.613968 1.25961 0.347936 0.965198 0.347936C 0.744545 0.347936 0.533349 0.493968 0.377001 0.631111L 0.377001 2.08381L 0 2.08381L 0 0.0520635L 0.316479 0.0520635L 0.363131 0.28254C 0.59324 0.111746 0.797502 0 1.08057 0C 1.37498 0 1.67696 0.201905 1.67696 0.72127L 1.67696 2.08381"/>
<path id="path19_fill" fill-rule="evenodd" d="M 2.06467 0.126714C 1.80304 -0.00217474 1.41091 -0.0440795 1.06796 0.0543332C 0.441935 0.230206 0.0264783 0.789571 0 1.40862L 0 1.4137L 0 1.43783L 0 1.44163L 0 1.4937L 0 1.52608L 0 1.52925L 0.00693478 1.63021L 0.00819565 1.64417L 0.00882609 1.66068C 0.0170217 1.72989 0.0308913 1.80037 0.0516957 1.86894L 0.0529565 1.88164C 0.0731304 1.95719 0.10087 2.0283 0.132391 2.09814L 0.133652 2.10068C 0.166435 2.17687 0.208674 2.24735 0.254065 2.31402L 0.26037 2.32417L 0.262891 2.32608C 0.29063 2.36925 0.322152 2.40925 0.356826 2.44862C 0.718696 2.8683 1.29996 3.06767 1.86798 2.9064C 2.20148 2.81243 2.62891 2.57179 2.91513 2.05941L 2.72285 2.05941C 2.55578 2.401 2.21346 2.64481 1.83457 2.72925C 1.38317 2.82957 0.875044 2.51656 0.609 2.10005L 0.60963 2.10068C 0.60963 2.10068 1.26843 1.88862 1.58743 1.71148C 2.00667 1.47783 2.55767 0.866397 2.49274 0.427032C 2.37674 0.31719 2.30739 0.244174 2.06467 0.126714"/>
<path id="path20_fill" fill-rule="evenodd" d="M 0.136805 0.683178L 0.355567 0.522542L 0.573699 0.683178L 0.490481 0.423494L 0.711765 0.262858L 0.438155 0.262858L 0.355567 0L 0.271089 0.262858L 0 0.262858L 0.219393 0.423494"/>
<path id="path21_fill" fill-rule="evenodd" d="M 0.136804 0.681904L 0.356825 0.520634L 0.575586 0.681904L 0.491738 0.421587L 0.71302 0.260952L 0.440043 0.260952L 0.356825 0L 0.274239 0.260952L 0 0.260952L 0.222543 0.421587"/>
<path id="path22_fill" fill-rule="evenodd" d="M 0.310174 1.52508L 0.796869 1.16699L 1.28293 1.52508L 1.09822 0.946668L 1.59437 0.587937L 0.984108 0.587937L 0.796869 0L 0.60963 0.587937L 0 0.587937L 0.493 0.946668"/>
<path id="path23_fill" fill-rule="evenodd" d="M 18.5222 0C 17.086 4.01905 13.4787 6.87746 9.25604 6.87746C 5.03654 6.87746 1.4437 4.01905 0 0L 0 15.4756L 52.1697 15.4756L 52.1697 0"/>
<path id="path24_fill" fill-rule="evenodd" d="M 1.65232 0.888567C 1.85028 1.73111 1.21165 2.59904 0.145584 3.15968L 0.0169758 2.98508C 0.521954 2.70063 0.847258 2.00857 0.750171 1.58698C 0.687128 1.36349 0.666324 1.41492 0.441889 1.34952C 0.224389 1.27523 0.0592149 1.0473 0.0169758 0.850472C -0.0630894 0.50571 0.145585 0.110789 0.526367 0.0206306C 0.910302 -0.0727027 1.47643 0.139361 1.65232 0.888567"/>
<path id="path25_fill" fill-rule="evenodd" d="M 0.815028 0.43156C 0.915897 0.848068 0.601311 1.28045 0.0717477 1.55918L 0.00681312 1.47092C 0.260247 1.33251 0.417225 0.987115 0.369942 0.783306L 0.216747 0.662671L 0.00681312 0.417592C -0.0278607 0.246163 0.0717477 0.0550519 0.261508 0.0106074C 0.450007 -0.0370116 0.733072 0.0709249 0.815028 0.43156"/>
<path id="path26_fill" fill-rule="evenodd" d="M 0.677719 5.8946C 0.208044 5.8946 0 5.59048 0 5.18159L 0 0L 0.597654 0L 0.597654 4.91111C 0.597654 5.28 0.682132 5.35111 0.916654 5.35111L 1.11965 5.32698L 1.189 5.76444C 1.01059 5.8546 0.871263 5.8946 0.677719 5.8946"/>
<path id="path27_fill" fill-rule="evenodd" d="M 0 5.4146L 0 0L 2.63522 0L 2.40259 0.56L 0.591348 0.56L 0.591348 2.36825L 2.38494 2.36825L 2.38494 2.91429L 0.591348 2.91429L 0.591348 4.85778L 2.65665 4.85778L 2.65665 5.4146"/>
<path id="path28_fill" fill-rule="evenodd" d="M 2.57595 3.88444L 2.41834 3.48571C 2.1378 3.72762 1.68893 3.96571 1.17576 3.96571C 0.652499 3.96571 0 3.6946 0 2.60508L 0 0L 0.597021 0L 0.597021 2.54667C 0.597021 3.19238 0.864325 3.45079 1.34787 3.45079C 1.83961 3.45079 2.21093 3.13714 2.37421 2.93016L 2.37421 0L 2.96934 0L 2.96934 2.25524C 2.96934 3.48571 2.99456 3.72 3.05382 3.88444"/>
<path id="path29_fill" fill-rule="evenodd" d="M 1.81818 0.701587C 1.73622 0.667302 1.61391 0.636825 1.4437 0.636825C 1.21737 0.636825 0.844153 0.833016 0.591348 1.1054L 0.591348 3.9873L 0 3.9873L 0 0.103492L 0.498044 0.103492L 0.571805 0.543492C 1.10137 0.0622222 1.39704 0 1.67696 0C 1.84591 0 1.99407 0.0698413 2.06657 0.11746"/>
<path id="path30_fill" fill-rule="evenodd" d="M 1.7469 0.513C 1.01875 0.513 0.610229 1.10538 0.610229 2.02411C 0.610229 2.94221 1.0364 3.55364 1.75006 3.55364C 2.47317 3.55364 2.90438 2.94221 2.90438 2.02411C 2.90438 1.10538 2.48893 0.513 1.7469 0.513L 1.7469 0.513ZM 2.96431 3.58857C 2.65729 3.89587 2.23426 4.06857 1.73748 4.06857C 1.26087 4.06857 0.837849 3.90349 0.533348 3.59492C 0.184087 3.23365 0 2.6781 0 2.04127C 0 1.39873 0.193544 0.866032 0.533348 0.508571C 0.846044 0.183492 1.26591 0 1.74694 0C 2.2412 0 2.65729 0.183492 2.96746 0.508571C 3.31357 0.866032 3.50837 1.39873 3.50837 2.04127C 3.50837 2.6781 3.31357 3.22476 2.96431 3.58857L 2.96431 3.58857Z"/>
<path id="path31_fill" fill-rule="evenodd" d="M 1.25457 0.543488C 0.979067 0.543488 0.773545 0.586027 0.593872 0.641265L 0.593872 3.39555C 0.806958 3.4965 0.962675 3.55365 1.21485 3.55365C 2.01613 3.55365 2.56965 2.96761 2.56965 2.00952C 2.56965 0.988567 1.95309 0.543488 1.25457 0.543488L 1.25457 0.543488ZM 1.23628 4.06857C 0.953218 4.06857 0.758413 4.00952 0.59387 3.94984L 0.59387 5.93841L 0 5.93841L 0 0.263492C 0.261 0.177778 0.704826 0 1.26213 0C 2.43474 0 3.1692 0.75873 3.1692 2C 3.1692 3.35619 2.19896 4.06857 1.23628 4.06857L 1.23628 4.06857Z"/>
<path id="path32_fill" fill-rule="evenodd" d="M 1.5786 0.513C 1.00301 0.513 0.644287 1.02665 0.644287 1.64062L 2.46373 1.64062C 2.46373 1.09713 2.16049 0.513 1.5786 0.513L 1.5786 0.513ZM 0.638 2.14603C 0.638 2.88698 1.06543 3.54095 1.92156 3.54095C 2.23867 3.54095 2.60054 3.41079 2.83317 3.2673L 3.01222 3.67556C 2.72978 3.90349 2.23867 4.06857 1.79548 4.06857C 0.587565 4.06857 0 3.07873 0 1.96825C 0 0.843175 0.638 0 1.56726 0C 2.56083 0 3.10615 0.796825 3.10615 2.00952L 3.10615 2.14603L 0.638 2.14603Z"/>
<path id="path33_fill" fill-rule="evenodd" d="M 2.22985 7.94032C 1.14991 7.94032 0.49363 7.65397 0 7.36127L 0.45013 6.44445C 0.798761 6.67492 1.45 6.99492 2.28028 6.99492C 3.2045 6.99492 3.87276 6.57968 3.87276 5.87048C 3.87276 4.00825 0.45013 4.66857 0.45013 2.00825C 0.45013 0.916826 1.22998 0 2.94854 0C 3.74415 0 4.34937 0.175873 4.84363 0.405714L 4.84363 1.42984C 4.31343 1.2019 3.78009 0.979048 2.99393 0.979048C 2.22985 0.979048 1.59752 1.2527 1.59752 1.94476C 1.59752 3.64254 5.08257 3.20698 5.08257 5.69524C 5.08257 7.28 3.78009 7.94032 2.22985 7.94032"/>
<path id="path34_fill" fill-rule="evenodd" d="M 3.43652 1.34583C 2.41585 1.34583 1.71796 2.03344 1.71796 3.09249C 1.71796 4.15027 2.41585 4.90582 3.43652 4.90582C 4.42 4.90582 5.17148 4.26138 5.17148 3.11027C 5.17148 2.05059 4.43513 1.34583 3.43652 1.34583L 3.43652 1.34583ZM 2.2904 8.10965C 1.87558 8.36933 1.20605 8.79663 1.20605 9.52362C 1.20605 10.3071 2.16179 10.935 3.62755 10.935C 5.11033 10.935 5.99798 10.3916 5.99798 9.56997C 5.99798 8.20933 3.27829 8.38521 2.2904 8.10965L 2.2904 8.10965ZM 3.54872 11.9135C 1.27159 11.9135 0 10.9014 0 9.6506C 0 8.81441 0.567391 8.20933 1.43235 7.7579C 1.01059 7.53314 0.905305 7.18456 0.905305 6.82964C 0.905305 6.45948 1.15874 5.89567 1.76711 5.38774C 0.98537 4.94075 0.516957 4.0379 0.516957 3.0925C 0.516957 1.50075 1.79674 0.333768 3.3287 0.333768C 3.88852 0.333768 4.28065 0.39853 4.64883 0.593451L 4.83796 0.577578C 5.21496 0.224562 5.99796 -0.120835 6.93857 0.0410699L 6.60191 1.1071C 6.206 1.00551 5.8227 0.978213 5.50685 1.13504C 6.06163 1.64996 6.38189 2.3071 6.38189 3.11028C 6.38189 4.7598 5.17146 5.89567 3.41948 5.89567C 3.07085 5.89567 2.74996 5.85313 2.46689 5.73758C 2.22796 5.99726 2.07854 6.23345 2.07854 6.62075C 2.07854 7.72806 7.28594 6.58583 7.28594 9.45885C 7.28594 10.7109 6.17448 11.9135 3.54872 11.9135L 3.54872 11.9135Z"/>
<path id="path35_fill" fill-rule="evenodd" d="M 4.55869 4.13779L 3.05826 4.19049C 1.70913 4.23493 1.16632 4.69842 1.16632 5.53334C 1.16632 6.29779 1.64167 6.92826 2.63145 6.92826C 3.61304 6.92826 4.20439 6.42921 4.55869 6.06223L 4.55869 4.13779ZM 4.92432 7.77587L 4.61793 7.03746C 4.15709 7.48698 3.41822 7.94032 2.30676 7.94032C 1.08813 7.94032 0 7.05714 0 5.61587C 0 4.12254 1.03707 3.20698 3.02672 3.14413L 4.55867 3.0927L 4.55867 2.74286C 4.55867 1.44571 3.88663 1.01206 2.93026 1.01206C 1.95561 1.01206 1.35985 1.4127 0.955739 1.71683L 0.481022 0.869841C 1.38633 0.212063 2.1832 0 3.14083 0C 4.57569 0 5.71804 0.627301 5.71804 2.56508L 5.71804 4.87746C 5.71804 7.02286 5.78298 7.53714 5.87439 7.77587L 4.92432 7.77587Z"/>
<path id="path36_fill" fill-rule="evenodd" d="M 3.44031 1.34583C 2.42341 1.34583 1.72174 2.03344 1.72174 3.09249C 1.72174 4.15027 2.42341 4.90582 3.44031 4.90582C 4.43261 4.90582 5.17463 4.26138 5.17463 3.11027C 5.17463 2.05059 4.44459 1.34583 3.44031 1.34583L 3.44031 1.34583ZM 2.29411 8.10965C 1.8818 8.36933 1.21039 8.79663 1.21039 9.52362C 1.21039 10.3071 2.16928 10.935 3.63063 10.935C 5.11215 10.935 6.00422 10.3916 6.00422 9.56997C 6.00422 8.20933 3.27948 8.38521 2.29411 8.10965L 2.29411 8.10965ZM 3.55565 11.9135C 1.27159 11.9135 0 10.9014 0 9.6506C 0 8.81441 0.576848 8.20933 1.43172 7.7579C 1.02067 7.53314 0.906565 7.18456 0.906565 6.82964C 0.906565 6.45948 1.17072 5.89567 1.77215 5.38774C 0.999869 4.94075 0.526413 4.0379 0.526413 3.0925C 0.526413 1.50075 1.79926 0.333768 3.33185 0.333768C 3.88852 0.333768 4.28443 0.39853 4.65198 0.593451L 4.83795 0.577578C 5.22756 0.224562 6.00426 -0.120835 6.94487 0.0410699L 6.612 1.1071C 6.21545 1.00551 5.83026 0.978213 5.51126 1.13504C 6.06793 1.64996 6.38819 2.3071 6.38819 3.11028C 6.38819 4.7598 5.17461 5.89567 3.42641 5.89567C 3.07526 5.89567 2.75626 5.85313 2.46437 5.73758C 2.23741 5.99726 2.08548 6.23345 2.08548 6.62075C 2.08548 7.72806 7.29476 6.58583 7.29476 9.45885C 7.29476 10.7109 6.18141 11.9135 3.55565 11.9135L 3.55565 11.9135Z"/>
<path id="path37_fill" fill-rule="evenodd" d="M 3.07208 0.993011C 1.95621 0.993011 1.25769 1.99111 1.25769 3.18793L 4.80893 3.18793C 4.80893 2.1346 4.21948 0.993011 3.07208 0.993011L 3.07208 0.993011ZM 1.24133 4.19048C 1.24133 5.62667 2.07224 6.91365 3.74163 6.91365C 4.37648 6.91365 5.07689 6.65905 5.52513 6.36889L 5.87439 7.17397C 5.33285 7.61778 4.37648 7.94032 3.50396 7.94032C 1.14424 7.94032 0 6.00254 0 3.83365C 0 1.63936 1.24133 0 3.05635 0C 4.99935 0 6.06479 1.55873 6.06479 3.91619L 6.06479 4.19048L 1.24133 4.19048Z"/>
<path id="path38_fill" fill-rule="evenodd" d="M 4.80706 7.77143L 4.80706 3.11048C 4.80706 2.16508 4.65135 1.1054 3.50459 1.1054C 2.58037 1.1054 1.75324 1.76127 1.16189 2.28698L 1.16189 7.77143L 0 7.77143L 0 0.194921L 0.95763 0.194921L 1.11461 1.08635C 2.00793 0.427937 2.755 0 3.80152 0C 4.88524 0 5.97337 0.780953 5.97337 2.67619L 5.97337 7.77143"/>
<path id="path39_fill" fill-rule="evenodd" d="M 12.9491 0.986035L 12.8924 0.955559L 12.6976 0.854607L 12.5375 0.778416C 10.7004 -0.0622187 8.57139 -0.247616 6.4752 0.34794C 2.68754 1.41969 0.165174 4.81715 0.00504348 8.56826L 0.0018913 8.59175L 0.0018913 8.73905L 0.0018913 8.76318L 0 9.07302L 0.0018913 9.27937L 0.0018913 9.30286C 0.00819565 9.50604 0.0239565 9.70858 0.0384565 9.90794L 0.0504348 9.98413L 0.0649348 10.0902C 0.119152 10.5086 0.195435 10.9359 0.313326 11.36L 0.325935 11.4248C 0.458326 11.8832 0.617826 12.3244 0.810109 12.7429L 0.818304 12.7537C 1.02383 13.2165 1.26907 13.647 1.54898 14.0521L 1.58365 14.1124L 1.58807 14.1289C 1.769 14.386 1.96065 14.6318 2.1687 14.8692C 4.36072 17.421 7.89241 18.6241 11.3327 17.6502C 13.352 17.0806 15.9475 15.614 17.6541 12.5562L 16.4903 12.5562C 15.503 14.5816 13.427 16.0622 11.1373 16.5721C 8.39235 17.1835 5.31394 15.2794 3.69372 12.7524L 3.70002 12.7575C 3.70002 12.7575 7.69761 11.4775 9.628 10.4006C 12.1768 8.98223 13.7826 6.62984 14.5252 5.33651L 14.5265 5.33651L 14.5309 5.32508C 15.0592 4.37778 15.1777 3.45651 15.1254 2.68826L 15.1159 2.60127L 15.0025 2.48699L 14.9993 2.48699L 14.592 2.1181C 14.2024 1.75429 13.7592 1.43873 13.2858 1.17016L 13.1446 1.09207L 13.1427 1.09207L 12.9504 0.986035"/>
<path id="path40_fill" fill-rule="evenodd" d="M 0.836587 4.13778L 2.16239 3.15873L 3.48126 4.13778L 2.98133 2.57016L 4.32541 1.5981L 2.66989 1.5981L 2.16239 0L 1.65426 1.5981L 0 1.5981L 1.33967 2.57016"/>
<path id="path41_fill" fill-rule="evenodd" d="M 0.839739 4.13841L 2.15735 3.17079L 3.48126 4.13841L 2.97817 2.57016L 4.32415 1.59302L 2.66359 1.59302L 2.15735 0L 1.65111 1.59683L 0 1.59302L 1.34093 2.57016"/>
<path id="path42_fill" fill-rule="evenodd" d="M 1.87743 9.24508L 4.83102 7.07556L 7.79659 9.24508L 6.66685 5.7327L 9.66709 3.56127L 5.96896 3.56127L 4.83102 0L 3.70759 3.56445L 0 3.56127L 3.0097 5.7327"/>
<path id="path43_fill" fill-rule="evenodd" d="M 1.537 0.498413C 0.980323 0.498413 0.62854 0.997461 0.62854 1.58984L 2.40511 1.58984C 2.40511 1.06413 2.10628 0.498413 1.537 0.498413L 1.537 0.498413ZM 0.622239 2.08444C 0.622239 2.8127 1.03454 3.45015 1.86735 3.45015C 2.18824 3.45015 2.53435 3.32698 2.76383 3.1765L 2.93846 3.58031C 2.66611 3.80634 2.18824 3.96507 1.74441 3.96507C 0.571804 3.96507 0 2.99746 0 1.90476C 0 0.818412 0.622239 0 1.53133 0C 2.49904 0 3.03428 0.770793 3.03428 1.95682L 3.03428 2.08444L 0.622239 2.08444Z"/>
<path id="path44_fill" fill-rule="evenodd" d="M 2.40385 3.88444L 2.40385 1.54984C 2.40385 1.07683 2.3282 0.551111 1.74946 0.551111C 1.28924 0.551111 0.877566 0.880635 0.58 1.14921L 0.58 3.88444L 0 3.88444L 0 0.0933333L 0.47787 0.0933333L 0.556044 0.544762C 1.00302 0.215238 1.3775 0 1.90328 0C 2.44987 0 2.98385 0.389206 2.98385 1.34159L 2.98385 3.88444"/>
<path id="path45_fill" fill-rule="evenodd" d="M 2.349 0.541587L 0.581891 0.541587L 0.581891 2.32825L 2.33324 2.32825L 2.33324 2.87111L 0.581891 2.87111L 0.581891 5.28L 0 5.28L 0 0L 2.5747 0"/>
<path id="path46_fill" fill-rule="evenodd" d="M 1.7627 0.685714C 1.68389 0.648889 1.56726 0.611428 1.40965 0.611428C 1.1827 0.611428 0.813261 0.804444 0.576848 1.06921L 0.576848 3.88508L 0 3.88508L 0 0.0933333L 0.468413 0.0933333L 0.557304 0.532063C 1.07363 0.0552381 1.35985 0 1.62463 0C 1.79043 0 1.94174 0.0603174 2.01046 0.107936"/>
<path id="path47_fill" fill-rule="evenodd" d="M 2.27461 2.06476L 1.52691 2.08381C 0.852345 2.11365 0.578735 2.34984 0.578735 2.75809C 0.578735 3.14793 0.818302 3.45968 1.31383 3.45968C 1.80809 3.45968 2.09998 3.21142 2.27461 3.03047L 2.27461 2.06476ZM 2.45617 3.88444L 2.3118 3.52C 2.07728 3.73841 1.71667 3.96508 1.15748 3.96508C 0.541543 3.96508 0 3.52444 0 2.80444C 0 2.05524 0.520108 1.59619 1.51241 1.56571L 2.27461 1.54349L 2.27461 1.36952C 2.27461 0.720635 1.94111 0.507936 1.47143 0.507936C 0.980955 0.507936 0.675825 0.706032 0.477238 0.860952L 0.238934 0.427301C 0.695999 0.0977777 1.09128 0 1.566 0C 2.27965 0 2.85965 0.31619 2.85965 1.27302L 2.85965 2.43682C 2.85965 3.50857 2.89306 3.76381 2.93467 3.88444L 2.45617 3.88444Z"/>
<path id="path48_fill" fill-rule="evenodd" d="M 2.40637 3.88444L 2.40637 1.54984C 2.40637 1.07683 2.32883 0.551111 1.75576 0.551111C 1.29681 0.551111 0.880719 0.880635 0.585044 1.14921L 0.585044 3.88444L 0 3.88444L 0 0.0933333L 0.481653 0.0933333L 0.560457 0.544762C 1.00996 0.215238 1.38065 0 1.90959 0C 2.44672 0 2.99079 0.389206 2.99079 1.34159L 2.99079 3.88444"/>
<path id="path49_fill" fill-rule="evenodd" d="M 1.75135 3.96571C 0.597022 3.96571 0 3.05841 0 2.03301C 0 0.988571 0.607109 0 1.86483 0C 2.20589 0 2.56272 0.0933333 2.81804 0.23746L 2.81804 0.785396C 2.57974 0.630476 2.25128 0.518095 1.83961 0.518095C 1.0503 0.518095 0.588196 1.14984 0.588196 2.00698C 0.588196 2.84571 1.0503 3.46032 1.8207 3.46032C 2.23615 3.46032 2.5312 3.32698 2.76698 3.17651L 2.94665 3.59492C 2.66611 3.78032 2.23615 3.96571 1.75135 3.96571"/>
<path id="path50_fill" fill-rule="evenodd" d="M 1.53761 0.498413C 0.97652 0.498413 0.62915 0.997461 0.62915 1.58984L 2.40256 1.58984C 2.40256 1.06413 2.10689 0.498413 1.53761 0.498413L 1.53761 0.498413ZM 0.619719 2.08444C 0.619719 2.8127 1.03833 3.45015 1.86987 3.45015C 2.18887 3.45015 2.53751 3.32698 2.75816 3.1765L 2.93405 3.58031C 2.6699 3.80634 2.18887 3.96507 1.75198 3.96507C 0.571806 3.96507 0 2.99746 0 1.90476C 0 0.818412 0.619719 0 1.52818 0C 2.50031 0 3.0324 0.770793 3.0324 1.95682L 3.0324 2.08444L 0.619719 2.08444Z"/>
<path id="path51_fill" fill-rule="evenodd" d="M 2.2986 0.18158C 3.28271 0.46031 6.00051 0.279992 6.00051 1.64507C 6.00051 2.46348 5.11349 3.01015 3.62882 3.01015C 2.16369 3.01015 1.21173 2.38285 1.21173 1.59618C 1.21173 0.871738 1.87747 0.445072 2.2986 0.18158L 2.2986 0.18158ZM 0 1.72635C 0 2.97651 1.27348 3.98603 3.55061 3.98603C 6.17952 3.98603 7.29287 2.78667 7.29287 1.5346C 7.29287 0.788571 6.94361 0.313016 6.4235 0L 1.13667 0C 0.446348 0.434921 0 0.991111 0 1.72635L 0 1.72635Z"/>
<path id="path52_fill" fill-rule="evenodd" d="M 2.29293 0.18158C 3.27893 0.46031 6.00241 0.279992 6.00241 1.64507C 6.00241 2.46348 5.11602 3.01015 3.63071 3.01015C 2.16684 3.01015 1.20984 2.38285 1.20984 1.59618C 1.20984 0.871738 1.87936 0.445072 2.29293 0.18158L 2.29293 0.18158ZM 0 1.72635C 0 2.97651 1.276 3.98603 3.55376 3.98603C 6.17826 3.98603 7.29539 2.78667 7.29539 1.5346C 7.29539 0.788571 6.94424 0.313016 6.42602 0L 1.14235 0C 0.445087 0.434921 0 0.991111 0 1.72635L 0 1.72635Z"/>
</defs>
</svg>
