<svg width="50" height="40" viewBox="0 0 50 40" version="1.1" xmlns="http://www.w3.org/2000/svg" xmlns:xlink="http://www.w3.org/1999/xlink">
<title>Logo-pe</title>
<desc>Created using Figma</desc>
<g id="Canvas" transform="translate(-980 -347)">
<g id="Logo-pe">
<g id="Plan de travail 1">
<g id="Shape">
<use xlink:href="#path0_fill" transform="translate(991.91 347.15)" fill="url(#paint0_linear)"/>
</g>
<g id="Shape">
<use xlink:href="#path1_fill" transform="translate(992.82 348.052)" fill="url(#paint1_linear)"/>
</g>
<g id="Shape">
<use xlink:href="#path2_fill" transform="translate(1003.48 351.541)" fill="#DA001F"/>
</g>
<g id="Shape">
<use xlink:href="#path3_fill" transform="translate(1003.48 351.534)" fill="#FFFFFF"/>
</g>
<g id="Shape">
<use xlink:href="#path4_fill" transform="translate(1015.63 379.217)" fill="#DA001F"/>
</g>
<g id="Shape">
<use xlink:href="#path5_fill" transform="translate(1020.91 377.064)" fill="#DA001F"/>
</g>
<g id="Shape">
<use xlink:href="#path6_fill" transform="translate(1023.65 379.217)" fill="#DA001F"/>
</g>
<g id="Rectangle-path">
<use xlink:href="#path7_fill" transform="translate(1028.94 379.217)" fill="#DA001F"/>
</g>
<g id="Rectangle-path">
<use xlink:href="#path8_fill" transform="translate(1028.94 377.064)" fill="#DA001F"/>
</g>
<g id="Shape">
<use xlink:href="#path9_fill" transform="translate(1006.66 379.217)" fill="#DA001F"/>
</g>
<g id="Shape">
<use xlink:href="#path10_fill" transform="translate(1001.29 379.217)" fill="#DA001F"/>
</g>
<g id="Shape">
<use xlink:href="#path11_fill" transform="translate(990.59 377.064)" fill="#003979"/>
</g>
<g id="Shape">
<use xlink:href="#path12_fill" transform="translate(993.381 379.217)" fill="#003979"/>
</g>
<g id="Shape">
<use xlink:href="#path13_fill" transform="translate(980 379.217)" fill="#003979"/>
</g>
<g id="Shape">
<use xlink:href="#path14_fill" transform="translate(985.236 379.217)" fill="#003979"/>
</g>
<g id="Shape">
<use xlink:href="#path15_fill" transform="translate(985.514 377.064)" fill="#003979"/>
</g>
</g>
</g>
</g>
<defs>
<linearGradient id="paint0_linear" x1="0" y1="0" x2="1" y2="0" gradientUnits="userSpaceOnUse" gradientTransform="matrix(0 25.9223 -26.0742 0 13.1328 1.45704e-07)">
<stop offset="0" stop-color="#5FC4E4"/>
<stop offset="0.01" stop-color="#5DC2E3"/>
<stop offset="0.28" stop-color="#1B6AA1"/>
<stop offset="0.41" stop-color="#004787"/>
<stop offset="0.6" stop-color="#003A72"/>
<stop offset="0.99" stop-color="#00173D"/>
<stop offset="1" stop-color="#00163B"/>
</linearGradient>
<linearGradient id="paint1_linear" x1="0" y1="0" x2="1" y2="0" gradientUnits="userSpaceOnUse" gradientTransform="matrix(-1.76563 17.266 -25.4942 -1.19577 13.4885 0.549754)">
<stop offset="0" stop-color="#A2DAF4"/>
<stop offset="0.09" stop-color="#90C8E5"/>
<stop offset="0.4" stop-color="#538BB2"/>
<stop offset="0.67" stop-color="#265E8D"/>
<stop offset="0.88" stop-color="#0A4276"/>
<stop offset="1" stop-color="#00386E"/>
</linearGradient>
<path id="path0_fill" d="M 13.0371 1.45704e-07C 5.83691 1.45704e-07 0 5.80291 0 12.9612C 0 20.1194 5.83691 25.9223 13.0371 25.9223C 20.2373 25.9223 26.0742 20.1194 26.0742 12.9612C 26.0747 9.52349 24.7014 6.22647 22.2563 3.79567C 19.8113 1.36487 16.4949 -0.000514977 13.0371 1.45704e-07Z"/>
<path id="path1_fill" d="M 13.3523 0.0621419C 12.9415 0.0203349 12.5288 -0.000404578 12.1159 5.97722e-06C 8.15217 0.00424386 4.44057 1.93375 2.1755 5.16763C -0.0895713 8.40152 -0.622298 12.5317 0.748747 16.2291C 3.05734 10.9049 8.86203 10.7786 13.3073 12.3359C 18.6491 13.4291 24.7507 13.1806 23.8796 9.22913C 22.8835 4.64467 18.7917 0.611656 13.3523 0.0621419Z"/>
<path id="path2_fill" fill-rule="evenodd" d="M 4.80125 0.608574C 5.91361 0.19143 7.09483 -0.0147166 8.28367 0.0008168C 9.94962 0.0008168 11.3637 0.348381 12.5356 1.03576C 13.6513 1.6599 14.5682 2.58297 15.182 3.69985C 15.7508 4.72283 16.0536 5.87081 16.0629 7.03964C 16.057 8.09206 15.768 8.67071 15.2582 8.93285C 14.6723 9.22799 13.8344 9.38915 12.7192 9.38915L 4.44969 9.38915C 4.31583 9.38061 4.18467 9.42947 4.08946 9.5234C 3.99424 9.6173 3.94407 9.74728 3.95164 9.88042C 3.97361 10.7413 4.18491 11.587 4.57078 12.3581C 5.28806 13.85 6.81388 14.7898 8.47703 14.7639C 8.98301 14.7689 9.48722 14.7035 9.97501 14.5697C 10.4428 14.4355 10.8878 14.2326 11.2953 13.9678C 11.6981 13.7114 12.0813 13.4258 12.4418 13.1134C 12.7856 12.8144 13.4555 12.1911 13.686 11.9795C 13.9297 11.7775 14.24 11.6724 14.557 11.6843C 14.592 11.6843 14.626 11.6873 14.6591 11.6903C 14.6908 11.6932 14.7218 11.6959 14.7524 11.6959C 15.0863 11.7406 15.7035 11.9581 15.4985 12.96C 15.184 14.4901 13.3422 16.1134 11.7055 16.6862C 10.7011 16.9964 9.65354 17.1458 8.60203 17.129C 5.85008 17.127 3.75828 16.36 2.25828 14.826C 0.758279 13.2921 0.000466415 11.2183 0.000466415 8.54449C -0.010703 7.36157 0.178811 6.1852 0.561013 5.06487C 0.903482 4.05569 1.45579 3.12945 2.18211 2.34643C 2.91129 1.57723 3.80692 0.982964 4.80125 0.608574ZM 4.46531 7.44354L 11.8403 7.44354L 11.8403 7.43963C 12.0959 7.4464 12.3109 7.25063 12.3266 6.99691C 12.1997 5.56973 11.8071 4.49014 11.0708 3.69595C 10.3345 2.90179 9.33054 2.51342 8.14109 2.51342C 7.05772 2.48382 6.01444 2.92135 5.27976 3.71343C 4.56687 4.47652 4.14304 5.57168 3.97117 6.96584C 3.93015 7.22799 4.19773 7.44354 4.46531 7.44354Z"/>
<path id="path3_fill" fill-rule="evenodd" d="M 0.561013 5.07151C 0.903482 4.0623 1.45579 3.13606 2.18211 2.35307C 2.91123 1.58149 3.80766 0.985181 4.8032 0.609387C 5.91557 0.192242 7.09678 -0.0139039 8.28562 0.00159905C 9.49125 -0.0214722 10.6886 0.205334 11.8012 0.667645C 13.5598 2.93068 14.5114 5.71086 14.5063 8.57054C 14.5063 8.78608 14.5005 9.0016 14.4907 9.21327C 13.909 9.34474 13.3136 9.40602 12.7173 9.39579L 4.44773 9.39579C 4.31388 9.38725 4.18272 9.43611 4.0875 9.53004C 3.99229 9.62394 3.94212 9.75392 3.94969 9.88704C 3.97166 10.748 4.18296 11.5937 4.56883 12.3647C 5.28611 13.8566 6.81199 14.7964 8.47508 14.7706C 8.98106 14.7755 9.48527 14.7102 9.97312 14.5764C 10.4408 14.4421 10.8858 14.2392 11.2934 13.9744C 11.6961 13.718 12.0793 13.4324 12.4399 13.1201C 12.7837 12.821 13.4536 12.1977 13.6841 11.9861C 13.8076 11.8785 13.9537 11.7995 14.1118 11.755C 13.6483 13.5722 12.7933 15.2676 11.6059 16.7239C 10.6313 17.0115 9.61851 17.1503 8.60203 17.1356C 5.85008 17.1336 3.75828 16.3666 2.25828 14.8327C 0.758279 13.2987 0.000466415 11.2249 0.000466415 8.55113C -0.010703 7.36818 0.178811 6.19185 0.561013 5.07151ZM 11.0708 3.69868C 10.3345 2.90452 9.33054 2.51616 8.14109 2.51616C 7.05772 2.48655 6.01444 2.92408 5.27976 3.71617C 4.56687 4.47926 4.14304 5.57441 3.97117 6.96858C 3.93015 7.23072 4.19773 7.44627 4.46531 7.44627L 11.8345 7.44627C 12.0937 7.45619 12.3129 7.25724 12.3266 6.99965C 12.1997 5.57246 11.8071 4.49287 11.0708 3.69868Z"/>
<path id="path4_fill" fill-rule="evenodd" d="M 0 2.73593C 0 0.911987 0.761719 0 2.28516 0C 3.8125 0.0103455 4.57684 0.921692 4.57812 2.73398C 4.57941 4.54626 3.81512 5.45242 2.28516 5.45242L 0.962891 5.45242L 0.962891 7.61166L 0 7.61166L 0 2.73593ZM 2.28516 4.39807C 2.79816 4.39807 3.15887 4.24661 3.36719 3.9437C 3.5332 3.68738 3.625 3.28543 3.625 2.73398C 3.625 2.17606 3.53906 1.7728 3.36719 1.52426C 3.15753 1.21359 2.79688 1.0589 2.28516 1.06018C 1.77344 1.06149 1.41602 1.21619 1.21289 1.52426C 1.04492 1.7728 0.962891 2.1767 0.962891 2.73398L 0.962891 4.39807L 2.28516 4.39807Z"/>
<path id="path5_fill" d="M 0.960936 5.64272L 0.960936 0L 0 0L 0 5.63107C 0 6.94887 0.820311 7.60778 2.46093 7.60778L 2.46093 6.54758C 1.86133 6.54758 1.44922 6.45438 1.2207 6.26797C 1.04034 6.11154 0.944186 5.88009 0.960936 5.64272Z"/>
<path id="path6_fill" fill-rule="evenodd" d="M 0 2.73398C 0 0.911316 0.764954 0 2.29492 0C 3.81573 0.0103455 4.57684 0.921692 4.57812 2.73398C 4.57941 4.5463 3.81836 5.45242 2.29492 5.45242C 0.764954 5.4628 0 4.55664 0 2.73398ZM 2.29492 4.39807C 2.80664 4.39807 3.16406 4.24661 3.36719 3.9437C 3.53259 3.69516 3.61523 3.2919 3.61523 2.73398C 3.61523 2.17606 3.53259 1.7728 3.36719 1.52426C 3.16406 1.21359 2.80664 1.0589 2.29492 1.06018C 1.7832 1.06149 1.42517 1.21619 1.2207 1.52426C 1.05664 1.7728 0.973999 2.17606 0.972656 2.73398C 0.971375 3.2919 1.05408 3.69516 1.2207 3.9437C 1.42517 4.24661 1.7832 4.39807 2.29492 4.39807Z"/>
<path id="path7_fill" d="M 0 0L 0.960941 0L 0.960941 5.4602L 0 5.4602L 0 0Z"/>
<path id="path8_fill" d="M 0 0L 0.960941 0L 0.960941 1.06019L 0 1.06019L 0 0Z"/>
<path id="path9_fill" d="M 5.90039 4.5581e-06C 5.08789 4.5581e-06 4.48698 0.274438 4.09766 0.823306C 3.70703 0.273144 3.10287 -0.00128994 2.28516 4.5581e-06C 0.761719 4.5581e-06 0 0.911332 0 2.73399L 0 5.45243L 0.962891 5.45243L 0.962891 2.73399C 0.962891 2.17865 1.04492 1.7767 1.21289 1.5301C 1.41602 1.22201 1.77344 1.06732 2.28516 1.06602C 2.79688 1.06473 3.15755 1.21942 3.36719 1.5301C 3.52995 1.77347 3.61133 2.17476 3.61133 2.73399L 3.61133 5.45243L 4.58789 5.45243L 4.58789 2.73399C 4.58789 2.17865 4.67123 1.77735 4.83789 1.5301C 5.04102 1.22201 5.39844 1.06732 5.91016 1.06602C 6.42188 1.06473 6.78255 1.21942 6.99219 1.5301C 7.15886 1.77735 7.24219 2.17865 7.24219 2.73399L 7.24219 5.45243L 8.20508 5.45243L 8.20508 2.73399C 8.19857 0.911332 7.43034 4.5581e-06 5.90039 4.5581e-06Z"/>
<path id="path10_fill" fill-rule="evenodd" d="M 0 2.75534C 0 1.0097 0.910156 0 2.30273 0C 3.75781 0 4.60352 1.06409 4.59766 2.5903L 4.59766 3.06796L 1.08203 3.06796C 1.08203 3.99805 1.57422 4.58057 2.46289 4.58057C 2.96417 4.60846 3.4502 4.40414 3.7793 4.02719L 4.47461 4.67572C 3.96185 5.25095 3.21344 5.56256 2.44141 5.52234C 1.08203 5.52234 0 4.80969 0 2.75534ZM 1.2207 1.58444C 1.11981 1.81573 1.07245 2.06653 1.08203 2.31842L 3.52344 2.31842C 3.5285 2.06573 3.47717 1.81503 3.37305 1.58444C 3.19263 1.15912 2.76678 0.888702 2.30273 0.904846C 1.83569 0.888245 1.40619 1.15802 1.2207 1.58444Z"/>
<path id="path11_fill" d="M 0.960939 5.64272L 0.960939 0L 0 0L 0 5.63107C 0 6.94887 0.819663 7.60778 2.45899 7.60778L 2.45899 6.54758C 1.86133 6.54758 1.44857 6.45438 1.22071 6.26797C 1.03958 6.11209 0.943253 5.88024 0.960939 5.64272Z"/>
<path id="path12_fill" fill-rule="evenodd" d="M 2.30078 0C 3.75781 0 4.60352 1.06409 4.60352 2.5961L 4.59766 3.06796L 1.08203 3.06796C 1.08203 3.99805 1.57422 4.58057 2.46094 4.58057C 2.96234 4.60907 3.44861 4.40463 3.77734 4.02719L 4.47461 4.67572C 3.96185 5.25095 3.21344 5.56256 2.44141 5.52234C 1.08203 5.52234 0 4.80969 0 2.75534C 0 1.0097 0.910156 0 2.30078 0ZM 1.22656 1.58447C 1.12567 1.81573 1.07831 2.06656 1.08789 2.31845L 3.52734 2.31845C 3.53241 2.06573 3.48108 1.81506 3.37695 1.58447C 3.19696 1.15875 2.77081 0.888153 2.30664 0.904877C 1.84003 0.888 1.41089 1.15799 1.22656 1.58447Z"/>
<path id="path13_fill" fill-rule="evenodd" d="M 0 2.73398C 0 0.911316 0.758484 0 2.27539 0C 3.80927 0.0103455 4.57684 0.921692 4.57812 2.73398C 4.57941 4.54626 3.81512 5.45242 2.28516 5.45242L 0.962891 5.45242L 0.962891 7.60971L 0 7.60971L 0 2.73398ZM 2.27539 4.39804C 2.78711 4.39804 3.14648 4.24658 3.35742 3.94366C 3.51562 3.68738 3.60742 3.28543 3.60742 2.73398C 3.60742 2.17603 3.52411 1.7728 3.35742 1.52426C 3.14648 1.21552 2.78711 1.06018 2.27539 1.06018C 1.76367 1.06146 1.40625 1.21616 1.20312 1.52426C 1.03516 1.7728 0.953125 2.1767 0.953125 2.73398L 0.953125 4.39804L 2.27539 4.39804Z"/>
<path id="path14_fill" fill-rule="evenodd" d="M 0 2.73398C 0 0.911316 0.764343 0 2.29297 0C 3.81641 0.0103455 4.57812 0.921692 4.57812 2.73398C 4.57812 4.5463 3.81641 5.45242 2.29297 5.45242C 0.764343 5.4628 0 4.55664 0 2.73398ZM 2.29102 4.39807C 2.79883 4.39807 3.1543 4.24661 3.35742 3.9437C 3.52344 3.70486 3.60547 3.29126 3.60547 2.73398C 3.60547 2.1767 3.52148 1.7728 3.35742 1.52426C 3.1543 1.21359 2.79883 1.0589 2.29102 1.06018C 1.7832 1.06149 1.42511 1.21619 1.2168 1.52426C 1.05078 1.7728 0.96875 2.18253 0.96875 2.73398C 0.96875 3.28543 1.05078 3.68738 1.2168 3.9437C 1.42511 4.24661 1.7832 4.39807 2.29102 4.39807Z"/>
<path id="path15_fill" d="M 1.9707 0.833015L 3.50586 1.6971L 3.93946 1.11263L 1.9707 0L 0 1.11263L 0.435547 1.6971L 1.9707 0.833015Z"/>
</defs>
</svg>
