<svg width="130" height="38" viewBox="0 0 130 38" version="1.1" xmlns="http://www.w3.org/2000/svg" xmlns:xlink="http://www.w3.org/1999/xlink">
<title>Ce dispositif est co</title>
<desc>Created using Figma</desc>
<g id="Canvas" transform="translate(-948 -439)">
<g id="Ce dispositif est co">
<use xlink:href="#path0_fill" transform="translate(948 439)" fill="#044DA1"/>
</g>
</g>
<defs>
<path id="path0_fill" d="M 4.84375 5.19531C 4.77344 5.79688 4.55078 6.26172 4.17578 6.58984C 3.80339 6.91536 3.30729 7.07812 2.6875 7.07812C 2.01562 7.07812 1.47656 6.83724 1.07031 6.35547C 0.666667 5.8737 0.464844 5.22917 0.464844 4.42188L 0.464844 3.875C 0.464844 3.34635 0.558594 2.88151 0.746094 2.48047C 0.936198 2.07943 1.20443 1.77214 1.55078 1.55859C 1.89714 1.34245 2.29818 1.23438 2.75391 1.23438C 3.35807 1.23438 3.84245 1.40365 4.20703 1.74219C 4.57161 2.07812 4.78385 2.54427 4.84375 3.14062L 4.08984 3.14062C 4.02474 2.6875 3.88281 2.35938 3.66406 2.15625C 3.44792 1.95312 3.14453 1.85156 2.75391 1.85156C 2.27474 1.85156 1.89844 2.02865 1.625 2.38281C 1.35417 2.73698 1.21875 3.24089 1.21875 3.89453L 1.21875 4.44531C 1.21875 5.0625 1.34766 5.55339 1.60547 5.91797C 1.86328 6.28255 2.22396 6.46484 2.6875 6.46484C 3.10417 6.46484 3.42318 6.37109 3.64453 6.18359C 3.86849 5.99349 4.01693 5.66406 4.08984 5.19531L 4.84375 5.19531ZM 7.51172 7.07812C 6.9388 7.07812 6.47266 6.89062 6.11328 6.51562C 5.75391 6.13802 5.57422 5.63411 5.57422 5.00391L 5.57422 4.87109C 5.57422 4.45182 5.65365 4.07812 5.8125 3.75C 5.97396 3.41927 6.19792 3.16146 6.48438 2.97656C 6.77344 2.78906 7.08594 2.69531 7.42188 2.69531C 7.97135 2.69531 8.39844 2.8763 8.70312 3.23828C 9.00781 3.60026 9.16016 4.11849 9.16016 4.79297L 9.16016 5.09375L 6.29688 5.09375C 6.30729 5.51042 6.42839 5.84766 6.66016 6.10547C 6.89453 6.36068 7.19141 6.48828 7.55078 6.48828C 7.80599 6.48828 8.02214 6.4362 8.19922 6.33203C 8.3763 6.22786 8.53125 6.08984 8.66406 5.91797L 9.10547 6.26172C 8.7513 6.80599 8.22005 7.07812 7.51172 7.07812ZM 7.42188 3.28906C 7.13021 3.28906 6.88542 3.39583 6.6875 3.60938C 6.48958 3.82031 6.36719 4.11719 6.32031 4.5L 8.4375 4.5L 8.4375 4.44531C 8.41667 4.07812 8.31771 3.79427 8.14062 3.59375C 7.96354 3.39062 7.72396 3.28906 7.42188 3.28906ZM 11.8086 4.85156C 11.8086 4.20312 11.9622 3.68229 12.2695 3.28906C 12.5768 2.89323 12.9792 2.69531 13.4766 2.69531C 13.9714 2.69531 14.3633 2.86458 14.6523 3.20312L 14.6523 1L 15.375 1L 15.375 7L 14.7109 7L 14.6758 6.54688C 14.3867 6.90104 13.9844 7.07812 13.4688 7.07812C 12.9792 7.07812 12.5794 6.8776 12.2695 6.47656C 11.9622 6.07552 11.8086 5.55208 11.8086 4.90625L 11.8086 4.85156ZM 12.5312 4.93359C 12.5312 5.41276 12.6302 5.78776 12.8281 6.05859C 13.026 6.32943 13.2995 6.46484 13.6484 6.46484C 14.1068 6.46484 14.4414 6.25911 14.6523 5.84766L 14.6523 3.90625C 14.4362 3.50781 14.1042 3.30859 13.6562 3.30859C 13.3021 3.30859 13.026 3.44531 12.8281 3.71875C 12.6302 3.99219 12.5312 4.39714 12.5312 4.93359ZM 17.2852 7L 16.5625 7L 16.5625 2.77344L 17.2852 2.77344L 17.2852 7ZM 16.5039 1.65234C 16.5039 1.53516 16.5391 1.4362 16.6094 1.35547C 16.6823 1.27474 16.7891 1.23438 16.9297 1.23438C 17.0703 1.23438 17.1771 1.27474 17.25 1.35547C 17.3229 1.4362 17.3594 1.53516 17.3594 1.65234C 17.3594 1.76953 17.3229 1.86719 17.25 1.94531C 17.1771 2.02344 17.0703 2.0625 16.9297 2.0625C 16.7891 2.0625 16.6823 2.02344 16.6094 1.94531C 16.5391 1.86719 16.5039 1.76953 16.5039 1.65234ZM 20.9062 5.87891C 20.9062 5.68359 20.832 5.53255 20.6836 5.42578C 20.5378 5.31641 20.2812 5.22266 19.9141 5.14453C 19.5495 5.06641 19.2591 4.97266 19.043 4.86328C 18.8294 4.75391 18.6706 4.6237 18.5664 4.47266C 18.4648 4.32161 18.4141 4.14193 18.4141 3.93359C 18.4141 3.58724 18.5599 3.29427 18.8516 3.05469C 19.1458 2.8151 19.5208 2.69531 19.9766 2.69531C 20.4557 2.69531 20.8438 2.81901 21.1406 3.06641C 21.4401 3.3138 21.5898 3.63021 21.5898 4.01562L 20.8633 4.01562C 20.8633 3.81771 20.7786 3.64714 20.6094 3.50391C 20.4427 3.36068 20.2318 3.28906 19.9766 3.28906C 19.7135 3.28906 19.5078 3.34635 19.3594 3.46094C 19.2109 3.57552 19.1367 3.72526 19.1367 3.91016C 19.1367 4.08464 19.2057 4.21615 19.3438 4.30469C 19.4818 4.39323 19.7305 4.47786 20.0898 4.55859C 20.4518 4.63932 20.7448 4.73568 20.9688 4.84766C 21.1927 4.95964 21.3581 5.09505 21.4648 5.25391C 21.5742 5.41016 21.6289 5.60156 21.6289 5.82812C 21.6289 6.20573 21.4779 6.50911 21.1758 6.73828C 20.8737 6.96484 20.4818 7.07812 20 7.07812C 19.6615 7.07812 19.362 7.01823 19.1016 6.89844C 18.8411 6.77865 18.6367 6.61198 18.4883 6.39844C 18.3424 6.18229 18.2695 5.94922 18.2695 5.69922L 18.9922 5.69922C 19.0052 5.94141 19.1016 6.13411 19.2812 6.27734C 19.4635 6.41797 19.7031 6.48828 20 6.48828C 20.2734 6.48828 20.4922 6.43359 20.6562 6.32422C 20.8229 6.21224 20.9062 6.0638 20.9062 5.87891ZM 26.1406 4.93359C 26.1406 5.57682 25.9935 6.09505 25.6992 6.48828C 25.4049 6.88151 25.0065 7.07812 24.5039 7.07812C 23.9909 7.07812 23.5872 6.91536 23.293 6.58984L 23.293 8.625L 22.5703 8.625L 22.5703 2.77344L 23.2305 2.77344L 23.2656 3.24219C 23.5599 2.8776 23.9688 2.69531 24.4922 2.69531C 25 2.69531 25.401 2.88672 25.6953 3.26953C 25.9922 3.65234 26.1406 4.1849 26.1406 4.86719L 26.1406 4.93359ZM 25.418 4.85156C 25.418 4.375 25.3164 3.9987 25.1133 3.72266C 24.9102 3.44661 24.6315 3.30859 24.2773 3.30859C 23.8398 3.30859 23.5117 3.5026 23.293 3.89062L 23.293 5.91016C 23.5091 6.29557 23.8398 6.48828 24.2852 6.48828C 24.6315 6.48828 24.9062 6.35156 25.1094 6.07812C 25.3151 5.80208 25.418 5.39323 25.418 4.85156ZM 26.8711 4.84766C 26.8711 4.43359 26.9518 4.0612 27.1133 3.73047C 27.2773 3.39974 27.5039 3.14453 27.793 2.96484C 28.0846 2.78516 28.4167 2.69531 28.7891 2.69531C 29.3646 2.69531 29.8294 2.89453 30.1836 3.29297C 30.5404 3.69141 30.7188 4.22135 30.7188 4.88281L 30.7188 4.93359C 30.7188 5.34505 30.6393 5.71484 30.4805 6.04297C 30.3242 6.36849 30.099 6.6224 29.8047 6.80469C 29.513 6.98698 29.1771 7.07812 28.7969 7.07812C 28.224 7.07812 27.7591 6.87891 27.4023 6.48047C 27.0482 6.08203 26.8711 5.55469 26.8711 4.89844L 26.8711 4.84766ZM 27.5977 4.93359C 27.5977 5.40234 27.7057 5.77865 27.9219 6.0625C 28.1406 6.34635 28.4323 6.48828 28.7969 6.48828C 29.1641 6.48828 29.4557 6.34505 29.6719 6.05859C 29.888 5.76953 29.9961 5.36589 29.9961 4.84766C 29.9961 4.38411 29.8854 4.00911 29.6641 3.72266C 29.4453 3.43359 29.1536 3.28906 28.7891 3.28906C 28.4323 3.28906 28.1445 3.43099 27.9258 3.71484C 27.707 3.9987 27.5977 4.40495 27.5977 4.93359ZM 34.0859 5.87891C 34.0859 5.68359 34.0117 5.53255 33.8633 5.42578C 33.7174 5.31641 33.4609 5.22266 33.0938 5.14453C 32.7292 5.06641 32.4388 4.97266 32.2227 4.86328C 32.0091 4.75391 31.8503 4.6237 31.7461 4.47266C 31.6445 4.32161 31.5938 4.14193 31.5938 3.93359C 31.5938 3.58724 31.7396 3.29427 32.0312 3.05469C 32.3255 2.8151 32.7005 2.69531 33.1562 2.69531C 33.6354 2.69531 34.0234 2.81901 34.3203 3.06641C 34.6198 3.3138 34.7695 3.63021 34.7695 4.01562L 34.043 4.01562C 34.043 3.81771 33.9583 3.64714 33.7891 3.50391C 33.6224 3.36068 33.4115 3.28906 33.1562 3.28906C 32.8932 3.28906 32.6875 3.34635 32.5391 3.46094C 32.3906 3.57552 32.3164 3.72526 32.3164 3.91016C 32.3164 4.08464 32.3854 4.21615 32.5234 4.30469C 32.6615 4.39323 32.9102 4.47786 33.2695 4.55859C 33.6315 4.63932 33.9245 4.73568 34.1484 4.84766C 34.3724 4.95964 34.5378 5.09505 34.6445 5.25391C 34.7539 5.41016 34.8086 5.60156 34.8086 5.82812C 34.8086 6.20573 34.6576 6.50911 34.3555 6.73828C 34.0534 6.96484 33.6615 7.07812 33.1797 7.07812C 32.8411 7.07812 32.5417 7.01823 32.2812 6.89844C 32.0208 6.77865 31.8164 6.61198 31.668 6.39844C 31.5221 6.18229 31.4492 5.94922 31.4492 5.69922L 32.1719 5.69922C 32.1849 5.94141 32.2812 6.13411 32.4609 6.27734C 32.6432 6.41797 32.8828 6.48828 33.1797 6.48828C 33.4531 6.48828 33.6719 6.43359 33.8359 6.32422C 34.0026 6.21224 34.0859 6.0638 34.0859 5.87891ZM 36.5352 7L 35.8125 7L 35.8125 2.77344L 36.5352 2.77344L 36.5352 7ZM 35.7539 1.65234C 35.7539 1.53516 35.7891 1.4362 35.8594 1.35547C 35.9323 1.27474 36.0391 1.23438 36.1797 1.23438C 36.3203 1.23438 36.4271 1.27474 36.5 1.35547C 36.5729 1.4362 36.6094 1.53516 36.6094 1.65234C 36.6094 1.76953 36.5729 1.86719 36.5 1.94531C 36.4271 2.02344 36.3203 2.0625 36.1797 2.0625C 36.0391 2.0625 35.9323 2.02344 35.8594 1.94531C 35.7891 1.86719 35.7539 1.76953 35.7539 1.65234ZM 38.6758 1.75L 38.6758 2.77344L 39.4648 2.77344L 39.4648 3.33203L 38.6758 3.33203L 38.6758 5.95312C 38.6758 6.1224 38.7109 6.25 38.7812 6.33594C 38.8516 6.41927 38.9714 6.46094 39.1406 6.46094C 39.224 6.46094 39.3385 6.44531 39.4844 6.41406L 39.4844 7C 39.2943 7.05208 39.1094 7.07812 38.9297 7.07812C 38.6068 7.07812 38.3633 6.98047 38.1992 6.78516C 38.0352 6.58984 37.9531 6.3125 37.9531 5.95312L 37.9531 3.33203L 37.1836 3.33203L 37.1836 2.77344L 37.9531 2.77344L 37.9531 1.75L 38.6758 1.75ZM 41.0977 7L 40.375 7L 40.375 2.77344L 41.0977 2.77344L 41.0977 7ZM 40.3164 1.65234C 40.3164 1.53516 40.3516 1.4362 40.4219 1.35547C 40.4948 1.27474 40.6016 1.23438 40.7422 1.23438C 40.8828 1.23438 40.9896 1.27474 41.0625 1.35547C 41.1354 1.4362 41.1719 1.53516 41.1719 1.65234C 41.1719 1.76953 41.1354 1.86719 41.0625 1.94531C 40.9896 2.02344 40.8828 2.0625 40.7422 2.0625C 40.6016 2.0625 40.4948 2.02344 40.4219 1.94531C 40.3516 1.86719 40.3164 1.76953 40.3164 1.65234ZM 42.6133 7L 42.6133 3.33203L 41.9453 3.33203L 41.9453 2.77344L 42.6133 2.77344L 42.6133 2.33984C 42.6133 1.88672 42.7344 1.53646 42.9766 1.28906C 43.2188 1.04167 43.5612 0.917969 44.0039 0.917969C 44.1706 0.917969 44.3359 0.940104 44.5 0.984375L 44.4609 1.57031C 44.3385 1.54688 44.2083 1.53516 44.0703 1.53516C 43.8359 1.53516 43.6549 1.60417 43.5273 1.74219C 43.3997 1.8776 43.3359 2.07292 43.3359 2.32812L 43.3359 2.77344L 44.2383 2.77344L 44.2383 3.33203L 43.3359 3.33203L 43.3359 7L 42.6133 7ZM 48.7773 7.07812C 48.2044 7.07812 47.7383 6.89062 47.3789 6.51562C 47.0195 6.13802 46.8398 5.63411 46.8398 5.00391L 46.8398 4.87109C 46.8398 4.45182 46.9193 4.07812 47.0781 3.75C 47.2396 3.41927 47.4635 3.16146 47.75 2.97656C 48.0391 2.78906 48.3516 2.69531 48.6875 2.69531C 49.237 2.69531 49.6641 2.8763 49.9688 3.23828C 50.2734 3.60026 50.4258 4.11849 50.4258 4.79297L 50.4258 5.09375L 47.5625 5.09375C 47.5729 5.51042 47.694 5.84766 47.9258 6.10547C 48.1602 6.36068 48.457 6.48828 48.8164 6.48828C 49.0716 6.48828 49.2878 6.4362 49.4648 6.33203C 49.6419 6.22786 49.7969 6.08984 49.9297 5.91797L 50.3711 6.26172C 50.0169 6.80599 49.4857 7.07812 48.7773 7.07812ZM 48.6875 3.28906C 48.3958 3.28906 48.151 3.39583 47.9531 3.60938C 47.7552 3.82031 47.6328 4.11719 47.5859 4.5L 49.7031 4.5L 49.7031 4.44531C 49.6823 4.07812 49.5833 3.79427 49.4062 3.59375C 49.2292 3.39062 48.9896 3.28906 48.6875 3.28906ZM 53.7266 5.87891C 53.7266 5.68359 53.6523 5.53255 53.5039 5.42578C 53.3581 5.31641 53.1016 5.22266 52.7344 5.14453C 52.3698 5.06641 52.0794 4.97266 51.8633 4.86328C 51.6497 4.75391 51.4909 4.6237 51.3867 4.47266C 51.2852 4.32161 51.2344 4.14193 51.2344 3.93359C 51.2344 3.58724 51.3802 3.29427 51.6719 3.05469C 51.9661 2.8151 52.3411 2.69531 52.7969 2.69531C 53.276 2.69531 53.6641 2.81901 53.9609 3.06641C 54.2604 3.3138 54.4102 3.63021 54.4102 4.01562L 53.6836 4.01562C 53.6836 3.81771 53.599 3.64714 53.4297 3.50391C 53.263 3.36068 53.0521 3.28906 52.7969 3.28906C 52.5339 3.28906 52.3281 3.34635 52.1797 3.46094C 52.0312 3.57552 51.957 3.72526 51.957 3.91016C 51.957 4.08464 52.026 4.21615 52.1641 4.30469C 52.3021 4.39323 52.5508 4.47786 52.9102 4.55859C 53.2721 4.63932 53.5651 4.73568 53.7891 4.84766C 54.013 4.95964 54.1784 5.09505 54.2852 5.25391C 54.3945 5.41016 54.4492 5.60156 54.4492 5.82812C 54.4492 6.20573 54.2982 6.50911 53.9961 6.73828C 53.694 6.96484 53.3021 7.07812 52.8203 7.07812C 52.4818 7.07812 52.1823 7.01823 51.9219 6.89844C 51.6615 6.77865 51.457 6.61198 51.3086 6.39844C 51.1628 6.18229 51.0898 5.94922 51.0898 5.69922L 51.8125 5.69922C 51.8255 5.94141 51.9219 6.13411 52.1016 6.27734C 52.2839 6.41797 52.5234 6.48828 52.8203 6.48828C 53.0938 6.48828 53.3125 6.43359 53.4766 6.32422C 53.6432 6.21224 53.7266 6.0638 53.7266 5.87891ZM 56.3711 1.75L 56.3711 2.77344L 57.1602 2.77344L 57.1602 3.33203L 56.3711 3.33203L 56.3711 5.95312C 56.3711 6.1224 56.4062 6.25 56.4766 6.33594C 56.5469 6.41927 56.6667 6.46094 56.8359 6.46094C 56.9193 6.46094 57.0339 6.44531 57.1797 6.41406L 57.1797 7C 56.9896 7.05208 56.8047 7.07812 56.625 7.07812C 56.3021 7.07812 56.0586 6.98047 55.8945 6.78516C 55.7305 6.58984 55.6484 6.3125 55.6484 5.95312L 55.6484 3.33203L 54.8789 3.33203L 54.8789 2.77344L 55.6484 2.77344L 55.6484 1.75L 56.3711 1.75ZM 61.6875 6.48828C 61.9453 6.48828 62.1706 6.41016 62.3633 6.25391C 62.556 6.09766 62.6628 5.90234 62.6836 5.66797L 63.3672 5.66797C 63.3542 5.91016 63.2708 6.14062 63.1172 6.35938C 62.9635 6.57812 62.7578 6.7526 62.5 6.88281C 62.2448 7.01302 61.974 7.07812 61.6875 7.07812C 61.112 7.07812 60.6536 6.88672 60.3125 6.50391C 59.974 6.11849 59.8047 5.59245 59.8047 4.92578L 59.8047 4.80469C 59.8047 4.39323 59.8802 4.02734 60.0312 3.70703C 60.1823 3.38672 60.3984 3.13802 60.6797 2.96094C 60.9635 2.78385 61.2982 2.69531 61.6836 2.69531C 62.1576 2.69531 62.5508 2.83724 62.8633 3.12109C 63.1784 3.40495 63.3464 3.77344 63.3672 4.22656L 62.6836 4.22656C 62.6628 3.95312 62.5586 3.72917 62.3711 3.55469C 62.1862 3.3776 61.957 3.28906 61.6836 3.28906C 61.3164 3.28906 61.0312 3.42188 60.8281 3.6875C 60.6276 3.95052 60.5273 4.33203 60.5273 4.83203L 60.5273 4.96875C 60.5273 5.45573 60.6276 5.83073 60.8281 6.09375C 61.0286 6.35677 61.3151 6.48828 61.6875 6.48828ZM 63.9883 4.84766C 63.9883 4.43359 64.069 4.0612 64.2305 3.73047C 64.3945 3.39974 64.6211 3.14453 64.9102 2.96484C 65.2018 2.78516 65.5339 2.69531 65.9062 2.69531C 66.4818 2.69531 66.9466 2.89453 67.3008 3.29297C 67.6576 3.69141 67.8359 4.22135 67.8359 4.88281L 67.8359 4.93359C 67.8359 5.34505 67.7565 5.71484 67.5977 6.04297C 67.4414 6.36849 67.2161 6.6224 66.9219 6.80469C 66.6302 6.98698 66.2943 7.07812 65.9141 7.07812C 65.3411 7.07812 64.8763 6.87891 64.5195 6.48047C 64.1654 6.08203 63.9883 5.55469 63.9883 4.89844L 63.9883 4.84766ZM 64.7148 4.93359C 64.7148 5.40234 64.8229 5.77865 65.0391 6.0625C 65.2578 6.34635 65.5495 6.48828 65.9141 6.48828C 66.2812 6.48828 66.5729 6.34505 66.7891 6.05859C 67.0052 5.76953 67.1133 5.36589 67.1133 4.84766C 67.1133 4.38411 67.0026 4.00911 66.7812 3.72266C 66.5625 3.43359 66.2708 3.28906 65.9062 3.28906C 65.5495 3.28906 65.2617 3.43099 65.043 3.71484C 64.8242 3.9987 64.7148 4.40495 64.7148 4.93359ZM 68.9844 7L 68.9844 3.33203L 68.3164 3.33203L 68.3164 2.77344L 68.9844 2.77344L 68.9844 2.41406C 68.9844 1.94271 69.1185 1.57552 69.3867 1.3125C 69.6576 1.04948 70.0391 0.917969 70.5312 0.917969C 70.8229 0.917969 71.1914 0.997396 71.6367 1.15625L 71.5156 1.76562C 71.1901 1.63542 70.8802 1.57031 70.5859 1.57031C 70.276 1.57031 70.0521 1.64062 69.9141 1.78125C 69.7786 1.91927 69.7109 2.1276 69.7109 2.40625L 69.7109 2.77344L 70.5742 2.77344L 70.5742 3.33203L 69.7109 3.33203L 69.7109 7L 68.9844 7ZM 71.9961 7L 71.2695 7L 71.2695 2.77344L 71.9961 2.77344L 71.9961 7ZM 73.8555 2.77344L 73.8789 3.30469C 74.2018 2.89844 74.6237 2.69531 75.1445 2.69531C 76.0378 2.69531 76.4883 3.19922 76.4961 4.20703L 76.4961 7L 75.7734 7L 75.7734 4.20312C 75.7708 3.89844 75.7005 3.67318 75.5625 3.52734C 75.4271 3.38151 75.2148 3.30859 74.9258 3.30859C 74.6914 3.30859 74.4857 3.37109 74.3086 3.49609C 74.1315 3.62109 73.9935 3.78516 73.8945 3.98828L 73.8945 7L 73.1719 7L 73.1719 2.77344L 73.8555 2.77344ZM 80.1953 7C 80.1536 6.91667 80.1198 6.76823 80.0938 6.55469C 79.7578 6.90365 79.3568 7.07812 78.8906 7.07812C 78.474 7.07812 78.1315 6.96094 77.8633 6.72656C 77.5977 6.48958 77.4648 6.1901 77.4648 5.82812C 77.4648 5.38802 77.6315 5.04688 77.9648 4.80469C 78.3008 4.5599 78.7721 4.4375 79.3789 4.4375L 80.082 4.4375L 80.082 4.10547C 80.082 3.85286 80.0065 3.65234 79.8555 3.50391C 79.7044 3.35286 79.4818 3.27734 79.1875 3.27734C 78.9297 3.27734 78.7135 3.34245 78.5391 3.47266C 78.3646 3.60286 78.2773 3.76042 78.2773 3.94531L 77.5508 3.94531C 77.5508 3.73438 77.625 3.53125 77.7734 3.33594C 77.9245 3.13802 78.1276 2.98177 78.3828 2.86719C 78.6406 2.7526 78.9232 2.69531 79.2305 2.69531C 79.7174 2.69531 80.099 2.81771 80.375 3.0625C 80.651 3.30469 80.7943 3.63932 80.8047 4.06641L 80.8047 6.01172C 80.8047 6.39974 80.8542 6.70833 80.9531 6.9375L 80.9531 7L 80.1953 7ZM 78.9961 6.44922C 79.2227 6.44922 79.4375 6.39062 79.6406 6.27344C 79.8438 6.15625 79.9909 6.00391 80.082 5.81641L 80.082 4.94922L 79.5156 4.94922C 78.6302 4.94922 78.1875 5.20833 78.1875 5.72656C 78.1875 5.95312 78.263 6.13021 78.4141 6.25781C 78.5651 6.38542 78.7591 6.44922 78.9961 6.44922ZM 82.6211 2.77344L 82.6445 3.30469C 82.9674 2.89844 83.3893 2.69531 83.9102 2.69531C 84.8034 2.69531 85.2539 3.19922 85.2617 4.20703L 85.2617 7L 84.5391 7L 84.5391 4.20312C 84.5365 3.89844 84.4661 3.67318 84.3281 3.52734C 84.1927 3.38151 83.9805 3.30859 83.6914 3.30859C 83.457 3.30859 83.2513 3.37109 83.0742 3.49609C 82.8971 3.62109 82.7591 3.78516 82.6602 3.98828L 82.6602 7L 81.9375 7L 81.9375 2.77344L 82.6211 2.77344ZM 88.0469 6.48828C 88.3047 6.48828 88.5299 6.41016 88.7227 6.25391C 88.9154 6.09766 89.0221 5.90234 89.043 5.66797L 89.7266 5.66797C 89.7135 5.91016 89.6302 6.14062 89.4766 6.35938C 89.3229 6.57812 89.1172 6.7526 88.8594 6.88281C 88.6042 7.01302 88.3333 7.07812 88.0469 7.07812C 87.4714 7.07812 87.013 6.88672 86.6719 6.50391C 86.3333 6.11849 86.1641 5.59245 86.1641 4.92578L 86.1641 4.80469C 86.1641 4.39323 86.2396 4.02734 86.3906 3.70703C 86.5417 3.38672 86.7578 3.13802 87.0391 2.96094C 87.3229 2.78385 87.6576 2.69531 88.043 2.69531C 88.5169 2.69531 88.9102 2.83724 89.2227 3.12109C 89.5378 3.40495 89.7057 3.77344 89.7266 4.22656L 89.043 4.22656C 89.0221 3.95312 88.918 3.72917 88.7305 3.55469C 88.5456 3.3776 88.3164 3.28906 88.043 3.28906C 87.6758 3.28906 87.3906 3.42188 87.1875 3.6875C 86.987 3.95052 86.8867 4.33203 86.8867 4.83203L 86.8867 4.96875C 86.8867 5.45573 86.987 5.83073 87.1875 6.09375C 87.388 6.35677 87.6745 6.48828 88.0469 6.48828ZM 92.293 7.07812C 91.7201 7.07812 91.2539 6.89062 90.8945 6.51562C 90.5352 6.13802 90.3555 5.63411 90.3555 5.00391L 90.3555 4.87109C 90.3555 4.45182 90.4349 4.07812 90.5938 3.75C 90.7552 3.41927 90.9792 3.16146 91.2656 2.97656C 91.5547 2.78906 91.8672 2.69531 92.2031 2.69531C 92.7526 2.69531 93.1797 2.8763 93.4844 3.23828C 93.7891 3.60026 93.9414 4.11849 93.9414 4.79297L 93.9414 5.09375L 91.0781 5.09375C 91.0885 5.51042 91.2096 5.84766 91.4414 6.10547C 91.6758 6.36068 91.9727 6.48828 92.332 6.48828C 92.5872 6.48828 92.8034 6.4362 92.9805 6.33203C 93.1576 6.22786 93.3125 6.08984 93.4453 5.91797L 93.8867 6.26172C 93.5326 6.80599 93.0013 7.07812 92.293 7.07812ZM 92.2031 3.28906C 91.9115 3.28906 91.6667 3.39583 91.4688 3.60938C 91.2708 3.82031 91.1484 4.11719 91.1016 4.5L 93.2188 4.5L 93.2188 4.44531C 93.1979 4.07812 93.099 3.79427 92.9219 3.59375C 92.7448 3.39062 92.5052 3.28906 92.2031 3.28906ZM 92.5547 1L 93.4297 1L 92.3828 2.14844L 91.8008 2.14844L 92.5547 1ZM 100.336 4.93359C 100.336 5.57682 100.189 6.09505 99.8945 6.48828C 99.6003 6.88151 99.2018 7.07812 98.6992 7.07812C 98.1862 7.07812 97.7826 6.91536 97.4883 6.58984L 97.4883 8.625L 96.7656 8.625L 96.7656 2.77344L 97.4258 2.77344L 97.4609 3.24219C 97.7552 2.8776 98.1641 2.69531 98.6875 2.69531C 99.1953 2.69531 99.5964 2.88672 99.8906 3.26953C 100.188 3.65234 100.336 4.1849 100.336 4.86719L 100.336 4.93359ZM 99.6133 4.85156C 99.6133 4.375 99.5117 3.9987 99.3086 3.72266C 99.1055 3.44661 98.8268 3.30859 98.4727 3.30859C 98.0352 3.30859 97.707 3.5026 97.4883 3.89062L 97.4883 5.91016C 97.7044 6.29557 98.0352 6.48828 98.4805 6.48828C 98.8268 6.48828 99.1016 6.35156 99.3047 6.07812C 99.5104 5.80208 99.6133 5.39323 99.6133 4.85156ZM 103.867 7C 103.826 6.91667 103.792 6.76823 103.766 6.55469C 103.43 6.90365 103.029 7.07812 102.562 7.07812C 102.146 7.07812 101.803 6.96094 101.535 6.72656C 101.27 6.48958 101.137 6.1901 101.137 5.82812C 101.137 5.38802 101.303 5.04688 101.637 4.80469C 101.973 4.5599 102.444 4.4375 103.051 4.4375L 103.754 4.4375L 103.754 4.10547C 103.754 3.85286 103.678 3.65234 103.527 3.50391C 103.376 3.35286 103.154 3.27734 102.859 3.27734C 102.602 3.27734 102.385 3.34245 102.211 3.47266C 102.036 3.60286 101.949 3.76042 101.949 3.94531L 101.223 3.94531C 101.223 3.73438 101.297 3.53125 101.445 3.33594C 101.596 3.13802 101.799 2.98177 102.055 2.86719C 102.312 2.7526 102.595 2.69531 102.902 2.69531C 103.389 2.69531 103.771 2.81771 104.047 3.0625C 104.323 3.30469 104.466 3.63932 104.477 4.06641L 104.477 6.01172C 104.477 6.39974 104.526 6.70833 104.625 6.9375L 104.625 7L 103.867 7ZM 102.668 6.44922C 102.895 6.44922 103.109 6.39062 103.312 6.27344C 103.516 6.15625 103.663 6.00391 103.754 5.81641L 103.754 4.94922L 103.188 4.94922C 102.302 4.94922 101.859 5.20833 101.859 5.72656C 101.859 5.95312 101.935 6.13021 102.086 6.25781C 102.237 6.38542 102.431 6.44922 102.668 6.44922ZM 107.652 3.42188C 107.543 3.40365 107.424 3.39453 107.297 3.39453C 106.823 3.39453 106.501 3.59635 106.332 4L 106.332 7L 105.609 7L 105.609 2.77344L 106.312 2.77344L 106.324 3.26172C 106.561 2.88411 106.897 2.69531 107.332 2.69531C 107.473 2.69531 107.579 2.71354 107.652 2.75L 107.652 3.42188ZM 111.09 7L 110.367 7L 110.367 1L 111.09 1L 111.09 7ZM 114.004 7.07812C 113.431 7.07812 112.965 6.89062 112.605 6.51562C 112.246 6.13802 112.066 5.63411 112.066 5.00391L 112.066 4.87109C 112.066 4.45182 112.146 4.07812 112.305 3.75C 112.466 3.41927 112.69 3.16146 112.977 2.97656C 113.266 2.78906 113.578 2.69531 113.914 2.69531C 114.464 2.69531 114.891 2.8763 115.195 3.23828C 115.5 3.60026 115.652 4.11849 115.652 4.79297L 115.652 5.09375L 112.789 5.09375C 112.799 5.51042 112.921 5.84766 113.152 6.10547C 113.387 6.36068 113.684 6.48828 114.043 6.48828C 114.298 6.48828 114.514 6.4362 114.691 6.33203C 114.868 6.22786 115.023 6.08984 115.156 5.91797L 115.598 6.26172C 115.243 6.80599 114.712 7.07812 114.004 7.07812ZM 113.914 3.28906C 113.622 3.28906 113.378 3.39583 113.18 3.60938C 112.982 3.82031 112.859 4.11719 112.812 4.5L 114.93 4.5L 114.93 4.44531C 114.909 4.07812 114.81 3.79427 114.633 3.59375C 114.456 3.39062 114.216 3.28906 113.914 3.28906ZM 3.79688 14.4883L 1.41016 14.4883L 1.41016 17L 0.660156 17L 0.660156 11.3125L 4.18359 11.3125L 4.18359 11.9297L 1.41016 11.9297L 1.41016 13.875L 3.79688 13.875L 3.79688 14.4883ZM 4.69141 14.8477C 4.69141 14.4336 4.77214 14.0612 4.93359 13.7305C 5.09766 13.3997 5.32422 13.1445 5.61328 12.9648C 5.90495 12.7852 6.23698 12.6953 6.60938 12.6953C 7.1849 12.6953 7.64974 12.8945 8.00391 13.293C 8.36068 13.6914 8.53906 14.2214 8.53906 14.8828L 8.53906 14.9336C 8.53906 15.3451 8.45964 15.7148 8.30078 16.043C 8.14453 16.3685 7.91927 16.6224 7.625 16.8047C 7.33333 16.987 6.9974 17.0781 6.61719 17.0781C 6.04427 17.0781 5.57943 16.8789 5.22266 16.4805C 4.86849 16.082 4.69141 15.5547 4.69141 14.8984L 4.69141 14.8477ZM 5.41797 14.9336C 5.41797 15.4023 5.52604 15.7786 5.74219 16.0625C 5.96094 16.3464 6.2526 16.4883 6.61719 16.4883C 6.98438 16.4883 7.27604 16.3451 7.49219 16.0586C 7.70833 15.7695 7.81641 15.3659 7.81641 14.8477C 7.81641 14.3841 7.70573 14.0091 7.48438 13.7227C 7.26562 13.4336 6.97396 13.2891 6.60938 13.2891C 6.2526 13.2891 5.96484 13.431 5.74609 13.7148C 5.52734 13.9987 5.41797 14.4049 5.41797 14.9336ZM 10.1289 12.7734L 10.1523 13.3047C 10.4753 12.8984 10.8971 12.6953 11.418 12.6953C 12.3112 12.6953 12.7617 13.1992 12.7695 14.207L 12.7695 17L 12.0469 17L 12.0469 14.2031C 12.0443 13.8984 11.974 13.6732 11.8359 13.5273C 11.7005 13.3815 11.4883 13.3086 11.1992 13.3086C 10.9648 13.3086 10.7591 13.3711 10.582 13.4961C 10.4049 13.6211 10.2669 13.7852 10.168 13.9883L 10.168 17L 9.44531 17L 9.44531 12.7734L 10.1289 12.7734ZM 13.6836 14.8516C 13.6836 14.2031 13.8372 13.6823 14.1445 13.2891C 14.4518 12.8932 14.8542 12.6953 15.3516 12.6953C 15.8464 12.6953 16.2383 12.8646 16.5273 13.2031L 16.5273 11L 17.25 11L 17.25 17L 16.5859 17L 16.5508 16.5469C 16.2617 16.901 15.8594 17.0781 15.3438 17.0781C 14.8542 17.0781 14.4544 16.8776 14.1445 16.4766C 13.8372 16.0755 13.6836 15.5521 13.6836 14.9062L 13.6836 14.8516ZM 14.4062 14.9336C 14.4062 15.4128 14.5052 15.7878 14.7031 16.0586C 14.901 16.3294 15.1745 16.4648 15.5234 16.4648C 15.9818 16.4648 16.3164 16.2591 16.5273 15.8477L 16.5273 13.9062C 16.3112 13.5078 15.9792 13.3086 15.5312 13.3086C 15.1771 13.3086 14.901 13.4453 14.7031 13.7188C 14.5052 13.9922 14.4062 14.3971 14.4062 14.9336ZM 20.8359 15.8789C 20.8359 15.6836 20.7617 15.5326 20.6133 15.4258C 20.4674 15.3164 20.2109 15.2227 19.8438 15.1445C 19.4792 15.0664 19.1888 14.9727 18.9727 14.8633C 18.7591 14.7539 18.6003 14.6237 18.4961 14.4727C 18.3945 14.3216 18.3438 14.1419 18.3438 13.9336C 18.3438 13.5872 18.4896 13.2943 18.7812 13.0547C 19.0755 12.8151 19.4505 12.6953 19.9062 12.6953C 20.3854 12.6953 20.7734 12.819 21.0703 13.0664C 21.3698 13.3138 21.5195 13.6302 21.5195 14.0156L 20.793 14.0156C 20.793 13.8177 20.7083 13.6471 20.5391 13.5039C 20.3724 13.3607 20.1615 13.2891 19.9062 13.2891C 19.6432 13.2891 19.4375 13.3464 19.2891 13.4609C 19.1406 13.5755 19.0664 13.7253 19.0664 13.9102C 19.0664 14.0846 19.1354 14.2161 19.2734 14.3047C 19.4115 14.3932 19.6602 14.4779 20.0195 14.5586C 20.3815 14.6393 20.6745 14.7357 20.8984 14.8477C 21.1224 14.9596 21.2878 15.0951 21.3945 15.2539C 21.5039 15.4102 21.5586 15.6016 21.5586 15.8281C 21.5586 16.2057 21.4076 16.5091 21.1055 16.7383C 20.8034 16.9648 20.4115 17.0781 19.9297 17.0781C 19.5911 17.0781 19.2917 17.0182 19.0312 16.8984C 18.7708 16.7786 18.5664 16.612 18.418 16.3984C 18.2721 16.1823 18.1992 15.9492 18.1992 15.6992L 18.9219 15.6992C 18.9349 15.9414 19.0312 16.1341 19.2109 16.2773C 19.3932 16.418 19.6328 16.4883 19.9297 16.4883C 20.2031 16.4883 20.4219 16.4336 20.5859 16.3242C 20.7526 16.2122 20.8359 16.0638 20.8359 15.8789ZM 26.9453 15.8789C 26.9453 15.6836 26.8711 15.5326 26.7227 15.4258C 26.5768 15.3164 26.3203 15.2227 25.9531 15.1445C 25.5885 15.0664 25.2982 14.9727 25.082 14.8633C 24.8685 14.7539 24.7096 14.6237 24.6055 14.4727C 24.5039 14.3216 24.4531 14.1419 24.4531 13.9336C 24.4531 13.5872 24.599 13.2943 24.8906 13.0547C 25.1849 12.8151 25.5599 12.6953 26.0156 12.6953C 26.4948 12.6953 26.8828 12.819 27.1797 13.0664C 27.4792 13.3138 27.6289 13.6302 27.6289 14.0156L 26.9023 14.0156C 26.9023 13.8177 26.8177 13.6471 26.6484 13.5039C 26.4818 13.3607 26.2708 13.2891 26.0156 13.2891C 25.7526 13.2891 25.5469 13.3464 25.3984 13.4609C 25.25 13.5755 25.1758 13.7253 25.1758 13.9102C 25.1758 14.0846 25.2448 14.2161 25.3828 14.3047C 25.5208 14.3932 25.7695 14.4779 26.1289 14.5586C 26.4909 14.6393 26.7839 14.7357 27.0078 14.8477C 27.2318 14.9596 27.3971 15.0951 27.5039 15.2539C 27.6133 15.4102 27.668 15.6016 27.668 15.8281C 27.668 16.2057 27.5169 16.5091 27.2148 16.7383C 26.9128 16.9648 26.5208 17.0781 26.0391 17.0781C 25.7005 17.0781 25.401 17.0182 25.1406 16.8984C 24.8802 16.7786 24.6758 16.612 24.5273 16.3984C 24.3815 16.1823 24.3086 15.9492 24.3086 15.6992L 25.0312 15.6992C 25.0443 15.9414 25.1406 16.1341 25.3203 16.2773C 25.5026 16.418 25.7422 16.4883 26.0391 16.4883C 26.3125 16.4883 26.5312 16.4336 26.6953 16.3242C 26.862 16.2122 26.9453 16.0638 26.9453 15.8789ZM 28.418 14.8477C 28.418 14.4336 28.4987 14.0612 28.6602 13.7305C 28.8242 13.3997 29.0508 13.1445 29.3398 12.9648C 29.6315 12.7852 29.9635 12.6953 30.3359 12.6953C 30.9115 12.6953 31.3763 12.8945 31.7305 13.293C 32.0872 13.6914 32.2656 14.2214 32.2656 14.8828L 32.2656 14.9336C 32.2656 15.3451 32.1862 15.7148 32.0273 16.043C 31.8711 16.3685 31.6458 16.6224 31.3516 16.8047C 31.0599 16.987 30.724 17.0781 30.3438 17.0781C 29.7708 17.0781 29.306 16.8789 28.9492 16.4805C 28.5951 16.082 28.418 15.5547 28.418 14.8984L 28.418 14.8477ZM 29.1445 14.9336C 29.1445 15.4023 29.2526 15.7786 29.4688 16.0625C 29.6875 16.3464 29.9792 16.4883 30.3438 16.4883C 30.7109 16.4883 31.0026 16.3451 31.2188 16.0586C 31.4349 15.7695 31.543 15.3659 31.543 14.8477C 31.543 14.3841 31.4323 14.0091 31.2109 13.7227C 30.9922 13.4336 30.7005 13.2891 30.3359 13.2891C 29.9792 13.2891 29.6914 13.431 29.4727 13.7148C 29.2539 13.9987 29.1445 14.4049 29.1445 14.9336ZM 34.8672 16.4883C 35.125 16.4883 35.3503 16.4102 35.543 16.2539C 35.7357 16.0977 35.8424 15.9023 35.8633 15.668L 36.5469 15.668C 36.5339 15.9102 36.4505 16.1406 36.2969 16.3594C 36.1432 16.5781 35.9375 16.7526 35.6797 16.8828C 35.4245 17.013 35.1536 17.0781 34.8672 17.0781C 34.2917 17.0781 33.8333 16.8867 33.4922 16.5039C 33.1536 16.1185 32.9844 15.5924 32.9844 14.9258L 32.9844 14.8047C 32.9844 14.3932 33.0599 14.0273 33.2109 13.707C 33.362 13.3867 33.5781 13.138 33.8594 12.9609C 34.1432 12.7839 34.4779 12.6953 34.8633 12.6953C 35.3372 12.6953 35.7305 12.8372 36.043 13.1211C 36.3581 13.4049 36.526 13.7734 36.5469 14.2266L 35.8633 14.2266C 35.8424 13.9531 35.7383 13.7292 35.5508 13.5547C 35.3659 13.3776 35.1367 13.2891 34.8633 13.2891C 34.4961 13.2891 34.2109 13.4219 34.0078 13.6875C 33.8073 13.9505 33.707 14.332 33.707 14.832L 33.707 14.9688C 33.707 15.4557 33.8073 15.8307 34.0078 16.0938C 34.2083 16.3568 34.4948 16.4883 34.8672 16.4883ZM 38.1445 17L 37.4219 17L 37.4219 12.7734L 38.1445 12.7734L 38.1445 17ZM 37.3633 11.6523C 37.3633 11.5352 37.3984 11.4362 37.4688 11.3555C 37.5417 11.2747 37.6484 11.2344 37.7891 11.2344C 37.9297 11.2344 38.0365 11.2747 38.1094 11.3555C 38.1823 11.4362 38.2188 11.5352 38.2188 11.6523C 38.2188 11.7695 38.1823 11.8672 38.1094 11.9453C 38.0365 12.0234 37.9297 12.0625 37.7891 12.0625C 37.6484 12.0625 37.5417 12.0234 37.4688 11.9453C 37.3984 11.8672 37.3633 11.7695 37.3633 11.6523ZM 41.9141 17C 41.8724 16.9167 41.8385 16.7682 41.8125 16.5547C 41.4766 16.9036 41.0755 17.0781 40.6094 17.0781C 40.1927 17.0781 39.8503 16.9609 39.582 16.7266C 39.3164 16.4896 39.1836 16.1901 39.1836 15.8281C 39.1836 15.388 39.3503 15.0469 39.6836 14.8047C 40.0195 14.5599 40.4909 14.4375 41.0977 14.4375L 41.8008 14.4375L 41.8008 14.1055C 41.8008 13.8529 41.7253 13.6523 41.5742 13.5039C 41.4232 13.3529 41.2005 13.2773 40.9062 13.2773C 40.6484 13.2773 40.4323 13.3424 40.2578 13.4727C 40.0833 13.6029 39.9961 13.7604 39.9961 13.9453L 39.2695 13.9453C 39.2695 13.7344 39.3438 13.5312 39.4922 13.3359C 39.6432 13.138 39.8464 12.9818 40.1016 12.8672C 40.3594 12.7526 40.6419 12.6953 40.9492 12.6953C 41.4362 12.6953 41.8177 12.8177 42.0938 13.0625C 42.3698 13.3047 42.513 13.6393 42.5234 14.0664L 42.5234 16.0117C 42.5234 16.3997 42.5729 16.7083 42.6719 16.9375L 42.6719 17L 41.9141 17ZM 40.7148 16.4492C 40.9414 16.4492 41.1562 16.3906 41.3594 16.2734C 41.5625 16.1562 41.7096 16.0039 41.8008 15.8164L 41.8008 14.9492L 41.2344 14.9492C 40.349 14.9492 39.9062 15.2083 39.9062 15.7266C 39.9062 15.9531 39.9818 16.1302 40.1328 16.2578C 40.2839 16.3854 40.4779 16.4492 40.7148 16.4492ZM 44.4414 17L 43.7188 17L 43.7188 11L 44.4414 11L 44.4414 17ZM 49.3398 17.0781C 48.7669 17.0781 48.3008 16.8906 47.9414 16.5156C 47.582 16.138 47.4023 15.6341 47.4023 15.0039L 47.4023 14.8711C 47.4023 14.4518 47.4818 14.0781 47.6406 13.75C 47.8021 13.4193 48.026 13.1615 48.3125 12.9766C 48.6016 12.7891 48.9141 12.6953 49.25 12.6953C 49.7995 12.6953 50.2266 12.8763 50.5312 13.2383C 50.8359 13.6003 50.9883 14.1185 50.9883 14.793L 50.9883 15.0938L 48.125 15.0938C 48.1354 15.5104 48.2565 15.8477 48.4883 16.1055C 48.7227 16.3607 49.0195 16.4883 49.3789 16.4883C 49.6341 16.4883 49.8503 16.4362 50.0273 16.332C 50.2044 16.2279 50.3594 16.0898 50.4922 15.918L 50.9336 16.2617C 50.5794 16.806 50.0482 17.0781 49.3398 17.0781ZM 49.25 13.2891C 48.9583 13.2891 48.7135 13.3958 48.5156 13.6094C 48.3177 13.8203 48.1953 14.1172 48.1484 14.5L 50.2656 14.5L 50.2656 14.4453C 50.2448 14.0781 50.1458 13.7943 49.9688 13.5938C 49.7917 13.3906 49.5521 13.2891 49.25 13.2891ZM 54.4375 16.582C 54.1562 16.9128 53.7435 17.0781 53.1992 17.0781C 52.7487 17.0781 52.4049 16.9479 52.168 16.6875C 51.9336 16.4245 51.8151 16.0365 51.8125 15.5234L 51.8125 12.7734L 52.5352 12.7734L 52.5352 15.5039C 52.5352 16.1445 52.7956 16.4648 53.3164 16.4648C 53.8685 16.4648 54.2357 16.2591 54.418 15.8477L 54.418 12.7734L 55.1406 12.7734L 55.1406 17L 54.4531 17L 54.4375 16.582ZM 58.2852 13.4219C 58.1758 13.4036 58.0573 13.3945 57.9297 13.3945C 57.4557 13.3945 57.1341 13.5964 56.9648 14L 56.9648 17L 56.2422 17L 56.2422 12.7734L 56.9453 12.7734L 56.957 13.2617C 57.194 12.8841 57.5299 12.6953 57.9648 12.6953C 58.1055 12.6953 58.2122 12.7135 58.2852 12.75L 58.2852 13.4219ZM 58.6836 14.8477C 58.6836 14.4336 58.7643 14.0612 58.9258 13.7305C 59.0898 13.3997 59.3164 13.1445 59.6055 12.9648C 59.8971 12.7852 60.2292 12.6953 60.6016 12.6953C 61.1771 12.6953 61.6419 12.8945 61.9961 13.293C 62.3529 13.6914 62.5312 14.2214 62.5312 14.8828L 62.5312 14.9336C 62.5312 15.3451 62.4518 15.7148 62.293 16.043C 62.1367 16.3685 61.9115 16.6224 61.6172 16.8047C 61.3255 16.987 60.9896 17.0781 60.6094 17.0781C 60.0365 17.0781 59.5716 16.8789 59.2148 16.4805C 58.8607 16.082 58.6836 15.5547 58.6836 14.8984L 58.6836 14.8477ZM 59.4102 14.9336C 59.4102 15.4023 59.5182 15.7786 59.7344 16.0625C 59.9531 16.3464 60.2448 16.4883 60.6094 16.4883C 60.9766 16.4883 61.2682 16.3451 61.4844 16.0586C 61.7005 15.7695 61.8086 15.3659 61.8086 14.8477C 61.8086 14.3841 61.6979 14.0091 61.4766 13.7227C 61.2578 13.4336 60.9661 13.2891 60.6016 13.2891C 60.2448 13.2891 59.957 13.431 59.7383 13.7148C 59.5195 13.9987 59.4102 14.4049 59.4102 14.9336ZM 67.0078 14.9336C 67.0078 15.5768 66.8607 16.0951 66.5664 16.4883C 66.2721 16.8815 65.8737 17.0781 65.3711 17.0781C 64.8581 17.0781 64.4544 16.9154 64.1602 16.5898L 64.1602 18.625L 63.4375 18.625L 63.4375 12.7734L 64.0977 12.7734L 64.1328 13.2422C 64.4271 12.8776 64.8359 12.6953 65.3594 12.6953C 65.8672 12.6953 66.2682 12.8867 66.5625 13.2695C 66.8594 13.6523 67.0078 14.1849 67.0078 14.8672L 67.0078 14.9336ZM 66.2852 14.8516C 66.2852 14.375 66.1836 13.9987 65.9805 13.7227C 65.7773 13.4466 65.4987 13.3086 65.1445 13.3086C 64.707 13.3086 64.3789 13.5026 64.1602 13.8906L 64.1602 15.9102C 64.3763 16.2956 64.707 16.4883 65.1523 16.4883C 65.4987 16.4883 65.7734 16.3516 65.9766 16.0781C 66.1823 15.8021 66.2852 15.3932 66.2852 14.8516ZM 69.6836 17.0781C 69.1107 17.0781 68.6445 16.8906 68.2852 16.5156C 67.9258 16.138 67.7461 15.6341 67.7461 15.0039L 67.7461 14.8711C 67.7461 14.4518 67.8255 14.0781 67.9844 13.75C 68.1458 13.4193 68.3698 13.1615 68.6562 12.9766C 68.9453 12.7891 69.2578 12.6953 69.5938 12.6953C 70.1432 12.6953 70.5703 12.8763 70.875 13.2383C 71.1797 13.6003 71.332 14.1185 71.332 14.793L 71.332 15.0938L 68.4688 15.0938C 68.4792 15.5104 68.6003 15.8477 68.832 16.1055C 69.0664 16.3607 69.3633 16.4883 69.7227 16.4883C 69.9779 16.4883 70.194 16.4362 70.3711 16.332C 70.5482 16.2279 70.7031 16.0898 70.8359 15.918L 71.2773 16.2617C 70.9232 16.806 70.3919 17.0781 69.6836 17.0781ZM 69.5938 13.2891C 69.3021 13.2891 69.0573 13.3958 68.8594 13.6094C 68.6615 13.8203 68.5391 14.1172 68.4922 14.5L 70.6094 14.5L 70.6094 14.4453C 70.5885 14.0781 70.4896 13.7943 70.3125 13.5938C 70.1354 13.3906 69.8958 13.2891 69.5938 13.2891ZM 69.9453 11L 70.8203 11L 69.7734 12.1484L 69.1914 12.1484L 69.9453 11ZM 73.9258 17.0781C 73.3529 17.0781 72.8867 16.8906 72.5273 16.5156C 72.168 16.138 71.9883 15.6341 71.9883 15.0039L 71.9883 14.8711C 71.9883 14.4518 72.0677 14.0781 72.2266 13.75C 72.388 13.4193 72.612 13.1615 72.8984 12.9766C 73.1875 12.7891 73.5 12.6953 73.8359 12.6953C 74.3854 12.6953 74.8125 12.8763 75.1172 13.2383C 75.4219 13.6003 75.5742 14.1185 75.5742 14.793L 75.5742 15.0938L 72.7109 15.0938C 72.7214 15.5104 72.8424 15.8477 73.0742 16.1055C 73.3086 16.3607 73.6055 16.4883 73.9648 16.4883C 74.2201 16.4883 74.4362 16.4362 74.6133 16.332C 74.7904 16.2279 74.9453 16.0898 75.0781 15.918L 75.5195 16.2617C 75.1654 16.806 74.6341 17.0781 73.9258 17.0781ZM 73.8359 13.2891C 73.5443 13.2891 73.2995 13.3958 73.1016 13.6094C 72.9036 13.8203 72.7812 14.1172 72.7344 14.5L 74.8516 14.5L 74.8516 14.4453C 74.8307 14.0781 74.7318 13.7943 74.5547 13.5938C 74.3776 13.3906 74.138 13.2891 73.8359 13.2891ZM 77.0977 12.7734L 77.1211 13.3047C 77.444 12.8984 77.8659 12.6953 78.3867 12.6953C 79.2799 12.6953 79.7305 13.1992 79.7383 14.207L 79.7383 17L 79.0156 17L 79.0156 14.2031C 79.013 13.8984 78.9427 13.6732 78.8047 13.5273C 78.6693 13.3815 78.457 13.3086 78.168 13.3086C 77.9336 13.3086 77.7279 13.3711 77.5508 13.4961C 77.3737 13.6211 77.2357 13.7852 77.1367 13.9883L 77.1367 17L 76.4141 17L 76.4141 12.7734L 77.0977 12.7734ZM 82.6367 14.8516C 82.6367 14.2031 82.7904 13.6823 83.0977 13.2891C 83.4049 12.8932 83.8073 12.6953 84.3047 12.6953C 84.7995 12.6953 85.1914 12.8646 85.4805 13.2031L 85.4805 11L 86.2031 11L 86.2031 17L 85.5391 17L 85.5039 16.5469C 85.2148 16.901 84.8125 17.0781 84.2969 17.0781C 83.8073 17.0781 83.4076 16.8776 83.0977 16.4766C 82.7904 16.0755 82.6367 15.5521 82.6367 14.9062L 82.6367 14.8516ZM 83.3594 14.9336C 83.3594 15.4128 83.4583 15.7878 83.6562 16.0586C 83.8542 16.3294 84.1276 16.4648 84.4766 16.4648C 84.9349 16.4648 85.2695 16.2591 85.4805 15.8477L 85.4805 13.9062C 85.2643 13.5078 84.9323 13.3086 84.4844 13.3086C 84.1302 13.3086 83.8542 13.4453 83.6562 13.7188C 83.4583 13.9922 83.3594 14.3971 83.3594 14.9336ZM 89.9375 17C 89.8958 16.9167 89.862 16.7682 89.8359 16.5547C 89.5 16.9036 89.099 17.0781 88.6328 17.0781C 88.2161 17.0781 87.8737 16.9609 87.6055 16.7266C 87.3398 16.4896 87.207 16.1901 87.207 15.8281C 87.207 15.388 87.3737 15.0469 87.707 14.8047C 88.043 14.5599 88.5143 14.4375 89.1211 14.4375L 89.8242 14.4375L 89.8242 14.1055C 89.8242 13.8529 89.7487 13.6523 89.5977 13.5039C 89.4466 13.3529 89.224 13.2773 88.9297 13.2773C 88.6719 13.2773 88.4557 13.3424 88.2812 13.4727C 88.1068 13.6029 88.0195 13.7604 88.0195 13.9453L 87.293 13.9453C 87.293 13.7344 87.3672 13.5312 87.5156 13.3359C 87.6667 13.138 87.8698 12.9818 88.125 12.8672C 88.3828 12.7526 88.6654 12.6953 88.9727 12.6953C 89.4596 12.6953 89.8411 12.8177 90.1172 13.0625C 90.3932 13.3047 90.5365 13.6393 90.5469 14.0664L 90.5469 16.0117C 90.5469 16.3997 90.5964 16.7083 90.6953 16.9375L 90.6953 17L 89.9375 17ZM 88.7383 16.4492C 88.9648 16.4492 89.1797 16.3906 89.3828 16.2734C 89.5859 16.1562 89.7331 16.0039 89.8242 15.8164L 89.8242 14.9492L 89.2578 14.9492C 88.3724 14.9492 87.9297 15.2083 87.9297 15.7266C 87.9297 15.9531 88.0052 16.1302 88.1562 16.2578C 88.3073 16.3854 88.5013 16.4492 88.7383 16.4492ZM 92.3633 12.7734L 92.3867 13.3047C 92.7096 12.8984 93.1315 12.6953 93.6523 12.6953C 94.5456 12.6953 94.9961 13.1992 95.0039 14.207L 95.0039 17L 94.2812 17L 94.2812 14.2031C 94.2786 13.8984 94.2083 13.6732 94.0703 13.5273C 93.9349 13.3815 93.7227 13.3086 93.4336 13.3086C 93.1992 13.3086 92.9935 13.3711 92.8164 13.4961C 92.6393 13.6211 92.5013 13.7852 92.4023 13.9883L 92.4023 17L 91.6797 17L 91.6797 12.7734L 92.3633 12.7734ZM 98.5547 15.8789C 98.5547 15.6836 98.4805 15.5326 98.332 15.4258C 98.1862 15.3164 97.9297 15.2227 97.5625 15.1445C 97.1979 15.0664 96.9076 14.9727 96.6914 14.8633C 96.4779 14.7539 96.319 14.6237 96.2148 14.4727C 96.1133 14.3216 96.0625 14.1419 96.0625 13.9336C 96.0625 13.5872 96.2083 13.2943 96.5 13.0547C 96.7943 12.8151 97.1693 12.6953 97.625 12.6953C 98.1042 12.6953 98.4922 12.819 98.7891 13.0664C 99.0885 13.3138 99.2383 13.6302 99.2383 14.0156L 98.5117 14.0156C 98.5117 13.8177 98.4271 13.6471 98.2578 13.5039C 98.0911 13.3607 97.8802 13.2891 97.625 13.2891C 97.362 13.2891 97.1562 13.3464 97.0078 13.4609C 96.8594 13.5755 96.7852 13.7253 96.7852 13.9102C 96.7852 14.0846 96.8542 14.2161 96.9922 14.3047C 97.1302 14.3932 97.3789 14.4779 97.7383 14.5586C 98.1003 14.6393 98.3932 14.7357 98.6172 14.8477C 98.8411 14.9596 99.0065 15.0951 99.1133 15.2539C 99.2227 15.4102 99.2773 15.6016 99.2773 15.8281C 99.2773 16.2057 99.1263 16.5091 98.8242 16.7383C 98.5221 16.9648 98.1302 17.0781 97.6484 17.0781C 97.3099 17.0781 97.0104 17.0182 96.75 16.8984C 96.4896 16.7786 96.2852 16.612 96.1367 16.3984C 95.9909 16.1823 95.918 15.9492 95.918 15.6992L 96.6406 15.6992C 96.6536 15.9414 96.75 16.1341 96.9297 16.2773C 97.112 16.418 97.3516 16.4883 97.6484 16.4883C 97.9219 16.4883 98.1406 16.4336 98.3047 16.3242C 98.4714 16.2122 98.5547 16.0638 98.5547 15.8789ZM 102.988 17L 102.266 17L 102.266 11L 102.988 11L 102.988 17ZM 105.902 17.0781C 105.329 17.0781 104.863 16.8906 104.504 16.5156C 104.145 16.138 103.965 15.6341 103.965 15.0039L 103.965 14.8711C 103.965 14.4518 104.044 14.0781 104.203 13.75C 104.365 13.4193 104.589 13.1615 104.875 12.9766C 105.164 12.7891 105.477 12.6953 105.812 12.6953C 106.362 12.6953 106.789 12.8763 107.094 13.2383C 107.398 13.6003 107.551 14.1185 107.551 14.793L 107.551 15.0938L 104.688 15.0938C 104.698 15.5104 104.819 15.8477 105.051 16.1055C 105.285 16.3607 105.582 16.4883 105.941 16.4883C 106.197 16.4883 106.413 16.4362 106.59 16.332C 106.767 16.2279 106.922 16.0898 107.055 15.918L 107.496 16.2617C 107.142 16.806 106.611 17.0781 105.902 17.0781ZM 105.812 13.2891C 105.521 13.2891 105.276 13.3958 105.078 13.6094C 104.88 13.8203 104.758 14.1172 104.711 14.5L 106.828 14.5L 106.828 14.4453C 106.807 14.0781 106.708 13.7943 106.531 13.5938C 106.354 13.3906 106.115 13.2891 105.812 13.2891ZM 112.07 16.4883C 112.328 16.4883 112.553 16.4102 112.746 16.2539C 112.939 16.0977 113.046 15.9023 113.066 15.668L 113.75 15.668C 113.737 15.9102 113.654 16.1406 113.5 16.3594C 113.346 16.5781 113.141 16.7526 112.883 16.8828C 112.628 17.013 112.357 17.0781 112.07 17.0781C 111.495 17.0781 111.036 16.8867 110.695 16.5039C 110.357 16.1185 110.188 15.5924 110.188 14.9258L 110.188 14.8047C 110.188 14.3932 110.263 14.0273 110.414 13.707C 110.565 13.3867 110.781 13.138 111.062 12.9609C 111.346 12.7839 111.681 12.6953 112.066 12.6953C 112.54 12.6953 112.934 12.8372 113.246 13.1211C 113.561 13.4049 113.729 13.7734 113.75 14.2266L 113.066 14.2266C 113.046 13.9531 112.941 13.7292 112.754 13.5547C 112.569 13.3776 112.34 13.2891 112.066 13.2891C 111.699 13.2891 111.414 13.4219 111.211 13.6875C 111.01 13.9505 110.91 14.332 110.91 14.832L 110.91 14.9688C 110.91 15.4557 111.01 15.8307 111.211 16.0938C 111.411 16.3568 111.698 16.4883 112.07 16.4883ZM 117.172 17C 117.13 16.9167 117.096 16.7682 117.07 16.5547C 116.734 16.9036 116.333 17.0781 115.867 17.0781C 115.451 17.0781 115.108 16.9609 114.84 16.7266C 114.574 16.4896 114.441 16.1901 114.441 15.8281C 114.441 15.388 114.608 15.0469 114.941 14.8047C 115.277 14.5599 115.749 14.4375 116.355 14.4375L 117.059 14.4375L 117.059 14.1055C 117.059 13.8529 116.983 13.6523 116.832 13.5039C 116.681 13.3529 116.458 13.2773 116.164 13.2773C 115.906 13.2773 115.69 13.3424 115.516 13.4727C 115.341 13.6029 115.254 13.7604 115.254 13.9453L 114.527 13.9453C 114.527 13.7344 114.602 13.5312 114.75 13.3359C 114.901 13.138 115.104 12.9818 115.359 12.8672C 115.617 12.7526 115.9 12.6953 116.207 12.6953C 116.694 12.6953 117.076 12.8177 117.352 13.0625C 117.628 13.3047 117.771 13.6393 117.781 14.0664L 117.781 16.0117C 117.781 16.3997 117.831 16.7083 117.93 16.9375L 117.93 17L 117.172 17ZM 115.973 16.4492C 116.199 16.4492 116.414 16.3906 116.617 16.2734C 116.82 16.1562 116.967 16.0039 117.059 15.8164L 117.059 14.9492L 116.492 14.9492C 115.607 14.9492 115.164 15.2083 115.164 15.7266C 115.164 15.9531 115.24 16.1302 115.391 16.2578C 115.542 16.3854 115.736 16.4492 115.973 16.4492ZM 118.738 14.8516C 118.738 14.2031 118.892 13.6823 119.199 13.2891C 119.507 12.8932 119.909 12.6953 120.406 12.6953C 120.901 12.6953 121.293 12.8646 121.582 13.2031L 121.582 11L 122.305 11L 122.305 17L 121.641 17L 121.605 16.5469C 121.316 16.901 120.914 17.0781 120.398 17.0781C 119.909 17.0781 119.509 16.8776 119.199 16.4766C 118.892 16.0755 118.738 15.5521 118.738 14.9062L 118.738 14.8516ZM 119.461 14.9336C 119.461 15.4128 119.56 15.7878 119.758 16.0586C 119.956 16.3294 120.229 16.4648 120.578 16.4648C 121.036 16.4648 121.371 16.2591 121.582 15.8477L 121.582 13.9062C 121.366 13.5078 121.034 13.3086 120.586 13.3086C 120.232 13.3086 119.956 13.4453 119.758 13.7188C 119.56 13.9922 119.461 14.3971 119.461 14.9336ZM 125.473 13.4219C 125.363 13.4036 125.245 13.3945 125.117 13.3945C 124.643 13.3945 124.322 13.5964 124.152 14L 124.152 17L 123.43 17L 123.43 12.7734L 124.133 12.7734L 124.145 13.2617C 124.382 12.8841 124.717 12.6953 125.152 12.6953C 125.293 12.6953 125.4 12.7135 125.473 12.75L 125.473 13.4219ZM 127.816 17.0781C 127.243 17.0781 126.777 16.8906 126.418 16.5156C 126.059 16.138 125.879 15.6341 125.879 15.0039L 125.879 14.8711C 125.879 14.4518 125.958 14.0781 126.117 13.75C 126.279 13.4193 126.503 13.1615 126.789 12.9766C 127.078 12.7891 127.391 12.6953 127.727 12.6953C 128.276 12.6953 128.703 12.8763 129.008 13.2383C 129.312 13.6003 129.465 14.1185 129.465 14.793L 129.465 15.0938L 126.602 15.0938C 126.612 15.5104 126.733 15.8477 126.965 16.1055C 127.199 16.3607 127.496 16.4883 127.855 16.4883C 128.111 16.4883 128.327 16.4362 128.504 16.332C 128.681 16.2279 128.836 16.0898 128.969 15.918L 129.41 16.2617C 129.056 16.806 128.525 17.0781 127.816 17.0781ZM 127.727 13.2891C 127.435 13.2891 127.19 13.3958 126.992 13.6094C 126.794 13.8203 126.672 14.1172 126.625 14.5L 128.742 14.5L 128.742 14.4453C 128.721 14.0781 128.622 13.7943 128.445 13.5938C 128.268 13.3906 128.029 13.2891 127.727 13.2891ZM 0.371094 23.8516C 0.371094 23.2031 0.52474 22.6823 0.832031 22.2891C 1.13932 21.8932 1.54167 21.6953 2.03906 21.6953C 2.53385 21.6953 2.92578 21.8646 3.21484 22.2031L 3.21484 20L 3.9375 20L 3.9375 26L 3.27344 26L 3.23828 25.5469C 2.94922 25.901 2.54688 26.0781 2.03125 26.0781C 1.54167 26.0781 1.14193 25.8776 0.832031 25.4766C 0.52474 25.0755 0.371094 24.5521 0.371094 23.9062L 0.371094 23.8516ZM 1.09375 23.9336C 1.09375 24.4128 1.19271 24.7878 1.39062 25.0586C 1.58854 25.3294 1.86198 25.4648 2.21094 25.4648C 2.66927 25.4648 3.00391 25.2591 3.21484 24.8477L 3.21484 22.9062C 2.9987 22.5078 2.66667 22.3086 2.21875 22.3086C 1.86458 22.3086 1.58854 22.4453 1.39062 22.7188C 1.19271 22.9922 1.09375 23.3971 1.09375 23.9336ZM 7.67188 25.582C 7.39062 25.9128 6.97786 26.0781 6.43359 26.0781C 5.98307 26.0781 5.63932 25.9479 5.40234 25.6875C 5.16797 25.4245 5.04948 25.0365 5.04688 24.5234L 5.04688 21.7734L 5.76953 21.7734L 5.76953 24.5039C 5.76953 25.1445 6.02995 25.4648 6.55078 25.4648C 7.10286 25.4648 7.47005 25.2591 7.65234 24.8477L 7.65234 21.7734L 8.375 21.7734L 8.375 26L 7.6875 26L 7.67188 25.582ZM 12.3242 23.7734L 12.3242 26L 11.5742 26L 11.5742 20.3125L 13.6719 20.3125C 14.2943 20.3125 14.7812 20.4714 15.1328 20.7891C 15.487 21.1068 15.6641 21.5273 15.6641 22.0508C 15.6641 22.6029 15.4909 23.0286 15.1445 23.3281C 14.8008 23.625 14.3073 23.7734 13.6641 23.7734L 12.3242 23.7734ZM 12.3242 23.1602L 13.6719 23.1602C 14.0729 23.1602 14.3802 23.0664 14.5938 22.8789C 14.8073 22.6888 14.9141 22.4154 14.9141 22.0586C 14.9141 21.7201 14.8073 21.4492 14.5938 21.2461C 14.3802 21.043 14.0872 20.9375 13.7148 20.9297L 12.3242 20.9297L 12.3242 23.1602ZM 18.5508 22.4219C 18.4414 22.4036 18.3229 22.3945 18.1953 22.3945C 17.7214 22.3945 17.3997 22.5964 17.2305 23L 17.2305 26L 16.5078 26L 16.5078 21.7734L 17.2109 21.7734L 17.2227 22.2617C 17.4596 21.8841 17.7956 21.6953 18.2305 21.6953C 18.3711 21.6953 18.4779 21.7135 18.5508 21.75L 18.5508 22.4219ZM 18.9492 23.8477C 18.9492 23.4336 19.0299 23.0612 19.1914 22.7305C 19.3555 22.3997 19.582 22.1445 19.8711 21.9648C 20.1628 21.7852 20.4948 21.6953 20.8672 21.6953C 21.4427 21.6953 21.9076 21.8945 22.2617 22.293C 22.6185 22.6914 22.7969 23.2214 22.7969 23.8828L 22.7969 23.9336C 22.7969 24.3451 22.7174 24.7148 22.5586 25.043C 22.4023 25.3685 22.1771 25.6224 21.8828 25.8047C 21.5911 25.987 21.2552 26.0781 20.875 26.0781C 20.3021 26.0781 19.8372 25.8789 19.4805 25.4805C 19.1263 25.082 18.9492 24.5547 18.9492 23.8984L 18.9492 23.8477ZM 19.6758 23.9336C 19.6758 24.4023 19.7839 24.7786 20 25.0625C 20.2188 25.3464 20.5104 25.4883 20.875 25.4883C 21.2422 25.4883 21.5339 25.3451 21.75 25.0586C 21.9661 24.7695 22.0742 24.3659 22.0742 23.8477C 22.0742 23.3841 21.9635 23.0091 21.7422 22.7227C 21.5234 22.4336 21.2318 22.2891 20.8672 22.2891C 20.5104 22.2891 20.2227 22.431 20.0039 22.7148C 19.7852 22.9987 19.6758 23.4049 19.6758 23.9336ZM 23.5312 23.8516C 23.5312 23.1927 23.6836 22.6693 23.9883 22.2812C 24.293 21.8906 24.6966 21.6953 25.1992 21.6953C 25.7148 21.6953 26.1172 21.8776 26.4062 22.2422L 26.4414 21.7734L 27.1016 21.7734L 27.1016 25.8984C 27.1016 26.4453 26.9388 26.8763 26.6133 27.1914C 26.2904 27.5065 25.8555 27.6641 25.3086 27.6641C 25.0039 27.6641 24.7057 27.599 24.4141 27.4688C 24.1224 27.3385 23.8997 27.1602 23.7461 26.9336L 24.1211 26.5C 24.431 26.8828 24.8099 27.0742 25.2578 27.0742C 25.6094 27.0742 25.8828 26.9753 26.0781 26.7773C 26.276 26.5794 26.375 26.3008 26.375 25.9414L 26.375 25.5781C 26.0859 25.9115 25.6914 26.0781 25.1914 26.0781C 24.6966 26.0781 24.2956 25.8789 23.9883 25.4805C 23.6836 25.082 23.5312 24.5391 23.5312 23.8516ZM 24.2578 23.9336C 24.2578 24.4102 24.3555 24.7852 24.5508 25.0586C 24.7461 25.3294 25.0195 25.4648 25.3711 25.4648C 25.8268 25.4648 26.1615 25.2578 26.375 24.8438L 26.375 22.9141C 26.1536 22.5104 25.8216 22.3086 25.3789 22.3086C 25.0273 22.3086 24.7526 22.4453 24.5547 22.7188C 24.3568 22.9922 24.2578 23.3971 24.2578 23.9336ZM 30.2383 22.4219C 30.1289 22.4036 30.0104 22.3945 29.8828 22.3945C 29.4089 22.3945 29.0872 22.5964 28.918 23L 28.918 26L 28.1953 26L 28.1953 21.7734L 28.8984 21.7734L 28.9102 22.2617C 29.1471 21.8841 29.4831 21.6953 29.918 21.6953C 30.0586 21.6953 30.1654 21.7135 30.2383 21.75L 30.2383 22.4219ZM 33.3594 26C 33.3177 25.9167 33.2839 25.7682 33.2578 25.5547C 32.9219 25.9036 32.5208 26.0781 32.0547 26.0781C 31.638 26.0781 31.2956 25.9609 31.0273 25.7266C 30.7617 25.4896 30.6289 25.1901 30.6289 24.8281C 30.6289 24.388 30.7956 24.0469 31.1289 23.8047C 31.4648 23.5599 31.9362 23.4375 32.543 23.4375L 33.2461 23.4375L 33.2461 23.1055C 33.2461 22.8529 33.1706 22.6523 33.0195 22.5039C 32.8685 22.3529 32.6458 22.2773 32.3516 22.2773C 32.0938 22.2773 31.8776 22.3424 31.7031 22.4727C 31.5286 22.6029 31.4414 22.7604 31.4414 22.9453L 30.7148 22.9453C 30.7148 22.7344 30.7891 22.5312 30.9375 22.3359C 31.0885 22.138 31.2917 21.9818 31.5469 21.8672C 31.8047 21.7526 32.0872 21.6953 32.3945 21.6953C 32.8815 21.6953 33.263 21.8177 33.5391 22.0625C 33.8151 22.3047 33.9583 22.6393 33.9688 23.0664L 33.9688 25.0117C 33.9688 25.3997 34.0182 25.7083 34.1172 25.9375L 34.1172 26L 33.3594 26ZM 32.1602 25.4492C 32.3867 25.4492 32.6016 25.3906 32.8047 25.2734C 33.0078 25.1562 33.1549 25.0039 33.2461 24.8164L 33.2461 23.9492L 32.6797 23.9492C 31.7943 23.9492 31.3516 24.2083 31.3516 24.7266C 31.3516 24.9531 31.4271 25.1302 31.5781 25.2578C 31.7292 25.3854 31.9232 25.4492 32.1602 25.4492ZM 35.7812 21.7734L 35.8008 22.2422C 36.1107 21.8776 36.5286 21.6953 37.0547 21.6953C 37.6458 21.6953 38.0482 21.9219 38.2617 22.375C 38.4023 22.1719 38.5846 22.0078 38.8086 21.8828C 39.0352 21.7578 39.3021 21.6953 39.6094 21.6953C 40.5365 21.6953 41.0078 22.1862 41.0234 23.168L 41.0234 26L 40.3008 26L 40.3008 23.2109C 40.3008 22.9089 40.2318 22.6836 40.0938 22.5352C 39.9557 22.3841 39.724 22.3086 39.3984 22.3086C 39.1302 22.3086 38.9076 22.3893 38.7305 22.5508C 38.5534 22.7096 38.4505 22.9245 38.4219 23.1953L 38.4219 26L 37.6953 26L 37.6953 23.2305C 37.6953 22.6159 37.3945 22.3086 36.793 22.3086C 36.319 22.3086 35.9948 22.5104 35.8203 22.9141L 35.8203 26L 35.0977 26L 35.0977 21.7734L 35.7812 21.7734ZM 42.7969 21.7734L 42.8164 22.2422C 43.1263 21.8776 43.5443 21.6953 44.0703 21.6953C 44.6615 21.6953 45.0638 21.9219 45.2773 22.375C 45.418 22.1719 45.6003 22.0078 45.8242 21.8828C 46.0508 21.7578 46.3177 21.6953 46.625 21.6953C 47.5521 21.6953 48.0234 22.1862 48.0391 23.168L 48.0391 26L 47.3164 26L 47.3164 23.2109C 47.3164 22.9089 47.2474 22.6836 47.1094 22.5352C 46.9714 22.3841 46.7396 22.3086 46.4141 22.3086C 46.1458 22.3086 45.9232 22.3893 45.7461 22.5508C 45.569 22.7096 45.4661 22.9245 45.4375 23.1953L 45.4375 26L 44.7109 26L 44.7109 23.2305C 44.7109 22.6159 44.4102 22.3086 43.8086 22.3086C 43.3346 22.3086 43.0104 22.5104 42.8359 22.9141L 42.8359 26L 42.1133 26L 42.1133 21.7734L 42.7969 21.7734ZM 50.8867 26.0781C 50.3138 26.0781 49.8477 25.8906 49.4883 25.5156C 49.1289 25.138 48.9492 24.6341 48.9492 24.0039L 48.9492 23.8711C 48.9492 23.4518 49.0286 23.0781 49.1875 22.75C 49.349 22.4193 49.5729 22.1615 49.8594 21.9766C 50.1484 21.7891 50.4609 21.6953 50.7969 21.6953C 51.3464 21.6953 51.7734 21.8763 52.0781 22.2383C 52.3828 22.6003 52.5352 23.1185 52.5352 23.793L 52.5352 24.0938L 49.6719 24.0938C 49.6823 24.5104 49.8034 24.8477 50.0352 25.1055C 50.2695 25.3607 50.5664 25.4883 50.9258 25.4883C 51.181 25.4883 51.3971 25.4362 51.5742 25.332C 51.7513 25.2279 51.9062 25.0898 52.0391 24.918L 52.4805 25.2617C 52.1263 25.806 51.5951 26.0781 50.8867 26.0781ZM 50.7969 22.2891C 50.5052 22.2891 50.2604 22.3958 50.0625 22.6094C 49.8646 22.8203 49.7422 23.1172 49.6953 23.5L 51.8125 23.5L 51.8125 23.4453C 51.7917 23.0781 51.6927 22.7943 51.5156 22.5938C 51.3385 22.3906 51.099 22.2891 50.7969 22.2891ZM 55.168 23.8477C 55.168 23.4336 55.2487 23.0612 55.4102 22.7305C 55.5742 22.3997 55.8008 22.1445 56.0898 21.9648C 56.3815 21.7852 56.7135 21.6953 57.0859 21.6953C 57.6615 21.6953 58.1263 21.8945 58.4805 22.293C 58.8372 22.6914 59.0156 23.2214 59.0156 23.8828L 59.0156 23.9336C 59.0156 24.3451 58.9362 24.7148 58.7773 25.043C 58.6211 25.3685 58.3958 25.6224 58.1016 25.8047C 57.8099 25.987 57.474 26.0781 57.0938 26.0781C 56.5208 26.0781 56.056 25.8789 55.6992 25.4805C 55.3451 25.082 55.168 24.5547 55.168 23.8984L 55.168 23.8477ZM 55.8945 23.9336C 55.8945 24.4023 56.0026 24.7786 56.2188 25.0625C 56.4375 25.3464 56.7292 25.4883 57.0938 25.4883C 57.4609 25.4883 57.7526 25.3451 57.9688 25.0586C 58.1849 24.7695 58.293 24.3659 58.293 23.8477C 58.293 23.3841 58.1823 23.0091 57.9609 22.7227C 57.7422 22.4336 57.4505 22.2891 57.0859 22.2891C 56.7292 22.2891 56.4414 22.431 56.2227 22.7148C 56.0039 22.9987 55.8945 23.4049 55.8945 23.9336ZM 63.4922 23.9336C 63.4922 24.5768 63.3451 25.0951 63.0508 25.4883C 62.7565 25.8815 62.3581 26.0781 61.8555 26.0781C 61.3424 26.0781 60.9388 25.9154 60.6445 25.5898L 60.6445 27.625L 59.9219 27.625L 59.9219 21.7734L 60.582 21.7734L 60.6172 22.2422C 60.9115 21.8776 61.3203 21.6953 61.8438 21.6953C 62.3516 21.6953 62.7526 21.8867 63.0469 22.2695C 63.3438 22.6523 63.4922 23.1849 63.4922 23.8672L 63.4922 23.9336ZM 62.7695 23.8516C 62.7695 23.375 62.668 22.9987 62.4648 22.7227C 62.2617 22.4466 61.9831 22.3086 61.6289 22.3086C 61.1914 22.3086 60.8633 22.5026 60.6445 22.8906L 60.6445 24.9102C 60.8607 25.2956 61.1914 25.4883 61.6367 25.4883C 61.9831 25.4883 62.2578 25.3516 62.4609 25.0781C 62.6667 24.8021 62.7695 24.3932 62.7695 23.8516ZM 66.168 26.0781C 65.5951 26.0781 65.1289 25.8906 64.7695 25.5156C 64.4102 25.138 64.2305 24.6341 64.2305 24.0039L 64.2305 23.8711C 64.2305 23.4518 64.3099 23.0781 64.4688 22.75C 64.6302 22.4193 64.8542 22.1615 65.1406 21.9766C 65.4297 21.7891 65.7422 21.6953 66.0781 21.6953C 66.6276 21.6953 67.0547 21.8763 67.3594 22.2383C 67.6641 22.6003 67.8164 23.1185 67.8164 23.793L 67.8164 24.0938L 64.9531 24.0938C 64.9635 24.5104 65.0846 24.8477 65.3164 25.1055C 65.5508 25.3607 65.8477 25.4883 66.207 25.4883C 66.4622 25.4883 66.6784 25.4362 66.8555 25.332C 67.0326 25.2279 67.1875 25.0898 67.3203 24.918L 67.7617 25.2617C 67.4076 25.806 66.8763 26.0781 66.168 26.0781ZM 66.0781 22.2891C 65.7865 22.2891 65.5417 22.3958 65.3438 22.6094C 65.1458 22.8203 65.0234 23.1172 64.9766 23.5L 67.0938 23.5L 67.0938 23.4453C 67.0729 23.0781 66.974 22.7943 66.7969 22.5938C 66.6198 22.3906 66.3802 22.2891 66.0781 22.2891ZM 66.4297 20L 67.3047 20L 66.2578 21.1484L 65.6758 21.1484L 66.4297 20ZM 70.6992 22.4219C 70.5898 22.4036 70.4714 22.3945 70.3438 22.3945C 69.8698 22.3945 69.5482 22.5964 69.3789 23L 69.3789 26L 68.6562 26L 68.6562 21.7734L 69.3594 21.7734L 69.3711 22.2617C 69.6081 21.8841 69.944 21.6953 70.3789 21.6953C 70.5195 21.6953 70.6263 21.7135 70.6992 21.75L 70.6992 22.4219ZM 73.8203 26C 73.7786 25.9167 73.7448 25.7682 73.7188 25.5547C 73.3828 25.9036 72.9818 26.0781 72.5156 26.0781C 72.099 26.0781 71.7565 25.9609 71.4883 25.7266C 71.2227 25.4896 71.0898 25.1901 71.0898 24.8281C 71.0898 24.388 71.2565 24.0469 71.5898 23.8047C 71.9258 23.5599 72.3971 23.4375 73.0039 23.4375L 73.707 23.4375L 73.707 23.1055C 73.707 22.8529 73.6315 22.6523 73.4805 22.5039C 73.3294 22.3529 73.1068 22.2773 72.8125 22.2773C 72.5547 22.2773 72.3385 22.3424 72.1641 22.4727C 71.9896 22.6029 71.9023 22.7604 71.9023 22.9453L 71.1758 22.9453C 71.1758 22.7344 71.25 22.5312 71.3984 22.3359C 71.5495 22.138 71.7526 21.9818 72.0078 21.8672C 72.2656 21.7526 72.5482 21.6953 72.8555 21.6953C 73.3424 21.6953 73.724 21.8177 74 22.0625C 74.276 22.3047 74.4193 22.6393 74.4297 23.0664L 74.4297 25.0117C 74.4297 25.3997 74.4792 25.7083 74.5781 25.9375L 74.5781 26L 73.8203 26ZM 72.6211 25.4492C 72.8477 25.4492 73.0625 25.3906 73.2656 25.2734C 73.4688 25.1562 73.6159 25.0039 73.707 24.8164L 73.707 23.9492L 73.1406 23.9492C 72.2552 23.9492 71.8125 24.2083 71.8125 24.7266C 71.8125 24.9531 71.888 25.1302 72.0391 25.2578C 72.1901 25.3854 72.3841 25.4492 72.6211 25.4492ZM 76.543 20.75L 76.543 21.7734L 77.332 21.7734L 77.332 22.332L 76.543 22.332L 76.543 24.9531C 76.543 25.1224 76.5781 25.25 76.6484 25.3359C 76.7188 25.4193 76.8385 25.4609 77.0078 25.4609C 77.0911 25.4609 77.2057 25.4453 77.3516 25.4141L 77.3516 26C 77.1615 26.0521 76.9766 26.0781 76.7969 26.0781C 76.474 26.0781 76.2305 25.9805 76.0664 25.7852C 75.9023 25.5898 75.8203 25.3125 75.8203 24.9531L 75.8203 22.332L 75.0508 22.332L 75.0508 21.7734L 75.8203 21.7734L 75.8203 20.75L 76.543 20.75ZM 78.9648 26L 78.2422 26L 78.2422 21.7734L 78.9648 21.7734L 78.9648 26ZM 78.1836 20.6523C 78.1836 20.5352 78.2188 20.4362 78.2891 20.3555C 78.362 20.2747 78.4688 20.2344 78.6094 20.2344C 78.75 20.2344 78.8568 20.2747 78.9297 20.3555C 79.0026 20.4362 79.0391 20.5352 79.0391 20.6523C 79.0391 20.7695 79.0026 20.8672 78.9297 20.9453C 78.8568 21.0234 78.75 21.0625 78.6094 21.0625C 78.4688 21.0625 78.362 21.0234 78.2891 20.9453C 78.2188 20.8672 78.1836 20.7695 78.1836 20.6523ZM 79.9336 23.8477C 79.9336 23.4336 80.0143 23.0612 80.1758 22.7305C 80.3398 22.3997 80.5664 22.1445 80.8555 21.9648C 81.1471 21.7852 81.4792 21.6953 81.8516 21.6953C 82.4271 21.6953 82.8919 21.8945 83.2461 22.293C 83.6029 22.6914 83.7812 23.2214 83.7812 23.8828L 83.7812 23.9336C 83.7812 24.3451 83.7018 24.7148 83.543 25.043C 83.3867 25.3685 83.1615 25.6224 82.8672 25.8047C 82.5755 25.987 82.2396 26.0781 81.8594 26.0781C 81.2865 26.0781 80.8216 25.8789 80.4648 25.4805C 80.1107 25.082 79.9336 24.5547 79.9336 23.8984L 79.9336 23.8477ZM 80.6602 23.9336C 80.6602 24.4023 80.7682 24.7786 80.9844 25.0625C 81.2031 25.3464 81.4948 25.4883 81.8594 25.4883C 82.2266 25.4883 82.5182 25.3451 82.7344 25.0586C 82.9505 24.7695 83.0586 24.3659 83.0586 23.8477C 83.0586 23.3841 82.9479 23.0091 82.7266 22.7227C 82.5078 22.4336 82.2161 22.2891 81.8516 22.2891C 81.4948 22.2891 81.207 22.431 80.9883 22.7148C 80.7695 22.9987 80.6602 23.4049 80.6602 23.9336ZM 85.3711 21.7734L 85.3945 22.3047C 85.7174 21.8984 86.1393 21.6953 86.6602 21.6953C 87.5534 21.6953 88.0039 22.1992 88.0117 23.207L 88.0117 26L 87.2891 26L 87.2891 23.2031C 87.2865 22.8984 87.2161 22.6732 87.0781 22.5273C 86.9427 22.3815 86.7305 22.3086 86.4414 22.3086C 86.207 22.3086 86.0013 22.3711 85.8242 22.4961C 85.6471 22.6211 85.5091 22.7852 85.4102 22.9883L 85.4102 26L 84.6875 26L 84.6875 21.7734L 85.3711 21.7734ZM 89.7852 21.7734L 89.8086 22.3047C 90.1315 21.8984 90.5534 21.6953 91.0742 21.6953C 91.9674 21.6953 92.418 22.1992 92.4258 23.207L 92.4258 26L 91.7031 26L 91.7031 23.2031C 91.7005 22.8984 91.6302 22.6732 91.4922 22.5273C 91.3568 22.3815 91.1445 22.3086 90.8555 22.3086C 90.6211 22.3086 90.4154 22.3711 90.2383 22.4961C 90.0612 22.6211 89.9232 22.7852 89.8242 22.9883L 89.8242 26L 89.1016 26L 89.1016 21.7734L 89.7852 21.7734ZM 95.2695 26.0781C 94.6966 26.0781 94.2305 25.8906 93.8711 25.5156C 93.5117 25.138 93.332 24.6341 93.332 24.0039L 93.332 23.8711C 93.332 23.4518 93.4115 23.0781 93.5703 22.75C 93.7318 22.4193 93.9557 22.1615 94.2422 21.9766C 94.5312 21.7891 94.8438 21.6953 95.1797 21.6953C 95.7292 21.6953 96.1562 21.8763 96.4609 22.2383C 96.7656 22.6003 96.918 23.1185 96.918 23.793L 96.918 24.0938L 94.0547 24.0938C 94.0651 24.5104 94.1862 24.8477 94.418 25.1055C 94.6523 25.3607 94.9492 25.4883 95.3086 25.4883C 95.5638 25.4883 95.7799 25.4362 95.957 25.332C 96.1341 25.2279 96.2891 25.0898 96.4219 24.918L 96.8633 25.2617C 96.5091 25.806 95.9779 26.0781 95.2695 26.0781ZM 95.1797 22.2891C 94.888 22.2891 94.6432 22.3958 94.4453 22.6094C 94.2474 22.8203 94.125 23.1172 94.0781 23.5L 96.1953 23.5L 96.1953 23.4453C 96.1745 23.0781 96.0755 22.7943 95.8984 22.5938C 95.7214 22.3906 95.4818 22.2891 95.1797 22.2891ZM 98.543 26L 97.8203 26L 97.8203 20L 98.543 20L 98.543 26ZM 102.371 21.7734L 102.395 22.3047C 102.717 21.8984 103.139 21.6953 103.66 21.6953C 104.553 21.6953 105.004 22.1992 105.012 23.207L 105.012 26L 104.289 26L 104.289 23.2031C 104.286 22.8984 104.216 22.6732 104.078 22.5273C 103.943 22.3815 103.73 22.3086 103.441 22.3086C 103.207 22.3086 103.001 22.3711 102.824 22.4961C 102.647 22.6211 102.509 22.7852 102.41 22.9883L 102.41 26L 101.688 26L 101.688 21.7734L 102.371 21.7734ZM 108.711 26C 108.669 25.9167 108.635 25.7682 108.609 25.5547C 108.273 25.9036 107.872 26.0781 107.406 26.0781C 106.99 26.0781 106.647 25.9609 106.379 25.7266C 106.113 25.4896 105.98 25.1901 105.98 24.8281C 105.98 24.388 106.147 24.0469 106.48 23.8047C 106.816 23.5599 107.288 23.4375 107.895 23.4375L 108.598 23.4375L 108.598 23.1055C 108.598 22.8529 108.522 22.6523 108.371 22.5039C 108.22 22.3529 107.997 22.2773 107.703 22.2773C 107.445 22.2773 107.229 22.3424 107.055 22.4727C 106.88 22.6029 106.793 22.7604 106.793 22.9453L 106.066 22.9453C 106.066 22.7344 106.141 22.5312 106.289 22.3359C 106.44 22.138 106.643 21.9818 106.898 21.8672C 107.156 21.7526 107.439 21.6953 107.746 21.6953C 108.233 21.6953 108.615 21.8177 108.891 22.0625C 109.167 22.3047 109.31 22.6393 109.32 23.0664L 109.32 25.0117C 109.32 25.3997 109.37 25.7083 109.469 25.9375L 109.469 26L 108.711 26ZM 107.512 25.4492C 107.738 25.4492 107.953 25.3906 108.156 25.2734C 108.359 25.1562 108.507 25.0039 108.598 24.8164L 108.598 23.9492L 108.031 23.9492C 107.146 23.9492 106.703 24.2083 106.703 24.7266C 106.703 24.9531 106.779 25.1302 106.93 25.2578C 107.081 25.3854 107.275 25.4492 107.512 25.4492ZM 111.434 20.75L 111.434 21.7734L 112.223 21.7734L 112.223 22.332L 111.434 22.332L 111.434 24.9531C 111.434 25.1224 111.469 25.25 111.539 25.3359C 111.609 25.4193 111.729 25.4609 111.898 25.4609C 111.982 25.4609 112.096 25.4453 112.242 25.4141L 112.242 26C 112.052 26.0521 111.867 26.0781 111.688 26.0781C 111.365 26.0781 111.121 25.9805 110.957 25.7852C 110.793 25.5898 110.711 25.3125 110.711 24.9531L 110.711 22.332L 109.941 22.332L 109.941 21.7734L 110.711 21.7734L 110.711 20.75L 111.434 20.75ZM 113.855 26L 113.133 26L 113.133 21.7734L 113.855 21.7734L 113.855 26ZM 113.074 20.6523C 113.074 20.5352 113.109 20.4362 113.18 20.3555C 113.253 20.2747 113.359 20.2344 113.5 20.2344C 113.641 20.2344 113.747 20.2747 113.82 20.3555C 113.893 20.4362 113.93 20.5352 113.93 20.6523C 113.93 20.7695 113.893 20.8672 113.82 20.9453C 113.747 21.0234 113.641 21.0625 113.5 21.0625C 113.359 21.0625 113.253 21.0234 113.18 20.9453C 113.109 20.8672 113.074 20.7695 113.074 20.6523ZM 114.824 23.8477C 114.824 23.4336 114.905 23.0612 115.066 22.7305C 115.23 22.3997 115.457 22.1445 115.746 21.9648C 116.038 21.7852 116.37 21.6953 116.742 21.6953C 117.318 21.6953 117.783 21.8945 118.137 22.293C 118.493 22.6914 118.672 23.2214 118.672 23.8828L 118.672 23.9336C 118.672 24.3451 118.592 24.7148 118.434 25.043C 118.277 25.3685 118.052 25.6224 117.758 25.8047C 117.466 25.987 117.13 26.0781 116.75 26.0781C 116.177 26.0781 115.712 25.8789 115.355 25.4805C 115.001 25.082 114.824 24.5547 114.824 23.8984L 114.824 23.8477ZM 115.551 23.9336C 115.551 24.4023 115.659 24.7786 115.875 25.0625C 116.094 25.3464 116.385 25.4883 116.75 25.4883C 117.117 25.4883 117.409 25.3451 117.625 25.0586C 117.841 24.7695 117.949 24.3659 117.949 23.8477C 117.949 23.3841 117.839 23.0091 117.617 22.7227C 117.398 22.4336 117.107 22.2891 116.742 22.2891C 116.385 22.2891 116.098 22.431 115.879 22.7148C 115.66 22.9987 115.551 23.4049 115.551 23.9336ZM 120.262 21.7734L 120.285 22.3047C 120.608 21.8984 121.03 21.6953 121.551 21.6953C 122.444 21.6953 122.895 22.1992 122.902 23.207L 122.902 26L 122.18 26L 122.18 23.2031C 122.177 22.8984 122.107 22.6732 121.969 22.5273C 121.833 22.3815 121.621 22.3086 121.332 22.3086C 121.098 22.3086 120.892 22.3711 120.715 22.4961C 120.538 22.6211 120.4 22.7852 120.301 22.9883L 120.301 26L 119.578 26L 119.578 21.7734L 120.262 21.7734ZM 126.602 26C 126.56 25.9167 126.526 25.7682 126.5 25.5547C 126.164 25.9036 125.763 26.0781 125.297 26.0781C 124.88 26.0781 124.538 25.9609 124.27 25.7266C 124.004 25.4896 123.871 25.1901 123.871 24.8281C 123.871 24.388 124.038 24.0469 124.371 23.8047C 124.707 23.5599 125.178 23.4375 125.785 23.4375L 126.488 23.4375L 126.488 23.1055C 126.488 22.8529 126.413 22.6523 126.262 22.5039C 126.111 22.3529 125.888 22.2773 125.594 22.2773C 125.336 22.2773 125.12 22.3424 124.945 22.4727C 124.771 22.6029 124.684 22.7604 124.684 22.9453L 123.957 22.9453C 123.957 22.7344 124.031 22.5312 124.18 22.3359C 124.331 22.138 124.534 21.9818 124.789 21.8672C 125.047 21.7526 125.329 21.6953 125.637 21.6953C 126.124 21.6953 126.505 21.8177 126.781 22.0625C 127.057 22.3047 127.201 22.6393 127.211 23.0664L 127.211 25.0117C 127.211 25.3997 127.26 25.7083 127.359 25.9375L 127.359 26L 126.602 26ZM 125.402 25.4492C 125.629 25.4492 125.844 25.3906 126.047 25.2734C 126.25 25.1562 126.397 25.0039 126.488 24.8164L 126.488 23.9492L 125.922 23.9492C 125.036 23.9492 124.594 24.2083 124.594 24.7266C 124.594 24.9531 124.669 25.1302 124.82 25.2578C 124.971 25.3854 125.165 25.4492 125.402 25.4492ZM 129.129 26L 128.406 26L 128.406 20L 129.129 20L 129.129 26ZM 1.09375 33.8594L 2.10156 35.4102L 1.55078 35.4102L 0.398438 33.8945L 0.398438 33.8203L 1.55078 32.3008L 2.10156 32.3008L 1.09375 33.8594ZM 2.38281 33.8594L 3.39062 35.4102L 2.83984 35.4102L 1.6875 33.8945L 1.6875 33.8203L 2.83984 32.3008L 3.39062 32.3008L 2.38281 33.8594ZM 9.61719 33.3711L 7.15234 33.3711L 7.15234 35.3867L 10.0156 35.3867L 10.0156 36L 6.40234 36L 6.40234 30.3125L 9.97656 30.3125L 9.97656 30.9297L 7.15234 30.9297L 7.15234 32.7578L 9.61719 32.7578L 9.61719 33.3711ZM 11.5156 31.7734L 11.5352 32.2422C 11.8451 31.8776 12.263 31.6953 12.7891 31.6953C 13.3802 31.6953 13.7826 31.9219 13.9961 32.375C 14.1367 32.1719 14.319 32.0078 14.543 31.8828C 14.7695 31.7578 15.0365 31.6953 15.3438 31.6953C 16.2708 31.6953 16.7422 32.1862 16.7578 33.168L 16.7578 36L 16.0352 36L 16.0352 33.2109C 16.0352 32.9089 15.9661 32.6836 15.8281 32.5352C 15.6901 32.3841 15.4583 32.3086 15.1328 32.3086C 14.8646 32.3086 14.6419 32.3893 14.4648 32.5508C 14.2878 32.7096 14.1849 32.9245 14.1562 33.1953L 14.1562 36L 13.4297 36L 13.4297 33.2305C 13.4297 32.6159 13.1289 32.3086 12.5273 32.3086C 12.0534 32.3086 11.7292 32.5104 11.5547 32.9141L 11.5547 36L 10.832 36L 10.832 31.7734L 11.5156 31.7734ZM 21.4219 33.9336C 21.4219 34.5768 21.2747 35.0951 20.9805 35.4883C 20.6862 35.8815 20.2878 36.0781 19.7852 36.0781C 19.2721 36.0781 18.8685 35.9154 18.5742 35.5898L 18.5742 37.625L 17.8516 37.625L 17.8516 31.7734L 18.5117 31.7734L 18.5469 32.2422C 18.8411 31.8776 19.25 31.6953 19.7734 31.6953C 20.2812 31.6953 20.6823 31.8867 20.9766 32.2695C 21.2734 32.6523 21.4219 33.1849 21.4219 33.8672L 21.4219 33.9336ZM 20.6992 33.8516C 20.6992 33.375 20.5977 32.9987 20.3945 32.7227C 20.1914 32.4466 19.9128 32.3086 19.5586 32.3086C 19.1211 32.3086 18.793 32.5026 18.5742 32.8906L 18.5742 34.9102C 18.7904 35.2956 19.1211 35.4883 19.5664 35.4883C 19.9128 35.4883 20.1875 35.3516 20.3906 35.0781C 20.5964 34.8021 20.6992 34.3932 20.6992 33.8516ZM 23.1289 36L 22.4062 36L 22.4062 30L 23.1289 30L 23.1289 36ZM 24.0977 33.8477C 24.0977 33.4336 24.1784 33.0612 24.3398 32.7305C 24.5039 32.3997 24.7305 32.1445 25.0195 31.9648C 25.3112 31.7852 25.6432 31.6953 26.0156 31.6953C 26.5911 31.6953 27.056 31.8945 27.4102 32.293C 27.7669 32.6914 27.9453 33.2214 27.9453 33.8828L 27.9453 33.9336C 27.9453 34.3451 27.8659 34.7148 27.707 35.043C 27.5508 35.3685 27.3255 35.6224 27.0312 35.8047C 26.7396 35.987 26.4036 36.0781 26.0234 36.0781C 25.4505 36.0781 24.9857 35.8789 24.6289 35.4805C 24.2747 35.082 24.0977 34.5547 24.0977 33.8984L 24.0977 33.8477ZM 24.8242 33.9336C 24.8242 34.4023 24.9323 34.7786 25.1484 35.0625C 25.3672 35.3464 25.6589 35.4883 26.0234 35.4883C 26.3906 35.4883 26.6823 35.3451 26.8984 35.0586C 27.1146 34.7695 27.2227 34.3659 27.2227 33.8477C 27.2227 33.3841 27.112 33.0091 26.8906 32.7227C 26.6719 32.4336 26.3802 32.2891 26.0156 32.2891C 25.6589 32.2891 25.3711 32.431 25.1523 32.7148C 24.9336 32.9987 24.8242 33.4049 24.8242 33.9336ZM 29.6367 36L 28.9141 36L 28.9141 31.7734L 29.6367 31.7734L 29.6367 36ZM 28.8555 30.6523C 28.8555 30.5352 28.8906 30.4362 28.9609 30.3555C 29.0339 30.2747 29.1406 30.2344 29.2812 30.2344C 29.4219 30.2344 29.5286 30.2747 29.6016 30.3555C 29.6745 30.4362 29.7109 30.5352 29.7109 30.6523C 29.7109 30.7695 29.6745 30.8672 29.6016 30.9453C 29.5286 31.0234 29.4219 31.0625 29.2812 31.0625C 29.1406 31.0625 29.0339 31.0234 28.9609 30.9453C 28.8906 30.8672 28.8555 30.7695 28.8555 30.6523ZM 34.5352 36.0781C 33.9622 36.0781 33.4961 35.8906 33.1367 35.5156C 32.7773 35.138 32.5977 34.6341 32.5977 34.0039L 32.5977 33.8711C 32.5977 33.4518 32.6771 33.0781 32.8359 32.75C 32.9974 32.4193 33.2214 32.1615 33.5078 31.9766C 33.7969 31.7891 34.1094 31.6953 34.4453 31.6953C 34.9948 31.6953 35.4219 31.8763 35.7266 32.2383C 36.0312 32.6003 36.1836 33.1185 36.1836 33.793L 36.1836 34.0938L 33.3203 34.0938C 33.3307 34.5104 33.4518 34.8477 33.6836 35.1055C 33.918 35.3607 34.2148 35.4883 34.5742 35.4883C 34.8294 35.4883 35.0456 35.4362 35.2227 35.332C 35.3997 35.2279 35.5547 35.0898 35.6875 34.918L 36.1289 35.2617C 35.7747 35.806 35.2435 36.0781 34.5352 36.0781ZM 34.4453 32.2891C 34.1536 32.2891 33.9089 32.3958 33.7109 32.6094C 33.513 32.8203 33.3906 33.1172 33.3438 33.5L 35.4609 33.5L 35.4609 33.4453C 35.4401 33.0781 35.3411 32.7943 35.1641 32.5938C 34.987 32.3906 34.7474 32.2891 34.4453 32.2891ZM 38.0039 30.75L 38.0039 31.7734L 38.793 31.7734L 38.793 32.332L 38.0039 32.332L 38.0039 34.9531C 38.0039 35.1224 38.0391 35.25 38.1094 35.3359C 38.1797 35.4193 38.2995 35.4609 38.4688 35.4609C 38.5521 35.4609 38.6667 35.4453 38.8125 35.4141L 38.8125 36C 38.6224 36.0521 38.4375 36.0781 38.2578 36.0781C 37.9349 36.0781 37.6914 35.9805 37.5273 35.7852C 37.3633 35.5898 37.2812 35.3125 37.2812 34.9531L 37.2812 32.332L 36.5117 32.332L 36.5117 31.7734L 37.2812 31.7734L 37.2812 30.75L 38.0039 30.75ZM 42.4102 36L 41.6875 36L 41.6875 31.7734L 42.4102 31.7734L 42.4102 36ZM 41.6289 30.6523C 41.6289 30.5352 41.6641 30.4362 41.7344 30.3555C 41.8073 30.2747 41.9141 30.2344 42.0547 30.2344C 42.1953 30.2344 42.3021 30.2747 42.375 30.3555C 42.4479 30.4362 42.4844 30.5352 42.4844 30.6523C 42.4844 30.7695 42.4479 30.8672 42.375 30.9453C 42.3021 31.0234 42.1953 31.0625 42.0547 31.0625C 41.9141 31.0625 41.8073 31.0234 41.7344 30.9453C 41.6641 30.8672 41.6289 30.7695 41.6289 30.6523ZM 44.2539 31.7734L 44.2773 32.3047C 44.6003 31.8984 45.0221 31.6953 45.543 31.6953C 46.4362 31.6953 46.8867 32.1992 46.8945 33.207L 46.8945 36L 46.1719 36L 46.1719 33.2031C 46.1693 32.8984 46.099 32.6732 45.9609 32.5273C 45.8255 32.3815 45.6133 32.3086 45.3242 32.3086C 45.0898 32.3086 44.8841 32.3711 44.707 32.4961C 44.5299 32.6211 44.3919 32.7852 44.293 32.9883L 44.293 36L 43.5703 36L 43.5703 31.7734L 44.2539 31.7734ZM 49.6797 35.4883C 49.9375 35.4883 50.1628 35.4102 50.3555 35.2539C 50.5482 35.0977 50.6549 34.9023 50.6758 34.668L 51.3594 34.668C 51.3464 34.9102 51.263 35.1406 51.1094 35.3594C 50.9557 35.5781 50.75 35.7526 50.4922 35.8828C 50.237 36.013 49.9661 36.0781 49.6797 36.0781C 49.1042 36.0781 48.6458 35.8867 48.3047 35.5039C 47.9661 35.1185 47.7969 34.5924 47.7969 33.9258L 47.7969 33.8047C 47.7969 33.3932 47.8724 33.0273 48.0234 32.707C 48.1745 32.3867 48.3906 32.138 48.6719 31.9609C 48.9557 31.7839 49.2904 31.6953 49.6758 31.6953C 50.1497 31.6953 50.543 31.8372 50.8555 32.1211C 51.1706 32.4049 51.3385 32.7734 51.3594 33.2266L 50.6758 33.2266C 50.6549 32.9531 50.5508 32.7292 50.3633 32.5547C 50.1784 32.3776 49.9492 32.2891 49.6758 32.2891C 49.3086 32.2891 49.0234 32.4219 48.8203 32.6875C 48.6198 32.9505 48.5195 33.332 48.5195 33.832L 48.5195 33.9688C 48.5195 34.4557 48.6198 34.8307 48.8203 35.0938C 49.0208 35.3568 49.3073 35.4883 49.6797 35.4883ZM 52.957 36L 52.2344 36L 52.2344 30L 52.957 30L 52.957 36ZM 56.7266 35.582C 56.4453 35.9128 56.0326 36.0781 55.4883 36.0781C 55.0378 36.0781 54.694 35.9479 54.457 35.6875C 54.2227 35.4245 54.1042 35.0365 54.1016 34.5234L 54.1016 31.7734L 54.8242 31.7734L 54.8242 34.5039C 54.8242 35.1445 55.0846 35.4648 55.6055 35.4648C 56.1576 35.4648 56.5247 35.2591 56.707 34.8477L 56.707 31.7734L 57.4297 31.7734L 57.4297 36L 56.7422 36L 56.7266 35.582ZM 60.9922 34.8789C 60.9922 34.6836 60.918 34.5326 60.7695 34.4258C 60.6237 34.3164 60.3672 34.2227 60 34.1445C 59.6354 34.0664 59.3451 33.9727 59.1289 33.8633C 58.9154 33.7539 58.7565 33.6237 58.6523 33.4727C 58.5508 33.3216 58.5 33.1419 58.5 32.9336C 58.5 32.5872 58.6458 32.2943 58.9375 32.0547C 59.2318 31.8151 59.6068 31.6953 60.0625 31.6953C 60.5417 31.6953 60.9297 31.819 61.2266 32.0664C 61.526 32.3138 61.6758 32.6302 61.6758 33.0156L 60.9492 33.0156C 60.9492 32.8177 60.8646 32.6471 60.6953 32.5039C 60.5286 32.3607 60.3177 32.2891 60.0625 32.2891C 59.7995 32.2891 59.5938 32.3464 59.4453 32.4609C 59.2969 32.5755 59.2227 32.7253 59.2227 32.9102C 59.2227 33.0846 59.2917 33.2161 59.4297 33.3047C 59.5677 33.3932 59.8164 33.4779 60.1758 33.5586C 60.5378 33.6393 60.8307 33.7357 61.0547 33.8477C 61.2786 33.9596 61.444 34.0951 61.5508 34.2539C 61.6602 34.4102 61.7148 34.6016 61.7148 34.8281C 61.7148 35.2057 61.5638 35.5091 61.2617 35.7383C 60.9596 35.9648 60.5677 36.0781 60.0859 36.0781C 59.7474 36.0781 59.4479 36.0182 59.1875 35.8984C 58.9271 35.7786 58.7227 35.612 58.5742 35.3984C 58.4284 35.1823 58.3555 34.9492 58.3555 34.6992L 59.0781 34.6992C 59.0911 34.9414 59.1875 35.1341 59.3672 35.2773C 59.5495 35.418 59.7891 35.4883 60.0859 35.4883C 60.3594 35.4883 60.5781 35.4336 60.7422 35.3242C 60.9089 35.2122 60.9922 35.0638 60.9922 34.8789ZM 63.4414 36L 62.7188 36L 62.7188 31.7734L 63.4414 31.7734L 63.4414 36ZM 62.6602 30.6523C 62.6602 30.5352 62.6953 30.4362 62.7656 30.3555C 62.8385 30.2747 62.9453 30.2344 63.0859 30.2344C 63.2266 30.2344 63.3333 30.2747 63.4062 30.3555C 63.4792 30.4362 63.5156 30.5352 63.5156 30.6523C 63.5156 30.7695 63.4792 30.8672 63.4062 30.9453C 63.3333 31.0234 63.2266 31.0625 63.0859 31.0625C 62.9453 31.0625 62.8385 31.0234 62.7656 30.9453C 62.6953 30.8672 62.6602 30.7695 62.6602 30.6523ZM 64.4102 33.8477C 64.4102 33.4336 64.4909 33.0612 64.6523 32.7305C 64.8164 32.3997 65.043 32.1445 65.332 31.9648C 65.6237 31.7852 65.9557 31.6953 66.3281 31.6953C 66.9036 31.6953 67.3685 31.8945 67.7227 32.293C 68.0794 32.6914 68.2578 33.2214 68.2578 33.8828L 68.2578 33.9336C 68.2578 34.3451 68.1784 34.7148 68.0195 35.043C 67.8633 35.3685 67.638 35.6224 67.3438 35.8047C 67.0521 35.987 66.7161 36.0781 66.3359 36.0781C 65.763 36.0781 65.2982 35.8789 64.9414 35.4805C 64.5872 35.082 64.4102 34.5547 64.4102 33.8984L 64.4102 33.8477ZM 65.1367 33.9336C 65.1367 34.4023 65.2448 34.7786 65.4609 35.0625C 65.6797 35.3464 65.9714 35.4883 66.3359 35.4883C 66.7031 35.4883 66.9948 35.3451 67.2109 35.0586C 67.4271 34.7695 67.5352 34.3659 67.5352 33.8477C 67.5352 33.3841 67.4245 33.0091 67.2031 32.7227C 66.9844 32.4336 66.6927 32.2891 66.3281 32.2891C 65.9714 32.2891 65.6836 32.431 65.4648 32.7148C 65.2461 32.9987 65.1367 33.4049 65.1367 33.9336ZM 69.8477 31.7734L 69.8711 32.3047C 70.194 31.8984 70.6159 31.6953 71.1367 31.6953C 72.0299 31.6953 72.4805 32.1992 72.4883 33.207L 72.4883 36L 71.7656 36L 71.7656 33.2031C 71.763 32.8984 71.6927 32.6732 71.5547 32.5273C 71.4193 32.3815 71.207 32.3086 70.918 32.3086C 70.6836 32.3086 70.4779 32.3711 70.3008 32.4961C 70.1237 32.6211 69.9857 32.7852 69.8867 32.9883L 69.8867 36L 69.1641 36L 69.1641 31.7734L 69.8477 31.7734ZM 75.9688 32.293L 77.1211 33.8125L 77.1211 33.8867L 75.9688 35.4062L 75.4141 35.4062L 76.4219 33.8516L 75.4141 32.293L 75.9688 32.293ZM 77.332 32.293L 78.4844 33.8125L 78.4844 33.8867L 77.332 35.4062L 76.7773 35.4062L 77.7852 33.8516L 76.7773 32.293L 77.332 32.293ZM 84.9492 36L 81.2227 36L 81.2227 35.4805L 83.1914 33.293C 83.4831 32.9622 83.6836 32.694 83.793 32.4883C 83.9049 32.2799 83.9609 32.0651 83.9609 31.8438C 83.9609 31.5469 83.8711 31.3034 83.6914 31.1133C 83.5117 30.9232 83.2721 30.8281 82.9727 30.8281C 82.6133 30.8281 82.3333 30.931 82.1328 31.1367C 81.9349 31.3398 81.8359 31.6237 81.8359 31.9883L 81.1133 31.9883C 81.1133 31.4648 81.2812 31.0417 81.6172 30.7188C 81.9557 30.3958 82.4076 30.2344 82.9727 30.2344C 83.5013 30.2344 83.9193 30.3737 84.2266 30.6523C 84.5339 30.9284 84.6875 31.2969 84.6875 31.7578C 84.6875 32.3177 84.3307 32.9844 83.6172 33.7578L 82.0938 35.4102L 84.9492 35.4102L 84.9492 36ZM 89.2812 33.5742C 89.2812 34.4206 89.1367 35.0495 88.8477 35.4609C 88.5586 35.8724 88.1068 36.0781 87.4922 36.0781C 86.8854 36.0781 86.4362 35.8776 86.1445 35.4766C 85.8529 35.0729 85.7018 34.4714 85.6914 33.6719L 85.6914 32.707C 85.6914 31.8711 85.8359 31.25 86.125 30.8438C 86.4141 30.4375 86.8672 30.2344 87.4844 30.2344C 88.0964 30.2344 88.5469 30.431 88.8359 30.8242C 89.125 31.2148 89.2734 31.819 89.2812 32.6367L 89.2812 33.5742ZM 88.5586 32.5859C 88.5586 31.974 88.4727 31.5286 88.3008 31.25C 88.1289 30.9688 87.8568 30.8281 87.4844 30.8281C 87.1146 30.8281 86.8451 30.9674 86.6758 31.2461C 86.5065 31.5247 86.4193 31.9531 86.4141 32.5312L 86.4141 33.6875C 86.4141 34.3021 86.5026 34.7565 86.6797 35.0508C 86.8594 35.3424 87.1302 35.4883 87.4922 35.4883C 87.849 35.4883 88.1133 35.3503 88.2852 35.0742C 88.4596 34.7982 88.5508 34.3633 88.5586 33.7695L 88.5586 32.5859ZM 92.582 36L 91.8555 36L 91.8555 31.1836L 90.3984 31.7188L 90.3984 31.0625L 92.4688 30.2852L 92.582 30.2852L 92.582 36ZM 97.75 34.0898L 98.5391 34.0898L 98.5391 34.6797L 97.75 34.6797L 97.75 36L 97.0234 36L 97.0234 34.6797L 94.4336 34.6797L 94.4336 34.2539L 96.9805 30.3125L 97.75 30.3125L 97.75 34.0898ZM 95.2539 34.0898L 97.0234 34.0898L 97.0234 31.3008L 96.9375 31.457L 95.2539 34.0898ZM 100.77 33.8789L 98.8633 33.8789L 98.8633 33.2891L 100.77 33.2891L 100.77 33.8789ZM 105.129 36L 101.402 36L 101.402 35.4805L 103.371 33.293C 103.663 32.9622 103.863 32.694 103.973 32.4883C 104.085 32.2799 104.141 32.0651 104.141 31.8438C 104.141 31.5469 104.051 31.3034 103.871 31.1133C 103.691 30.9232 103.452 30.8281 103.152 30.8281C 102.793 30.8281 102.513 30.931 102.312 31.1367C 102.115 31.3398 102.016 31.6237 102.016 31.9883L 101.293 31.9883C 101.293 31.4648 101.461 31.0417 101.797 30.7188C 102.135 30.3958 102.587 30.2344 103.152 30.2344C 103.681 30.2344 104.099 30.3737 104.406 30.6523C 104.714 30.9284 104.867 31.2969 104.867 31.7578C 104.867 32.3177 104.51 32.9844 103.797 33.7578L 102.273 35.4102L 105.129 35.4102L 105.129 36ZM 109.461 33.5742C 109.461 34.4206 109.316 35.0495 109.027 35.4609C 108.738 35.8724 108.286 36.0781 107.672 36.0781C 107.065 36.0781 106.616 35.8776 106.324 35.4766C 106.033 35.0729 105.882 34.4714 105.871 33.6719L 105.871 32.707C 105.871 31.8711 106.016 31.25 106.305 30.8438C 106.594 30.4375 107.047 30.2344 107.664 30.2344C 108.276 30.2344 108.727 30.431 109.016 30.8242C 109.305 31.2148 109.453 31.819 109.461 32.6367L 109.461 33.5742ZM 108.738 32.5859C 108.738 31.974 108.652 31.5286 108.48 31.25C 108.309 30.9688 108.036 30.8281 107.664 30.8281C 107.294 30.8281 107.025 30.9674 106.855 31.2461C 106.686 31.5247 106.599 31.9531 106.594 32.5312L 106.594 33.6875C 106.594 34.3021 106.682 34.7565 106.859 35.0508C 107.039 35.3424 107.31 35.4883 107.672 35.4883C 108.029 35.4883 108.293 35.3503 108.465 35.0742C 108.639 34.7982 108.73 34.3633 108.738 33.7695L 108.738 32.5859ZM 114.113 36L 110.387 36L 110.387 35.4805L 112.355 33.293C 112.647 32.9622 112.848 32.694 112.957 32.4883C 113.069 32.2799 113.125 32.0651 113.125 31.8438C 113.125 31.5469 113.035 31.3034 112.855 31.1133C 112.676 30.9232 112.436 30.8281 112.137 30.8281C 111.777 30.8281 111.497 30.931 111.297 31.1367C 111.099 31.3398 111 31.6237 111 31.9883L 110.277 31.9883C 110.277 31.4648 110.445 31.0417 110.781 30.7188C 111.12 30.3958 111.572 30.2344 112.137 30.2344C 112.665 30.2344 113.083 30.3737 113.391 30.6523C 113.698 30.9284 113.852 31.2969 113.852 31.7578C 113.852 32.3177 113.495 32.9844 112.781 33.7578L 111.258 35.4102L 114.113 35.4102L 114.113 36ZM 118.445 33.5742C 118.445 34.4206 118.301 35.0495 118.012 35.4609C 117.723 35.8724 117.271 36.0781 116.656 36.0781C 116.049 36.0781 115.6 35.8776 115.309 35.4766C 115.017 35.0729 114.866 34.4714 114.855 33.6719L 114.855 32.707C 114.855 31.8711 115 31.25 115.289 30.8438C 115.578 30.4375 116.031 30.2344 116.648 30.2344C 117.26 30.2344 117.711 30.431 118 30.8242C 118.289 31.2148 118.438 31.819 118.445 32.6367L 118.445 33.5742ZM 117.723 32.5859C 117.723 31.974 117.637 31.5286 117.465 31.25C 117.293 30.9688 117.021 30.8281 116.648 30.8281C 116.279 30.8281 116.009 30.9674 115.84 31.2461C 115.671 31.5247 115.583 31.9531 115.578 32.5312L 115.578 33.6875C 115.578 34.3021 115.667 34.7565 115.844 35.0508C 116.023 35.3424 116.294 35.4883 116.656 35.4883C 117.013 35.4883 117.277 35.3503 117.449 35.0742C 117.624 34.7982 117.715 34.3633 117.723 33.7695L 117.723 32.5859Z"/>
</defs>
</svg>
