<?xml version="1.0" encoding="UTF-8"?>
<svg width="65px" height="49px" viewBox="0 0 65 49" version="1.1" xmlns="http://www.w3.org/2000/svg" xmlns:xlink="http://www.w3.org/1999/xlink">
    <!-- Generator: Sketch 53.1 (72631) - https://sketchapp.com -->
    <title>picto/alertes</title>
    <desc>Created with Sketch.</desc>
    <g id="picto/alertes" stroke="none" stroke-width="1" fill="none" fill-rule="evenodd">
        <g id="mailing" fill-rule="nonzero">
            <path d="M54.4400391,0.82875 L27.6988867,17.8233301 L0.957734375,0.82875 C0.371083984,1.36957031 0,2.14119141 0,2.99710938 L0,36.4046973 C0,37.2648047 0.374638672,38.0395996 0.966240234,38.5806738 L27.6987598,21.5947266 L55.1697656,39.3592773 L55.3975197,39.3592773 L55.3975195,2.99710938 C55.3977734,2.14119141 55.0266895,1.36957031 54.4400391,0.82875 Z" id="Shape" fill="#E7DF9C"></path>
            <path d="M2.95458008,39.3592773 L55.1700195,39.3592773 L36.5221289,19.7009668 L18.8755176,19.7009668 L0.966240234,38.5808008 C1.49233398,39.062207 2.18956055,39.3592773 2.95458008,39.3592773 Z" id="Shape" fill="#D4C97C"></path>
            <path d="M2.95458008,0.04265625 C2.18549805,0.04265625 1.48484375,0.342900391 0.957734375,0.828876953 L25.6605273,26.7513086 C26.7816504,27.9276562 28.6159961,27.9276562 29.7371191,26.7513086 L54.4400391,0.82875 C53.9129297,0.342773438 53.2122754,0.0425292969 52.4431934,0.0425292969 L2.95458008,0.0425292969 L2.95458008,0.04265625 Z" id="Shape" fill="#F2EEAF"></path>
            <circle id="Oval" fill="#F14742" cx="55.3977734" cy="39.3590234" r="9.60222656"></circle>
            <path d="M55.3977734,44.1605176 C54.7857324,44.1605176 54.2898535,43.6645117 54.2898535,43.0525977 L54.2898535,38.1883887 C53.9001074,38.325752 53.449043,38.2387891 53.1369922,37.9268652 C52.7043359,37.494209 52.7043359,36.792666 53.1369922,36.3600098 L54.6142187,34.8827832 C54.9312207,34.5657813 55.4078027,34.4709473 55.8217969,34.6425879 C56.235918,34.8141016 56.5058203,35.2181934 56.5058203,35.6662109 L56.5058203,43.0525977 C56.5056934,43.6643848 56.0098145,44.1605176 55.3977734,44.1605176 Z" id="Shape" fill="#FFFFFF"></path>
        </g>
    </g>
</svg>