<?xml version="1.0" encoding="UTF-8"?>
<svg width="56px" height="44px" viewBox="0 0 56 44" version="1.1" xmlns="http://www.w3.org/2000/svg" xmlns:xlink="http://www.w3.org/1999/xlink">
    <!-- Generator: Sketch 53.1 (72631) - https://sketchapp.com -->
    <title>picto/candidatures</title>
    <desc>Created with Sketch.</desc>
    <g id="picto/candidatures" stroke="none" stroke-width="1" fill="none" fill-rule="evenodd">
        <g id="Group-15" fill-rule="nonzero">
            <g id="Group-12">
                <rect id="Rectangle-2" fill="#00E6A8" x="0" y="0" width="25.8823529" height="19.4117647" rx="3"></rect>
                <circle id="Oval" fill="#FFFFFF" cx="5.5" cy="4.20588235" r="2.26470588"></circle>
            </g>
            <g id="Group-11" transform="translate(0.000000, 22.647059)">
                <path d="M3,0 L22.8823529,8.8817842e-16 C24.5392072,5.83819232e-16 25.8823529,1.34314575 25.8823529,3 L25.8823529,16.4117647 C25.8823529,18.068619 24.5392072,19.4117647 22.8823529,19.4117647 L3,19.4117647 C1.34314575,19.4117647 2.85436862e-15,18.068619 4.4408921e-16,16.4117647 L4.4408921e-16,3 C2.41183085e-16,1.34314575 1.34314575,7.48448398e-16 3,4.4408921e-16 Z" id="Rectangle-2-Copy-2" fill="#00E6A8"></path>
                <circle id="Oval-Copy-3" fill="#FFFFFF" cx="5.5" cy="4.20588235" r="2.26470588"></circle>
            </g>
            <g id="Group-13" transform="translate(29.117647, 0.000000)">
                <path d="M3,0 L22.8823529,8.8817842e-16 C24.5392072,5.83819232e-16 25.8823529,1.34314575 25.8823529,3 L25.8823529,16.4117647 C25.8823529,18.068619 24.5392072,19.4117647 22.8823529,19.4117647 L3,19.4117647 C1.34314575,19.4117647 2.85436862e-15,18.068619 4.4408921e-16,16.4117647 L4.4408921e-16,3 C2.41183085e-16,1.34314575 1.34314575,7.48448398e-16 3,4.4408921e-16 Z" id="Rectangle-2-Copy" fill="#1CDCFF"></path>
                <circle id="Oval-Copy" fill="#FFFFFF" cx="5.5" cy="4.20588235" r="2.26470588"></circle>
            </g>
            <g id="Group-14" transform="translate(35.941176, 26.529412)" fill="#414042">
                <path d="M8.46554345,11.0118548 L8.46554345,14.7742692 C8.46554345,15.2648259 8.06786867,15.6625006 7.57731196,15.6625006 C7.08675526,15.6625006 6.68908048,15.2648259 6.68908048,14.7742692 L6.68908048,11.0118548 L4.14535217,11.0118548 C3.59306742,11.0118548 3.14535217,10.5641395 3.14535217,10.0118548 C3.14535217,9.85336029 3.18302561,9.69713571 3.25526625,9.556062 L6.68711504,2.85424399 C6.93884244,2.36266311 7.54141286,2.16822345 8.03299374,2.41995086 C8.21973059,2.51557456 8.37166317,2.66750714 8.46728687,2.85424399 L11.8991357,9.556062 C12.1508631,10.0476429 11.9564234,10.6502133 11.4648425,10.9019407 C11.3237688,10.9741813 11.1675442,11.0118548 11.0090497,11.0118548 L8.46554345,11.0118548 Z" id="Combined-Shape" transform="translate(7.577307, 8.986163) rotate(-37.000000) translate(-7.577307, -8.986163) "></path>
            </g>
        </g>
    </g>
</svg>